M48
; DRILL file {KiCad (7.0.0)} date Thu Mar 23 02:06:21 2023
; FORMAT={-:-/ absolute / inch / decimal}
; #@! TF.CreationDate,2023-03-23T02:06:21-06:00
; #@! TF.GenerationSoftware,Kicad,Pcbnew,(7.0.0)
; #@! TF.FileFunction,Plated,1,2,PTH
FMAT,2
INCH
; #@! TA.AperFunction,Plated,PTH,ComponentDrill
T1C0.0138
; #@! TA.AperFunction,Plated,PTH,ViaDrill
T2C0.0157
; #@! TA.AperFunction,Plated,PTH,ComponentDrill
T3C0.0236
; #@! TA.AperFunction,Plated,PTH,ComponentDrill
T4C0.0390
; #@! TA.AperFunction,Plated,PTH,ComponentDrill
T5C0.0512
%
G90
G05
T1
X7.2809Y-2.9921
X7.2809Y-3.0423
X7.2809Y-3.0925
X7.3311Y-2.9921
X7.3311Y-3.0423
X7.3311Y-3.0925
X7.3813Y-2.9921
X7.3813Y-3.0423
X7.3813Y-3.0925
T2
X4.042Y-4.854
X4.054Y-2.685
X4.107Y-2.8609
X4.108Y-4.36
X4.139Y-3.211
X4.141Y-4.772
X4.47Y-3.213
X4.776Y-3.603
X4.834Y-3.4
X5.525Y-2.853
X5.525Y-4.353
X6.115Y-2.566
X6.3612Y-4.98
X6.464Y-3.052
X6.51Y-4.2142
X6.543Y-4.361
X6.574Y-3.2126
X6.574Y-3.336
X6.574Y-4.713
X6.655Y-2.575
X6.704Y-2.464
X6.751Y-3.716
X6.862Y-2.5419
X6.893Y-3.153
X6.96Y-3.3671
X7.0054Y-3.366
X7.034Y-2.7182
X7.035Y-2.61
X7.035Y-2.665
X7.05Y-3.366
X7.0968Y-3.043
X7.0968Y-3.122
X7.0968Y-3.241
X7.099Y-2.881
X7.1303Y-3.444
X7.1638Y-3.205
X7.1673Y-2.9147
X7.169Y-3.612
X7.1763Y-3.254
X7.2Y-3.175
X7.205Y-2.881
X7.2322Y-2.7482
X7.286Y-3.428
X7.294Y-3.611
X7.323Y-2.948
X7.382Y-3.886
X7.4223Y-2.6093
X7.454Y-3.286
X7.469Y-2.907
X7.485Y-2.8038
X7.534Y-2.901
X7.536Y-2.722
X7.5572Y-3.126
X7.575Y-3.205
X7.5903Y-2.7103
X7.5915Y-2.9155
X7.6004Y-3.0563
X7.661Y-3.0949
X7.671Y-2.9662
X7.721Y-3.1208
X7.754Y-2.958
X7.794Y-2.797
X7.806Y-3.242
X7.8402Y-2.963
X7.8402Y-3.1161
X7.91Y-3.1
X7.9547Y-3.1
X7.963Y-4.353
X8.0Y-3.1
X8.075Y-4.713
X8.083Y-3.213
X8.09Y-3.37
X8.09Y-3.43
X8.37Y-2.555
X8.375Y-2.454
X8.495Y-4.9
X8.51Y-3.37
X8.51Y-3.43
T4
X8.879Y-3.9114
X8.879Y-4.0886
X8.8814Y-3.4911
X8.8814Y-3.6683
T5
X8.781Y-3.8622
X8.781Y-4.1382
X8.7834Y-3.4419
X8.7834Y-3.7179
T3
G00X7.3255Y-2.454
M15
G01X7.3255Y-2.4855
M16
G05
G00X7.3255Y-2.6134
M15
G01X7.3255Y-2.6567
M16
G05
G00X7.6656Y-2.454
M15
G01X7.6656Y-2.4855
M16
G05
G00X7.6656Y-2.6134
M15
G01X7.6656Y-2.6567
M16
G05
T0
M30
