M48
; DRILL file {KiCad (7.0.0)} date Thu Mar 23 02:06:21 2023
; FORMAT={-:-/ absolute / inch / decimal}
; #@! TF.CreationDate,2023-03-23T02:06:21-06:00
; #@! TF.GenerationSoftware,Kicad,Pcbnew,(7.0.0)
; #@! TF.FileFunction,NonPlated,1,2,NPTH
FMAT,2
INCH
; #@! TA.AperFunction,NonPlated,NPTH,ComponentDrill
T1C0.0256
; #@! TA.AperFunction,NonPlated,NPTH,ComponentDrill
T2C0.0670
; #@! TA.AperFunction,NonPlated,NPTH,ComponentDrill
T3C0.1181
; #@! TA.AperFunction,NonPlated,NPTH,ComponentDrill
T4C0.1570
%
G90
G05
T1
X7.3818Y-2.6146
X7.6093Y-2.6146
T2
X4.1048Y-3.0421
X4.1048Y-4.5421
X4.5048Y-3.0421
X4.5048Y-4.5421
X4.8548Y-3.7921
X5.2548Y-3.7921
X5.6038Y-3.0431
X5.6038Y-4.5421
X6.0038Y-3.0431
X6.0038Y-4.5421
X6.5408Y-4.5421
X6.5422Y-3.0423
X6.9408Y-4.5421
X6.9422Y-3.0423
X7.2922Y-3.7923
X7.6922Y-3.7923
X8.0422Y-4.5423
X8.0426Y-3.0419
X8.4422Y-4.5423
X8.4426Y-3.0419
T3
X4.1548Y-2.9421
X4.1548Y-4.4421
X4.4048Y-2.8421
X4.4048Y-4.3421
X4.9048Y-3.6921
X5.1548Y-3.5921
X5.6538Y-2.9431
X5.6538Y-4.4421
X5.9038Y-2.8431
X5.9038Y-4.3421
X6.5908Y-4.4421
X6.5922Y-2.9423
X6.8408Y-4.3421
X6.8422Y-2.8423
X7.3422Y-3.6923
X7.5922Y-3.5923
X8.0922Y-4.4423
X8.0926Y-2.9419
X8.3422Y-4.3423
X8.3426Y-2.8419
T4
X4.3048Y-3.0421
X4.3048Y-4.5421
X5.0548Y-3.7921
X5.8038Y-3.0431
X5.8038Y-4.5421
X6.7408Y-4.5421
X6.7422Y-3.0423
X7.4922Y-3.7923
X8.2422Y-4.5423
X8.2426Y-3.0419
T0
M30
