%TF.GenerationSoftware,KiCad,Pcbnew,(7.0.0)*%
%TF.CreationDate,2023-03-23T02:06:17-06:00*%
%TF.ProjectId,PicoLX,5069636f-4c58-42e6-9b69-6361645f7063,rev?*%
%TF.SameCoordinates,Original*%
%TF.FileFunction,Profile,NP*%
%FSLAX46Y46*%
G04 Gerber Fmt 4.6, Leading zero omitted, Abs format (unit mm)*
G04 Created by KiCad (PCBNEW (7.0.0)) date 2023-03-23 02:06:17*
%MOMM*%
%LPD*%
G01*
G04 APERTURE LIST*
%TA.AperFunction,Profile*%
%ADD10C,0.100000*%
%TD*%
G04 APERTURE END LIST*
D10*
X219675000Y-108500000D02*
X219679352Y-129243584D01*
X219675000Y-84000000D02*
X219679352Y-63362334D01*
X219675000Y-84000000D02*
G75*
G03*
X220675000Y-85000000I1000000J0D01*
G01*
X220675000Y-107500000D02*
G75*
G03*
X219675000Y-108500000I0J-1000000D01*
G01*
X227500000Y-107500000D02*
G75*
G03*
X228500000Y-106500000I0J1000000D01*
G01*
X228500000Y-86000000D02*
G75*
G03*
X227500000Y-85000000I-1000000J0D01*
G01*
X228500000Y-106500000D02*
X228500000Y-86000000D01*
X227500000Y-107500000D02*
X220675000Y-107500000D01*
X220675000Y-85000000D02*
X227500000Y-85000000D01*
X217298102Y-131624852D02*
G75*
G03*
X219679352Y-129243584I-202J2381452D01*
G01*
X99029266Y-129243584D02*
G75*
G03*
X101410602Y-131624834I2381334J84D01*
G01*
X101410602Y-60981052D02*
G75*
G03*
X99029352Y-63362334I-2J-2381248D01*
G01*
X99029352Y-129243584D02*
X99029352Y-63362334D01*
X219679316Y-63362334D02*
G75*
G03*
X217298102Y-60981084I-2381216J34D01*
G01*
X217298102Y-131624834D02*
X101410602Y-131624834D01*
X101410602Y-60981084D02*
X217298102Y-60981084D01*
%TO.C,LED2*%
X101493751Y-65851620D02*
G75*
G03*
X101305392Y-65733269I-353537J-353596D01*
G01*
X101343714Y-64777718D02*
G75*
G03*
X101570382Y-64647639I-126892J483642D01*
G01*
X103779536Y-63259125D02*
G75*
G03*
X102823986Y-63297445I-471918J-165204D01*
G01*
X103779536Y-63259124D02*
G75*
G03*
X103897901Y-63447472I471910J165200D01*
G01*
X102693907Y-63524114D02*
G75*
G03*
X102823986Y-63297445I-353561J353558D01*
G01*
X104891871Y-64441441D02*
G75*
G03*
X105080217Y-64559805I353547J353546D01*
G01*
X102606070Y-67033950D02*
G75*
G03*
X102487707Y-66845603I-471911J-165197D01*
G01*
X103691702Y-66768960D02*
G75*
G03*
X103561624Y-66995628I353562J-353558D01*
G01*
X105041895Y-65515355D02*
G75*
G03*
X104815227Y-65645433I126890J-483640D01*
G01*
X105041895Y-65515353D02*
G75*
G03*
X105080217Y-64559806I-126884J483631D01*
G01*
X101343715Y-64777720D02*
G75*
G03*
X101305392Y-65733268I126884J-483631D01*
G01*
X102606073Y-67033949D02*
G75*
G03*
X103561623Y-66995628I471918J165205D01*
G01*
X104891870Y-64441440D02*
X103897901Y-63447472D01*
X103691702Y-66768959D02*
X104815227Y-65645433D01*
X102693907Y-63524114D02*
X101570382Y-64647639D01*
X101493740Y-65851633D02*
X102487708Y-66845602D01*
%TO.C,LED19*%
X148770001Y-97052841D02*
X148770001Y-95647157D01*
X151264452Y-97849999D02*
X149675548Y-97849999D01*
X149675548Y-94850000D02*
X151264453Y-94850000D01*
X152169999Y-95647157D02*
X152169999Y-97052841D01*
X149423289Y-94781700D02*
G75*
G03*
X148720516Y-95430279I-252259J-431700D01*
G01*
X148720517Y-97269720D02*
G75*
G03*
X149423289Y-97918295I450514J-216876D01*
G01*
X152219484Y-95430279D02*
G75*
G03*
X151516711Y-94781701I-450514J216878D01*
G01*
X151264453Y-94850000D02*
G75*
G03*
X151516711Y-94781701I-3J500009D01*
G01*
X149423289Y-94781700D02*
G75*
G03*
X149675547Y-94849999I252261J431710D01*
G01*
X148770003Y-95647157D02*
G75*
G03*
X148720516Y-95430279I-499993J-3D01*
G01*
X152219484Y-95430279D02*
G75*
G03*
X152169999Y-95647156I450505J-216876D01*
G01*
X151516711Y-97918298D02*
G75*
G03*
X151264452Y-97849999I-252261J-431710D01*
G01*
X152170000Y-97052841D02*
G75*
G03*
X152219485Y-97269719I499989J-2D01*
G01*
X151516711Y-97918298D02*
G75*
G03*
X152219483Y-97269718I252259J431700D01*
G01*
X149675548Y-97850000D02*
G75*
G03*
X149423290Y-97918298I2J-500010D01*
G01*
X148720500Y-97269711D02*
G75*
G03*
X148770001Y-97052842I-450500J216911D01*
G01*
%TO.C,LED18*%
X157900001Y-97052841D02*
X157900001Y-95647157D01*
X160394452Y-97849999D02*
X158805548Y-97849999D01*
X158805548Y-94850000D02*
X160394453Y-94850000D01*
X161299999Y-95647157D02*
X161299999Y-97052841D01*
X158553289Y-94781700D02*
G75*
G03*
X157850516Y-95430279I-252259J-431700D01*
G01*
X157850517Y-97269720D02*
G75*
G03*
X158553289Y-97918295I450514J-216876D01*
G01*
X161349484Y-95430279D02*
G75*
G03*
X160646711Y-94781701I-450514J216878D01*
G01*
X160394453Y-94850000D02*
G75*
G03*
X160646711Y-94781701I-3J500009D01*
G01*
X158553289Y-94781700D02*
G75*
G03*
X158805547Y-94849999I252261J431710D01*
G01*
X157900003Y-95647157D02*
G75*
G03*
X157850516Y-95430279I-499993J-3D01*
G01*
X161349484Y-95430279D02*
G75*
G03*
X161299999Y-95647156I450505J-216876D01*
G01*
X160646711Y-97918298D02*
G75*
G03*
X160394452Y-97849999I-252261J-431710D01*
G01*
X161300000Y-97052841D02*
G75*
G03*
X161349485Y-97269719I499989J-2D01*
G01*
X160646711Y-97918298D02*
G75*
G03*
X161349483Y-97269718I252259J431700D01*
G01*
X158805548Y-97850000D02*
G75*
G03*
X158553290Y-97918298I2J-500010D01*
G01*
X157850500Y-97269711D02*
G75*
G03*
X157900001Y-97052842I-450500J216911D01*
G01*
%TO.C,LED17*%
X167050001Y-97052841D02*
X167050001Y-95647157D01*
X169544452Y-97849999D02*
X167955548Y-97849999D01*
X167955548Y-94850000D02*
X169544453Y-94850000D01*
X170449999Y-95647157D02*
X170449999Y-97052841D01*
X167703289Y-94781700D02*
G75*
G03*
X167000516Y-95430279I-252259J-431700D01*
G01*
X167000517Y-97269720D02*
G75*
G03*
X167703289Y-97918295I450514J-216876D01*
G01*
X170499484Y-95430279D02*
G75*
G03*
X169796711Y-94781701I-450514J216878D01*
G01*
X169544453Y-94850000D02*
G75*
G03*
X169796711Y-94781701I-3J500009D01*
G01*
X167703289Y-94781700D02*
G75*
G03*
X167955547Y-94849999I252261J431710D01*
G01*
X167050003Y-95647157D02*
G75*
G03*
X167000516Y-95430279I-499993J-3D01*
G01*
X170499484Y-95430279D02*
G75*
G03*
X170449999Y-95647156I450505J-216876D01*
G01*
X169796711Y-97918298D02*
G75*
G03*
X169544452Y-97849999I-252261J-431710D01*
G01*
X170450000Y-97052841D02*
G75*
G03*
X170499485Y-97269719I499989J-2D01*
G01*
X169796711Y-97918298D02*
G75*
G03*
X170499483Y-97269718I252259J431700D01*
G01*
X167955548Y-97850000D02*
G75*
G03*
X167703290Y-97918298I2J-500010D01*
G01*
X167000500Y-97269711D02*
G75*
G03*
X167050001Y-97052842I-450500J216911D01*
G01*
%TO.C,LED16*%
X107640001Y-83052841D02*
X107640001Y-81647157D01*
X110134452Y-83849999D02*
X108545548Y-83849999D01*
X108545548Y-80850000D02*
X110134453Y-80850000D01*
X111039999Y-81647157D02*
X111039999Y-83052841D01*
X108293289Y-80781700D02*
G75*
G03*
X107590516Y-81430279I-252259J-431700D01*
G01*
X107590517Y-83269720D02*
G75*
G03*
X108293289Y-83918295I450514J-216876D01*
G01*
X111089484Y-81430279D02*
G75*
G03*
X110386711Y-80781701I-450514J216878D01*
G01*
X110134453Y-80850000D02*
G75*
G03*
X110386711Y-80781701I-3J500009D01*
G01*
X108293289Y-80781700D02*
G75*
G03*
X108545547Y-80849999I252261J431710D01*
G01*
X107640003Y-81647157D02*
G75*
G03*
X107590516Y-81430279I-499993J-3D01*
G01*
X111089484Y-81430279D02*
G75*
G03*
X111039999Y-81647156I450505J-216876D01*
G01*
X110386711Y-83918298D02*
G75*
G03*
X110134452Y-83849999I-252261J-431710D01*
G01*
X111040000Y-83052841D02*
G75*
G03*
X111089485Y-83269719I499989J-2D01*
G01*
X110386711Y-83918298D02*
G75*
G03*
X111089483Y-83269718I252259J431700D01*
G01*
X108545548Y-83850000D02*
G75*
G03*
X108293290Y-83918298I2J-500010D01*
G01*
X107590500Y-83269711D02*
G75*
G03*
X107640001Y-83052842I-450500J216911D01*
G01*
%TO.C,LED15*%
X107590500Y-121369711D02*
G75*
G03*
X107640001Y-121152842I-450500J216911D01*
G01*
X108545548Y-121950000D02*
G75*
G03*
X108293290Y-122018298I2J-500010D01*
G01*
X110386711Y-122018298D02*
G75*
G03*
X111089483Y-121369718I252259J431700D01*
G01*
X111040000Y-121152841D02*
G75*
G03*
X111089485Y-121369719I499989J-2D01*
G01*
X110386711Y-122018298D02*
G75*
G03*
X110134452Y-121949999I-252261J-431710D01*
G01*
X111089484Y-119530279D02*
G75*
G03*
X111039999Y-119747156I450505J-216876D01*
G01*
X107640003Y-119747157D02*
G75*
G03*
X107590516Y-119530279I-499993J-3D01*
G01*
X108293289Y-118881700D02*
G75*
G03*
X108545547Y-118949999I252261J431710D01*
G01*
X110134453Y-118950000D02*
G75*
G03*
X110386711Y-118881701I-3J500009D01*
G01*
X111089484Y-119530279D02*
G75*
G03*
X110386711Y-118881701I-450514J216878D01*
G01*
X107590517Y-121369720D02*
G75*
G03*
X108293289Y-122018295I450514J-216876D01*
G01*
X108293289Y-118881700D02*
G75*
G03*
X107590516Y-119530279I-252259J-431700D01*
G01*
X111039999Y-119747157D02*
X111039999Y-121152841D01*
X108545548Y-118950000D02*
X110134453Y-118950000D01*
X110134452Y-121949999D02*
X108545548Y-121949999D01*
X107640001Y-121152841D02*
X107640001Y-119747157D01*
%TO.C,LED14*%
X126690001Y-102102841D02*
X126690001Y-100697157D01*
X129184452Y-102899999D02*
X127595548Y-102899999D01*
X127595548Y-99900000D02*
X129184453Y-99900000D01*
X130089999Y-100697157D02*
X130089999Y-102102841D01*
X127343289Y-99831700D02*
G75*
G03*
X126640516Y-100480279I-252259J-431700D01*
G01*
X126640517Y-102319720D02*
G75*
G03*
X127343289Y-102968295I450514J-216876D01*
G01*
X130139484Y-100480279D02*
G75*
G03*
X129436711Y-99831701I-450514J216878D01*
G01*
X129184453Y-99900000D02*
G75*
G03*
X129436711Y-99831701I-3J500009D01*
G01*
X127343289Y-99831700D02*
G75*
G03*
X127595547Y-99899999I252261J431710D01*
G01*
X126690003Y-100697157D02*
G75*
G03*
X126640516Y-100480279I-499993J-3D01*
G01*
X130139484Y-100480279D02*
G75*
G03*
X130089999Y-100697156I450505J-216876D01*
G01*
X129436711Y-102968298D02*
G75*
G03*
X129184452Y-102899999I-252261J-431710D01*
G01*
X130090000Y-102102841D02*
G75*
G03*
X130139485Y-102319719I499989J-2D01*
G01*
X129436711Y-102968298D02*
G75*
G03*
X130139483Y-102319718I252259J431700D01*
G01*
X127595548Y-102900000D02*
G75*
G03*
X127343290Y-102968298I2J-500010D01*
G01*
X126640500Y-102319711D02*
G75*
G03*
X126690001Y-102102842I-450500J216911D01*
G01*
%TO.C,LED13*%
X145675500Y-121369711D02*
G75*
G03*
X145725001Y-121152842I-450500J216911D01*
G01*
X146630548Y-121950000D02*
G75*
G03*
X146378290Y-122018298I2J-500010D01*
G01*
X148471711Y-122018298D02*
G75*
G03*
X149174483Y-121369718I252259J431700D01*
G01*
X149125000Y-121152841D02*
G75*
G03*
X149174485Y-121369719I499989J-2D01*
G01*
X148471711Y-122018298D02*
G75*
G03*
X148219452Y-121949999I-252261J-431710D01*
G01*
X149174484Y-119530279D02*
G75*
G03*
X149124999Y-119747156I450505J-216876D01*
G01*
X145725003Y-119747157D02*
G75*
G03*
X145675516Y-119530279I-499993J-3D01*
G01*
X146378289Y-118881700D02*
G75*
G03*
X146630547Y-118949999I252261J431710D01*
G01*
X148219453Y-118950000D02*
G75*
G03*
X148471711Y-118881701I-3J500009D01*
G01*
X149174484Y-119530279D02*
G75*
G03*
X148471711Y-118881701I-450514J216878D01*
G01*
X145675517Y-121369720D02*
G75*
G03*
X146378289Y-122018295I450514J-216876D01*
G01*
X146378289Y-118881700D02*
G75*
G03*
X145675516Y-119530279I-252259J-431700D01*
G01*
X149124999Y-119747157D02*
X149124999Y-121152841D01*
X146630548Y-118950000D02*
X148219453Y-118950000D01*
X148219452Y-121949999D02*
X146630548Y-121949999D01*
X145725001Y-121152841D02*
X145725001Y-119747157D01*
%TO.C,LED12*%
X145700001Y-83077841D02*
X145700001Y-81672157D01*
X148194452Y-83874999D02*
X146605548Y-83874999D01*
X146605548Y-80875000D02*
X148194453Y-80875000D01*
X149099999Y-81672157D02*
X149099999Y-83077841D01*
X146353289Y-80806700D02*
G75*
G03*
X145650516Y-81455279I-252259J-431700D01*
G01*
X145650517Y-83294720D02*
G75*
G03*
X146353289Y-83943295I450514J-216876D01*
G01*
X149149484Y-81455279D02*
G75*
G03*
X148446711Y-80806701I-450514J216878D01*
G01*
X148194453Y-80875000D02*
G75*
G03*
X148446711Y-80806701I-3J500009D01*
G01*
X146353289Y-80806700D02*
G75*
G03*
X146605547Y-80874999I252261J431710D01*
G01*
X145700003Y-81672157D02*
G75*
G03*
X145650516Y-81455279I-499993J-3D01*
G01*
X149149484Y-81455279D02*
G75*
G03*
X149099999Y-81672156I450505J-216876D01*
G01*
X148446711Y-83943298D02*
G75*
G03*
X148194452Y-83874999I-252261J-431710D01*
G01*
X149100000Y-83077841D02*
G75*
G03*
X149149485Y-83294719I499989J-2D01*
G01*
X148446711Y-83943298D02*
G75*
G03*
X149149483Y-83294718I252259J431700D01*
G01*
X146605548Y-83875000D02*
G75*
G03*
X146353290Y-83943298I2J-500010D01*
G01*
X145650500Y-83294711D02*
G75*
G03*
X145700001Y-83077842I-450500J216911D01*
G01*
%TO.C,LED11*%
X169550001Y-83052841D02*
X169550001Y-81647157D01*
X172044452Y-83849999D02*
X170455548Y-83849999D01*
X170455548Y-80850000D02*
X172044453Y-80850000D01*
X172949999Y-81647157D02*
X172949999Y-83052841D01*
X170203289Y-80781700D02*
G75*
G03*
X169500516Y-81430279I-252259J-431700D01*
G01*
X169500517Y-83269720D02*
G75*
G03*
X170203289Y-83918295I450514J-216876D01*
G01*
X172999484Y-81430279D02*
G75*
G03*
X172296711Y-80781701I-450514J216878D01*
G01*
X172044453Y-80850000D02*
G75*
G03*
X172296711Y-80781701I-3J500009D01*
G01*
X170203289Y-80781700D02*
G75*
G03*
X170455547Y-80849999I252261J431710D01*
G01*
X169550003Y-81647157D02*
G75*
G03*
X169500516Y-81430279I-499993J-3D01*
G01*
X172999484Y-81430279D02*
G75*
G03*
X172949999Y-81647156I450505J-216876D01*
G01*
X172296711Y-83918298D02*
G75*
G03*
X172044452Y-83849999I-252261J-431710D01*
G01*
X172950000Y-83052841D02*
G75*
G03*
X172999485Y-83269719I499989J-2D01*
G01*
X172296711Y-83918298D02*
G75*
G03*
X172999483Y-83269718I252259J431700D01*
G01*
X170455548Y-83850000D02*
G75*
G03*
X170203290Y-83918298I2J-500010D01*
G01*
X169500500Y-83269711D02*
G75*
G03*
X169550001Y-83052842I-450500J216911D01*
G01*
%TO.C,LED10*%
X169520001Y-121152841D02*
X169520001Y-119747157D01*
X172014452Y-121949999D02*
X170425548Y-121949999D01*
X170425548Y-118950000D02*
X172014453Y-118950000D01*
X172919999Y-119747157D02*
X172919999Y-121152841D01*
X170173289Y-118881700D02*
G75*
G03*
X169470516Y-119530279I-252259J-431700D01*
G01*
X169470517Y-121369720D02*
G75*
G03*
X170173289Y-122018295I450514J-216876D01*
G01*
X172969484Y-119530279D02*
G75*
G03*
X172266711Y-118881701I-450514J216878D01*
G01*
X172014453Y-118950000D02*
G75*
G03*
X172266711Y-118881701I-3J500009D01*
G01*
X170173289Y-118881700D02*
G75*
G03*
X170425547Y-118949999I252261J431710D01*
G01*
X169520003Y-119747157D02*
G75*
G03*
X169470516Y-119530279I-499993J-3D01*
G01*
X172969484Y-119530279D02*
G75*
G03*
X172919999Y-119747156I450505J-216876D01*
G01*
X172266711Y-122018298D02*
G75*
G03*
X172014452Y-121949999I-252261J-431710D01*
G01*
X172920000Y-121152841D02*
G75*
G03*
X172969485Y-121369719I499989J-2D01*
G01*
X172266711Y-122018298D02*
G75*
G03*
X172969483Y-121369718I252259J431700D01*
G01*
X170425548Y-121950000D02*
G75*
G03*
X170173290Y-122018298I2J-500010D01*
G01*
X169470500Y-121369711D02*
G75*
G03*
X169520001Y-121152842I-450500J216911D01*
G01*
%TO.C,LED9*%
X188600001Y-102102841D02*
X188600001Y-100697157D01*
X191094452Y-102899999D02*
X189505548Y-102899999D01*
X189505548Y-99900000D02*
X191094453Y-99900000D01*
X191999999Y-100697157D02*
X191999999Y-102102841D01*
X189253289Y-99831700D02*
G75*
G03*
X188550516Y-100480279I-252259J-431700D01*
G01*
X188550517Y-102319720D02*
G75*
G03*
X189253289Y-102968295I450514J-216876D01*
G01*
X192049484Y-100480279D02*
G75*
G03*
X191346711Y-99831701I-450514J216878D01*
G01*
X191094453Y-99900000D02*
G75*
G03*
X191346711Y-99831701I-3J500009D01*
G01*
X189253289Y-99831700D02*
G75*
G03*
X189505547Y-99899999I252261J431710D01*
G01*
X188600003Y-100697157D02*
G75*
G03*
X188550516Y-100480279I-499993J-3D01*
G01*
X192049484Y-100480279D02*
G75*
G03*
X191999999Y-100697156I450505J-216876D01*
G01*
X191346711Y-102968298D02*
G75*
G03*
X191094452Y-102899999I-252261J-431710D01*
G01*
X192000000Y-102102841D02*
G75*
G03*
X192049485Y-102319719I499989J-2D01*
G01*
X191346711Y-102968298D02*
G75*
G03*
X192049483Y-102319718I252259J431700D01*
G01*
X189505548Y-102900000D02*
G75*
G03*
X189253290Y-102968298I2J-500010D01*
G01*
X188550500Y-102319711D02*
G75*
G03*
X188600001Y-102102842I-450500J216911D01*
G01*
%TO.C,LED8*%
X207650001Y-121152841D02*
X207650001Y-119747157D01*
X210144452Y-121949999D02*
X208555548Y-121949999D01*
X208555548Y-118950000D02*
X210144453Y-118950000D01*
X211049999Y-119747157D02*
X211049999Y-121152841D01*
X208303289Y-118881700D02*
G75*
G03*
X207600516Y-119530279I-252259J-431700D01*
G01*
X207600517Y-121369720D02*
G75*
G03*
X208303289Y-122018295I450514J-216876D01*
G01*
X211099484Y-119530279D02*
G75*
G03*
X210396711Y-118881701I-450514J216878D01*
G01*
X210144453Y-118950000D02*
G75*
G03*
X210396711Y-118881701I-3J500009D01*
G01*
X208303289Y-118881700D02*
G75*
G03*
X208555547Y-118949999I252261J431710D01*
G01*
X207650003Y-119747157D02*
G75*
G03*
X207600516Y-119530279I-499993J-3D01*
G01*
X211099484Y-119530279D02*
G75*
G03*
X211049999Y-119747156I450505J-216876D01*
G01*
X210396711Y-122018298D02*
G75*
G03*
X210144452Y-121949999I-252261J-431710D01*
G01*
X211050000Y-121152841D02*
G75*
G03*
X211099485Y-121369719I499989J-2D01*
G01*
X210396711Y-122018298D02*
G75*
G03*
X211099483Y-121369718I252259J431700D01*
G01*
X208555548Y-121950000D02*
G75*
G03*
X208303290Y-122018298I2J-500010D01*
G01*
X207600500Y-121369711D02*
G75*
G03*
X207650001Y-121152842I-450500J216911D01*
G01*
%TO.C,LED7*%
X207675001Y-83052841D02*
X207675001Y-81647157D01*
X210169452Y-83849999D02*
X208580548Y-83849999D01*
X208580548Y-80850000D02*
X210169453Y-80850000D01*
X211074999Y-81647157D02*
X211074999Y-83052841D01*
X208328289Y-80781700D02*
G75*
G03*
X207625516Y-81430279I-252259J-431700D01*
G01*
X207625517Y-83269720D02*
G75*
G03*
X208328289Y-83918295I450514J-216876D01*
G01*
X211124484Y-81430279D02*
G75*
G03*
X210421711Y-80781701I-450514J216878D01*
G01*
X210169453Y-80850000D02*
G75*
G03*
X210421711Y-80781701I-3J500009D01*
G01*
X208328289Y-80781700D02*
G75*
G03*
X208580547Y-80849999I252261J431710D01*
G01*
X207675003Y-81647157D02*
G75*
G03*
X207625516Y-81430279I-499993J-3D01*
G01*
X211124484Y-81430279D02*
G75*
G03*
X211074999Y-81647156I450505J-216876D01*
G01*
X210421711Y-83918298D02*
G75*
G03*
X210169452Y-83849999I-252261J-431710D01*
G01*
X211075000Y-83052841D02*
G75*
G03*
X211124485Y-83269719I499989J-2D01*
G01*
X210421711Y-83918298D02*
G75*
G03*
X211124483Y-83269718I252259J431700D01*
G01*
X208580548Y-83850000D02*
G75*
G03*
X208328290Y-83918298I2J-500010D01*
G01*
X207625500Y-83269711D02*
G75*
G03*
X207675001Y-83052842I-450500J216911D01*
G01*
%TO.C,LED6*%
X214794916Y-63475947D02*
G75*
G03*
X214913267Y-63287588I-353596J353537D01*
G01*
X215868818Y-63325910D02*
G75*
G03*
X215998897Y-63552578I483642J126892D01*
G01*
X217387411Y-65761732D02*
G75*
G03*
X217349091Y-64806182I-165204J471918D01*
G01*
X217387412Y-65761732D02*
G75*
G03*
X217199064Y-65880097I165200J-471910D01*
G01*
X217122422Y-64676103D02*
G75*
G03*
X217349091Y-64806182I353558J353561D01*
G01*
X216205095Y-66874067D02*
G75*
G03*
X216086731Y-67062413I353546J-353547D01*
G01*
X213612586Y-64588266D02*
G75*
G03*
X213800933Y-64469903I-165197J471911D01*
G01*
X213877576Y-65673898D02*
G75*
G03*
X213650908Y-65543820I-353558J-353562D01*
G01*
X215131181Y-67024091D02*
G75*
G03*
X215001103Y-66797423I-483640J-126890D01*
G01*
X215131183Y-67024091D02*
G75*
G03*
X216086730Y-67062413I483631J126884D01*
G01*
X215868816Y-63325911D02*
G75*
G03*
X214913268Y-63287588I-483631J-126884D01*
G01*
X213612587Y-64588269D02*
G75*
G03*
X213650908Y-65543819I165205J-471918D01*
G01*
X216205096Y-66874066D02*
X217199064Y-65880097D01*
X213877577Y-65673898D02*
X215001103Y-66797423D01*
X217122422Y-64676103D02*
X215998897Y-63552578D01*
X214794903Y-63475936D02*
X213800934Y-64469904D01*
%TO.C,LED5*%
X217199053Y-126744916D02*
G75*
G03*
X217387412Y-126863267I353537J353596D01*
G01*
X217349090Y-127818818D02*
G75*
G03*
X217122422Y-127948897I126892J-483642D01*
G01*
X214913268Y-129337411D02*
G75*
G03*
X215868818Y-129299091I471918J165204D01*
G01*
X214913268Y-129337412D02*
G75*
G03*
X214794903Y-129149064I-471910J-165200D01*
G01*
X215998897Y-129072422D02*
G75*
G03*
X215868818Y-129299091I353561J-353558D01*
G01*
X213800933Y-128155095D02*
G75*
G03*
X213612587Y-128036731I-353547J-353546D01*
G01*
X216086734Y-125562586D02*
G75*
G03*
X216205097Y-125750933I471911J165197D01*
G01*
X215001102Y-125827576D02*
G75*
G03*
X215131180Y-125600908I-353562J353558D01*
G01*
X213650909Y-127081181D02*
G75*
G03*
X213877577Y-126951103I-126890J483640D01*
G01*
X213650909Y-127081183D02*
G75*
G03*
X213612587Y-128036730I126884J-483631D01*
G01*
X217349089Y-127818816D02*
G75*
G03*
X217387412Y-126863268I-126884J483631D01*
G01*
X216086731Y-125562587D02*
G75*
G03*
X215131181Y-125600908I-471918J-165205D01*
G01*
X213800934Y-128155096D02*
X214794903Y-129149064D01*
X215001102Y-125827577D02*
X213877577Y-126951103D01*
X215998897Y-129072422D02*
X217122422Y-127948897D01*
X217199064Y-126744903D02*
X216205096Y-125750934D01*
%TO.C,LED4*%
X161024999Y-128902841D02*
X161024999Y-127497157D01*
X158530548Y-129699999D02*
X160119452Y-129699999D01*
X160119452Y-126700000D02*
X158530547Y-126700000D01*
X157625001Y-127497157D02*
X157625001Y-128902841D01*
X161074484Y-127280279D02*
G75*
G03*
X160371711Y-126631700I-450514J216879D01*
G01*
X160371711Y-129768296D02*
G75*
G03*
X161074484Y-129119719I252258J431700D01*
G01*
X158278288Y-126631702D02*
G75*
G03*
X157575517Y-127280279I-252258J-431699D01*
G01*
X158278289Y-126631701D02*
G75*
G03*
X158530547Y-126700000I252261J431710D01*
G01*
X160119453Y-126699999D02*
G75*
G03*
X160371711Y-126631700I-3J500009D01*
G01*
X161074486Y-127280280D02*
G75*
G03*
X161024999Y-127497157I450504J-216880D01*
G01*
X157625000Y-127497156D02*
G75*
G03*
X157575515Y-127280279I-499989J1D01*
G01*
X158530548Y-129699999D02*
G75*
G03*
X158278289Y-129768298I2J-500009D01*
G01*
X157575516Y-129119719D02*
G75*
G03*
X157625001Y-128902841I-450505J216876D01*
G01*
X157575517Y-129119718D02*
G75*
G03*
X158278289Y-129768298I450513J-216880D01*
G01*
X160371710Y-129768297D02*
G75*
G03*
X160119452Y-129699999I-252260J-431713D01*
G01*
X161024982Y-128902842D02*
G75*
G03*
X161074484Y-129119719I500018J42D01*
G01*
%TO.C,LED3*%
X103905097Y-129149064D02*
X104899066Y-128155096D01*
X101577578Y-127948897D02*
X102701103Y-129072422D01*
X104822423Y-126951102D02*
X103698897Y-125827577D01*
X102494904Y-125750934D02*
X101500936Y-126744903D01*
X105087413Y-128036731D02*
G75*
G03*
X105049092Y-127081181I-165205J471918D01*
G01*
X102831184Y-129299089D02*
G75*
G03*
X103786732Y-129337412I483631J126884D01*
G01*
X103568817Y-125600909D02*
G75*
G03*
X102613270Y-125562587I-483631J-126884D01*
G01*
X103568819Y-125600909D02*
G75*
G03*
X103698897Y-125827577I483640J126890D01*
G01*
X104822424Y-126951102D02*
G75*
G03*
X105049092Y-127081180I353558J353562D01*
G01*
X105087414Y-128036734D02*
G75*
G03*
X104899067Y-128155097I165197J-471911D01*
G01*
X102494905Y-125750933D02*
G75*
G03*
X102613269Y-125562587I-353546J353547D01*
G01*
X101577578Y-127948897D02*
G75*
G03*
X101350909Y-127818818I-353558J-353561D01*
G01*
X101312588Y-126863268D02*
G75*
G03*
X101500936Y-126744903I-165200J471910D01*
G01*
X101312589Y-126863268D02*
G75*
G03*
X101350909Y-127818818I165204J-471918D01*
G01*
X102831182Y-129299090D02*
G75*
G03*
X102701103Y-129072422I-483642J-126892D01*
G01*
X103905084Y-129149053D02*
G75*
G03*
X103786733Y-129337412I353596J-353537D01*
G01*
%TO.C,LED1*%
X157675018Y-63747158D02*
G75*
G03*
X157625516Y-63530281I-500018J-42D01*
G01*
X158328290Y-62881703D02*
G75*
G03*
X158580548Y-62950001I252260J431713D01*
G01*
X161124483Y-63530282D02*
G75*
G03*
X160421711Y-62881702I-450513J216880D01*
G01*
X161124484Y-63530281D02*
G75*
G03*
X161074999Y-63747159I450505J-216876D01*
G01*
X160169452Y-62950001D02*
G75*
G03*
X160421711Y-62881702I-2J500009D01*
G01*
X161075000Y-65152844D02*
G75*
G03*
X161124485Y-65369721I499989J-1D01*
G01*
X157625514Y-65369720D02*
G75*
G03*
X157675001Y-65152843I-450504J216880D01*
G01*
X158580547Y-65950001D02*
G75*
G03*
X158328289Y-66018300I3J-500009D01*
G01*
X160421711Y-66018299D02*
G75*
G03*
X160169453Y-65950000I-252261J-431710D01*
G01*
X160421712Y-66018298D02*
G75*
G03*
X161124483Y-65369721I252258J431699D01*
G01*
X158328289Y-62881704D02*
G75*
G03*
X157625516Y-63530281I-252258J-431700D01*
G01*
X157625516Y-65369721D02*
G75*
G03*
X158328289Y-66018300I450514J-216879D01*
G01*
X161074999Y-65152843D02*
X161074999Y-63747159D01*
X158580548Y-65950000D02*
X160169453Y-65950000D01*
X160169452Y-62950001D02*
X158580548Y-62950001D01*
X157675001Y-63747159D02*
X157675001Y-65152843D01*
%TD*%
M02*
