%TF.GenerationSoftware,KiCad,Pcbnew,(7.0.0)*%
%TF.CreationDate,2023-03-23T02:06:22-06:00*%
%TF.ProjectId,PicoLX,5069636f-4c58-42e6-9b69-6361645f7063,rev?*%
%TF.SameCoordinates,Original*%
%TF.FileFunction,Drillmap*%
%TF.FilePolarity,Positive*%
%FSLAX45Y45*%
G04 Gerber Fmt 4.5, Leading zero omitted, Abs format (unit mm)*
G04 Created by KiCad (PCBNEW (7.0.0)) date 2023-03-23 02:06:22*
%MOMM*%
%LPD*%
G01*
G04 APERTURE LIST*
%ADD10C,0.100000*%
%ADD11C,0.200000*%
%ADD12C,0.065000*%
%ADD13C,0.170180*%
%ADD14C,0.300000*%
%ADD15C,0.398780*%
G04 APERTURE END LIST*
D10*
X21967500Y-10850000D02*
X21967935Y-12924358D01*
X21967500Y-8400000D02*
X21967935Y-6336233D01*
X21967500Y-8400000D02*
G75*
G03*
X22067500Y-8500000I100000J0D01*
G01*
X22067500Y-10750000D02*
G75*
G03*
X21967500Y-10850000I0J-100000D01*
G01*
X22750000Y-10750000D02*
G75*
G03*
X22850000Y-10650000I0J100000D01*
G01*
X22850000Y-8600000D02*
G75*
G03*
X22750000Y-8500000I-100000J0D01*
G01*
X22850000Y-10650000D02*
X22850000Y-8600000D01*
X22750000Y-10750000D02*
X22067500Y-10750000D01*
X22067500Y-8500000D02*
X22750000Y-8500000D01*
X21729810Y-13162485D02*
G75*
G03*
X21967935Y-12924358I-20J238145D01*
G01*
X9902927Y-12924358D02*
G75*
G03*
X10141060Y-13162483I238133J8D01*
G01*
X10141060Y-6098105D02*
G75*
G03*
X9902935Y-6336233I0J-238125D01*
G01*
X9902935Y-12924358D02*
X9902935Y-6336233D01*
X21967932Y-6336233D02*
G75*
G03*
X21729810Y-6098108I-238122J3D01*
G01*
X21729810Y-13162483D02*
X10141060Y-13162483D01*
X10141060Y-6098108D02*
X21729810Y-6098108D01*
D11*
D12*
X18717180Y-6608554D02*
X18782180Y-6673554D01*
X18782180Y-6608554D02*
X18717180Y-6673554D01*
X19295180Y-6608554D02*
X19360180Y-6673554D01*
X19360180Y-6608554D02*
X19295180Y-6673554D01*
D13*
X10511265Y-7726883D02*
G75*
G03*
X10511265Y-7726883I-85090J0D01*
G01*
X10511265Y-11536883D02*
G75*
G03*
X10511265Y-11536883I-85090J0D01*
G01*
X11527265Y-7726883D02*
G75*
G03*
X11527265Y-7726883I-85090J0D01*
G01*
X11527265Y-11536883D02*
G75*
G03*
X11527265Y-11536883I-85090J0D01*
G01*
X12416265Y-9631883D02*
G75*
G03*
X12416265Y-9631883I-85090J0D01*
G01*
X13432265Y-9631883D02*
G75*
G03*
X13432265Y-9631883I-85090J0D01*
G01*
X14318725Y-7729423D02*
G75*
G03*
X14318725Y-7729423I-85090J0D01*
G01*
X14318725Y-11536883D02*
G75*
G03*
X14318725Y-11536883I-85090J0D01*
G01*
X15334725Y-7729423D02*
G75*
G03*
X15334725Y-7729423I-85090J0D01*
G01*
X15334725Y-11536883D02*
G75*
G03*
X15334725Y-11536883I-85090J0D01*
G01*
X16698705Y-11536883D02*
G75*
G03*
X16698705Y-11536883I-85090J0D01*
G01*
X16702205Y-7727363D02*
G75*
G03*
X16702205Y-7727363I-85090J0D01*
G01*
X17714705Y-11536883D02*
G75*
G03*
X17714705Y-11536883I-85090J0D01*
G01*
X17718205Y-7727363D02*
G75*
G03*
X17718205Y-7727363I-85090J0D01*
G01*
X18607205Y-9632363D02*
G75*
G03*
X18607205Y-9632363I-85090J0D01*
G01*
X19623205Y-9632363D02*
G75*
G03*
X19623205Y-9632363I-85090J0D01*
G01*
X20512205Y-11537363D02*
G75*
G03*
X20512205Y-11537363I-85090J0D01*
G01*
X20513205Y-7726363D02*
G75*
G03*
X20513205Y-7726363I-85090J0D01*
G01*
X21528205Y-11537363D02*
G75*
G03*
X21528205Y-11537363I-85090J0D01*
G01*
X21529205Y-7726363D02*
G75*
G03*
X21529205Y-7726363I-85090J0D01*
G01*
D14*
X10553175Y-7322883D02*
X10553175Y-7622883D01*
X10403175Y-7472883D02*
X10703175Y-7472883D01*
X10553175Y-11132883D02*
X10553175Y-11432883D01*
X10403175Y-11282883D02*
X10703175Y-11282883D01*
X11188175Y-7068883D02*
X11188175Y-7368883D01*
X11038175Y-7218883D02*
X11338175Y-7218883D01*
X11188175Y-10878883D02*
X11188175Y-11178883D01*
X11038175Y-11028883D02*
X11338175Y-11028883D01*
X12458175Y-9227883D02*
X12458175Y-9527883D01*
X12308175Y-9377883D02*
X12608175Y-9377883D01*
X13093175Y-8973883D02*
X13093175Y-9273883D01*
X12943175Y-9123883D02*
X13243175Y-9123883D01*
X14360635Y-7325423D02*
X14360635Y-7625423D01*
X14210635Y-7475423D02*
X14510635Y-7475423D01*
X14360635Y-11132883D02*
X14360635Y-11432883D01*
X14210635Y-11282883D02*
X14510635Y-11282883D01*
X14995635Y-7071423D02*
X14995635Y-7371423D01*
X14845635Y-7221423D02*
X15145635Y-7221423D01*
X14995635Y-10878883D02*
X14995635Y-11178883D01*
X14845635Y-11028883D02*
X15145635Y-11028883D01*
X16740615Y-11132883D02*
X16740615Y-11432883D01*
X16590615Y-11282883D02*
X16890615Y-11282883D01*
X16744115Y-7323363D02*
X16744115Y-7623363D01*
X16594115Y-7473363D02*
X16894115Y-7473363D01*
X17375615Y-10878883D02*
X17375615Y-11178883D01*
X17225615Y-11028883D02*
X17525615Y-11028883D01*
X17379115Y-7069363D02*
X17379115Y-7369363D01*
X17229115Y-7219363D02*
X17529115Y-7219363D01*
X18649115Y-9228363D02*
X18649115Y-9528363D01*
X18499115Y-9378363D02*
X18799115Y-9378363D01*
X19284115Y-8974363D02*
X19284115Y-9274363D01*
X19134115Y-9124363D02*
X19434115Y-9124363D01*
X20554115Y-11133363D02*
X20554115Y-11433363D01*
X20404115Y-11283363D02*
X20704115Y-11283363D01*
X20555115Y-7322363D02*
X20555115Y-7622363D01*
X20405115Y-7472363D02*
X20705115Y-7472363D01*
X21189115Y-10879363D02*
X21189115Y-11179363D01*
X21039115Y-11029363D02*
X21339115Y-11029363D01*
X21190115Y-7068363D02*
X21190115Y-7368363D01*
X21040115Y-7218363D02*
X21340115Y-7218363D01*
D15*
X11075167Y-7867875D02*
X11075167Y-7585892D01*
X10793184Y-7585892D01*
X10793184Y-7867875D01*
X11075167Y-7867875D01*
X11075167Y-11677875D02*
X11075167Y-11395892D01*
X10793184Y-11395892D01*
X10793184Y-11677875D01*
X11075167Y-11677875D01*
X12980167Y-9772875D02*
X12980167Y-9490892D01*
X12698184Y-9490892D01*
X12698184Y-9772875D01*
X12980167Y-9772875D01*
X14882627Y-7870415D02*
X14882627Y-7588432D01*
X14600644Y-7588432D01*
X14600644Y-7870415D01*
X14882627Y-7870415D01*
X14882627Y-11677875D02*
X14882627Y-11395892D01*
X14600644Y-11395892D01*
X14600644Y-11677875D01*
X14882627Y-11677875D01*
X17262607Y-11677875D02*
X17262607Y-11395892D01*
X16980624Y-11395892D01*
X16980624Y-11677875D01*
X17262607Y-11677875D01*
X17266107Y-7868355D02*
X17266107Y-7586372D01*
X16984124Y-7586372D01*
X16984124Y-7868355D01*
X17266107Y-7868355D01*
X19171107Y-9773355D02*
X19171107Y-9491372D01*
X18889124Y-9491372D01*
X18889124Y-9773355D01*
X19171107Y-9773355D01*
X21076107Y-11678355D02*
X21076107Y-11396372D01*
X20794124Y-11396372D01*
X20794124Y-11678355D01*
X21076107Y-11678355D01*
X21077107Y-7867355D02*
X21077107Y-7585372D01*
X20795124Y-7585372D01*
X20795124Y-7867355D01*
X21077107Y-7867355D01*
D11*
X10145554Y-13460959D02*
X10145554Y-13260959D01*
X10145554Y-13260959D02*
X10193173Y-13260959D01*
X10193173Y-13260959D02*
X10221745Y-13270483D01*
X10221745Y-13270483D02*
X10240792Y-13289531D01*
X10240792Y-13289531D02*
X10250316Y-13308579D01*
X10250316Y-13308579D02*
X10259840Y-13346674D01*
X10259840Y-13346674D02*
X10259840Y-13375245D01*
X10259840Y-13375245D02*
X10250316Y-13413340D01*
X10250316Y-13413340D02*
X10240792Y-13432388D01*
X10240792Y-13432388D02*
X10221745Y-13451436D01*
X10221745Y-13451436D02*
X10193173Y-13460959D01*
X10193173Y-13460959D02*
X10145554Y-13460959D01*
X10345554Y-13460959D02*
X10345554Y-13327626D01*
X10345554Y-13365721D02*
X10355078Y-13346674D01*
X10355078Y-13346674D02*
X10364602Y-13337150D01*
X10364602Y-13337150D02*
X10383649Y-13327626D01*
X10383649Y-13327626D02*
X10402697Y-13327626D01*
X10469364Y-13460959D02*
X10469364Y-13327626D01*
X10469364Y-13260959D02*
X10459840Y-13270483D01*
X10459840Y-13270483D02*
X10469364Y-13280007D01*
X10469364Y-13280007D02*
X10478888Y-13270483D01*
X10478888Y-13270483D02*
X10469364Y-13260959D01*
X10469364Y-13260959D02*
X10469364Y-13280007D01*
X10593173Y-13460959D02*
X10574126Y-13451436D01*
X10574126Y-13451436D02*
X10564602Y-13432388D01*
X10564602Y-13432388D02*
X10564602Y-13260959D01*
X10697935Y-13460959D02*
X10678888Y-13451436D01*
X10678888Y-13451436D02*
X10669364Y-13432388D01*
X10669364Y-13432388D02*
X10669364Y-13260959D01*
X10894126Y-13460959D02*
X10894126Y-13260959D01*
X10894126Y-13260959D02*
X10960792Y-13403817D01*
X10960792Y-13403817D02*
X11027459Y-13260959D01*
X11027459Y-13260959D02*
X11027459Y-13460959D01*
X11208411Y-13460959D02*
X11208411Y-13356198D01*
X11208411Y-13356198D02*
X11198887Y-13337150D01*
X11198887Y-13337150D02*
X11179840Y-13327626D01*
X11179840Y-13327626D02*
X11141745Y-13327626D01*
X11141745Y-13327626D02*
X11122697Y-13337150D01*
X11208411Y-13451436D02*
X11189364Y-13460959D01*
X11189364Y-13460959D02*
X11141745Y-13460959D01*
X11141745Y-13460959D02*
X11122697Y-13451436D01*
X11122697Y-13451436D02*
X11113173Y-13432388D01*
X11113173Y-13432388D02*
X11113173Y-13413340D01*
X11113173Y-13413340D02*
X11122697Y-13394293D01*
X11122697Y-13394293D02*
X11141745Y-13384769D01*
X11141745Y-13384769D02*
X11189364Y-13384769D01*
X11189364Y-13384769D02*
X11208411Y-13375245D01*
X11303649Y-13327626D02*
X11303649Y-13527626D01*
X11303649Y-13337150D02*
X11322697Y-13327626D01*
X11322697Y-13327626D02*
X11360792Y-13327626D01*
X11360792Y-13327626D02*
X11379840Y-13337150D01*
X11379840Y-13337150D02*
X11389364Y-13346674D01*
X11389364Y-13346674D02*
X11398887Y-13365721D01*
X11398887Y-13365721D02*
X11398887Y-13422864D01*
X11398887Y-13422864D02*
X11389364Y-13441912D01*
X11389364Y-13441912D02*
X11379840Y-13451436D01*
X11379840Y-13451436D02*
X11360792Y-13460959D01*
X11360792Y-13460959D02*
X11322697Y-13460959D01*
X11322697Y-13460959D02*
X11303649Y-13451436D01*
X11484602Y-13441912D02*
X11494126Y-13451436D01*
X11494126Y-13451436D02*
X11484602Y-13460959D01*
X11484602Y-13460959D02*
X11475078Y-13451436D01*
X11475078Y-13451436D02*
X11484602Y-13441912D01*
X11484602Y-13441912D02*
X11484602Y-13460959D01*
X11484602Y-13337150D02*
X11494126Y-13346674D01*
X11494126Y-13346674D02*
X11484602Y-13356198D01*
X11484602Y-13356198D02*
X11475078Y-13346674D01*
X11475078Y-13346674D02*
X11484602Y-13337150D01*
X11484602Y-13337150D02*
X11484602Y-13356198D01*
D12*
X9832935Y-13774983D02*
X9897935Y-13839983D01*
X9897935Y-13774983D02*
X9832935Y-13839983D01*
D11*
X10183649Y-13680959D02*
X10202697Y-13680959D01*
X10202697Y-13680959D02*
X10221745Y-13690483D01*
X10221745Y-13690483D02*
X10231269Y-13700007D01*
X10231269Y-13700007D02*
X10240792Y-13719055D01*
X10240792Y-13719055D02*
X10250316Y-13757150D01*
X10250316Y-13757150D02*
X10250316Y-13804769D01*
X10250316Y-13804769D02*
X10240792Y-13842864D01*
X10240792Y-13842864D02*
X10231269Y-13861912D01*
X10231269Y-13861912D02*
X10221745Y-13871436D01*
X10221745Y-13871436D02*
X10202697Y-13880959D01*
X10202697Y-13880959D02*
X10183649Y-13880959D01*
X10183649Y-13880959D02*
X10164602Y-13871436D01*
X10164602Y-13871436D02*
X10155078Y-13861912D01*
X10155078Y-13861912D02*
X10145554Y-13842864D01*
X10145554Y-13842864D02*
X10136030Y-13804769D01*
X10136030Y-13804769D02*
X10136030Y-13757150D01*
X10136030Y-13757150D02*
X10145554Y-13719055D01*
X10145554Y-13719055D02*
X10155078Y-13700007D01*
X10155078Y-13700007D02*
X10164602Y-13690483D01*
X10164602Y-13690483D02*
X10183649Y-13680959D01*
X10336030Y-13861912D02*
X10345554Y-13871436D01*
X10345554Y-13871436D02*
X10336030Y-13880959D01*
X10336030Y-13880959D02*
X10326507Y-13871436D01*
X10326507Y-13871436D02*
X10336030Y-13861912D01*
X10336030Y-13861912D02*
X10336030Y-13880959D01*
X10516983Y-13680959D02*
X10478888Y-13680959D01*
X10478888Y-13680959D02*
X10459840Y-13690483D01*
X10459840Y-13690483D02*
X10450316Y-13700007D01*
X10450316Y-13700007D02*
X10431269Y-13728579D01*
X10431269Y-13728579D02*
X10421745Y-13766674D01*
X10421745Y-13766674D02*
X10421745Y-13842864D01*
X10421745Y-13842864D02*
X10431269Y-13861912D01*
X10431269Y-13861912D02*
X10440792Y-13871436D01*
X10440792Y-13871436D02*
X10459840Y-13880959D01*
X10459840Y-13880959D02*
X10497935Y-13880959D01*
X10497935Y-13880959D02*
X10516983Y-13871436D01*
X10516983Y-13871436D02*
X10526507Y-13861912D01*
X10526507Y-13861912D02*
X10536030Y-13842864D01*
X10536030Y-13842864D02*
X10536030Y-13795245D01*
X10536030Y-13795245D02*
X10526507Y-13776198D01*
X10526507Y-13776198D02*
X10516983Y-13766674D01*
X10516983Y-13766674D02*
X10497935Y-13757150D01*
X10497935Y-13757150D02*
X10459840Y-13757150D01*
X10459840Y-13757150D02*
X10440792Y-13766674D01*
X10440792Y-13766674D02*
X10431269Y-13776198D01*
X10431269Y-13776198D02*
X10421745Y-13795245D01*
X10716983Y-13680959D02*
X10621745Y-13680959D01*
X10621745Y-13680959D02*
X10612221Y-13776198D01*
X10612221Y-13776198D02*
X10621745Y-13766674D01*
X10621745Y-13766674D02*
X10640792Y-13757150D01*
X10640792Y-13757150D02*
X10688411Y-13757150D01*
X10688411Y-13757150D02*
X10707459Y-13766674D01*
X10707459Y-13766674D02*
X10716983Y-13776198D01*
X10716983Y-13776198D02*
X10726507Y-13795245D01*
X10726507Y-13795245D02*
X10726507Y-13842864D01*
X10726507Y-13842864D02*
X10716983Y-13861912D01*
X10716983Y-13861912D02*
X10707459Y-13871436D01*
X10707459Y-13871436D02*
X10688411Y-13880959D01*
X10688411Y-13880959D02*
X10640792Y-13880959D01*
X10640792Y-13880959D02*
X10621745Y-13871436D01*
X10621745Y-13871436D02*
X10612221Y-13861912D01*
X10850316Y-13680959D02*
X10869364Y-13680959D01*
X10869364Y-13680959D02*
X10888411Y-13690483D01*
X10888411Y-13690483D02*
X10897935Y-13700007D01*
X10897935Y-13700007D02*
X10907459Y-13719055D01*
X10907459Y-13719055D02*
X10916983Y-13757150D01*
X10916983Y-13757150D02*
X10916983Y-13804769D01*
X10916983Y-13804769D02*
X10907459Y-13842864D01*
X10907459Y-13842864D02*
X10897935Y-13861912D01*
X10897935Y-13861912D02*
X10888411Y-13871436D01*
X10888411Y-13871436D02*
X10869364Y-13880959D01*
X10869364Y-13880959D02*
X10850316Y-13880959D01*
X10850316Y-13880959D02*
X10831269Y-13871436D01*
X10831269Y-13871436D02*
X10821745Y-13861912D01*
X10821745Y-13861912D02*
X10812221Y-13842864D01*
X10812221Y-13842864D02*
X10802697Y-13804769D01*
X10802697Y-13804769D02*
X10802697Y-13757150D01*
X10802697Y-13757150D02*
X10812221Y-13719055D01*
X10812221Y-13719055D02*
X10821745Y-13700007D01*
X10821745Y-13700007D02*
X10831269Y-13690483D01*
X10831269Y-13690483D02*
X10850316Y-13680959D01*
X11002697Y-13880959D02*
X11002697Y-13747626D01*
X11002697Y-13766674D02*
X11012221Y-13757150D01*
X11012221Y-13757150D02*
X11031269Y-13747626D01*
X11031269Y-13747626D02*
X11059840Y-13747626D01*
X11059840Y-13747626D02*
X11078888Y-13757150D01*
X11078888Y-13757150D02*
X11088411Y-13776198D01*
X11088411Y-13776198D02*
X11088411Y-13880959D01*
X11088411Y-13776198D02*
X11097935Y-13757150D01*
X11097935Y-13757150D02*
X11116983Y-13747626D01*
X11116983Y-13747626D02*
X11145554Y-13747626D01*
X11145554Y-13747626D02*
X11164602Y-13757150D01*
X11164602Y-13757150D02*
X11174126Y-13776198D01*
X11174126Y-13776198D02*
X11174126Y-13880959D01*
X11269364Y-13880959D02*
X11269364Y-13747626D01*
X11269364Y-13766674D02*
X11278888Y-13757150D01*
X11278888Y-13757150D02*
X11297935Y-13747626D01*
X11297935Y-13747626D02*
X11326507Y-13747626D01*
X11326507Y-13747626D02*
X11345554Y-13757150D01*
X11345554Y-13757150D02*
X11355078Y-13776198D01*
X11355078Y-13776198D02*
X11355078Y-13880959D01*
X11355078Y-13776198D02*
X11364602Y-13757150D01*
X11364602Y-13757150D02*
X11383649Y-13747626D01*
X11383649Y-13747626D02*
X11412221Y-13747626D01*
X11412221Y-13747626D02*
X11431269Y-13757150D01*
X11431269Y-13757150D02*
X11440792Y-13776198D01*
X11440792Y-13776198D02*
X11440792Y-13880959D01*
X11798888Y-13671436D02*
X11627459Y-13928579D01*
X12023649Y-13680959D02*
X12042697Y-13680959D01*
X12042697Y-13680959D02*
X12061745Y-13690483D01*
X12061745Y-13690483D02*
X12071269Y-13700007D01*
X12071269Y-13700007D02*
X12080792Y-13719055D01*
X12080792Y-13719055D02*
X12090316Y-13757150D01*
X12090316Y-13757150D02*
X12090316Y-13804769D01*
X12090316Y-13804769D02*
X12080792Y-13842864D01*
X12080792Y-13842864D02*
X12071269Y-13861912D01*
X12071269Y-13861912D02*
X12061745Y-13871436D01*
X12061745Y-13871436D02*
X12042697Y-13880959D01*
X12042697Y-13880959D02*
X12023649Y-13880959D01*
X12023649Y-13880959D02*
X12004602Y-13871436D01*
X12004602Y-13871436D02*
X11995078Y-13861912D01*
X11995078Y-13861912D02*
X11985554Y-13842864D01*
X11985554Y-13842864D02*
X11976030Y-13804769D01*
X11976030Y-13804769D02*
X11976030Y-13757150D01*
X11976030Y-13757150D02*
X11985554Y-13719055D01*
X11985554Y-13719055D02*
X11995078Y-13700007D01*
X11995078Y-13700007D02*
X12004602Y-13690483D01*
X12004602Y-13690483D02*
X12023649Y-13680959D01*
X12176030Y-13861912D02*
X12185554Y-13871436D01*
X12185554Y-13871436D02*
X12176030Y-13880959D01*
X12176030Y-13880959D02*
X12166507Y-13871436D01*
X12166507Y-13871436D02*
X12176030Y-13861912D01*
X12176030Y-13861912D02*
X12176030Y-13880959D01*
X12309364Y-13680959D02*
X12328411Y-13680959D01*
X12328411Y-13680959D02*
X12347459Y-13690483D01*
X12347459Y-13690483D02*
X12356983Y-13700007D01*
X12356983Y-13700007D02*
X12366507Y-13719055D01*
X12366507Y-13719055D02*
X12376030Y-13757150D01*
X12376030Y-13757150D02*
X12376030Y-13804769D01*
X12376030Y-13804769D02*
X12366507Y-13842864D01*
X12366507Y-13842864D02*
X12356983Y-13861912D01*
X12356983Y-13861912D02*
X12347459Y-13871436D01*
X12347459Y-13871436D02*
X12328411Y-13880959D01*
X12328411Y-13880959D02*
X12309364Y-13880959D01*
X12309364Y-13880959D02*
X12290316Y-13871436D01*
X12290316Y-13871436D02*
X12280792Y-13861912D01*
X12280792Y-13861912D02*
X12271269Y-13842864D01*
X12271269Y-13842864D02*
X12261745Y-13804769D01*
X12261745Y-13804769D02*
X12261745Y-13757150D01*
X12261745Y-13757150D02*
X12271269Y-13719055D01*
X12271269Y-13719055D02*
X12280792Y-13700007D01*
X12280792Y-13700007D02*
X12290316Y-13690483D01*
X12290316Y-13690483D02*
X12309364Y-13680959D01*
X12452221Y-13700007D02*
X12461745Y-13690483D01*
X12461745Y-13690483D02*
X12480792Y-13680959D01*
X12480792Y-13680959D02*
X12528411Y-13680959D01*
X12528411Y-13680959D02*
X12547459Y-13690483D01*
X12547459Y-13690483D02*
X12556983Y-13700007D01*
X12556983Y-13700007D02*
X12566507Y-13719055D01*
X12566507Y-13719055D02*
X12566507Y-13738102D01*
X12566507Y-13738102D02*
X12556983Y-13766674D01*
X12556983Y-13766674D02*
X12442697Y-13880959D01*
X12442697Y-13880959D02*
X12566507Y-13880959D01*
X12747459Y-13680959D02*
X12652221Y-13680959D01*
X12652221Y-13680959D02*
X12642697Y-13776198D01*
X12642697Y-13776198D02*
X12652221Y-13766674D01*
X12652221Y-13766674D02*
X12671269Y-13757150D01*
X12671269Y-13757150D02*
X12718888Y-13757150D01*
X12718888Y-13757150D02*
X12737935Y-13766674D01*
X12737935Y-13766674D02*
X12747459Y-13776198D01*
X12747459Y-13776198D02*
X12756983Y-13795245D01*
X12756983Y-13795245D02*
X12756983Y-13842864D01*
X12756983Y-13842864D02*
X12747459Y-13861912D01*
X12747459Y-13861912D02*
X12737935Y-13871436D01*
X12737935Y-13871436D02*
X12718888Y-13880959D01*
X12718888Y-13880959D02*
X12671269Y-13880959D01*
X12671269Y-13880959D02*
X12652221Y-13871436D01*
X12652221Y-13871436D02*
X12642697Y-13861912D01*
X12928411Y-13680959D02*
X12890316Y-13680959D01*
X12890316Y-13680959D02*
X12871269Y-13690483D01*
X12871269Y-13690483D02*
X12861745Y-13700007D01*
X12861745Y-13700007D02*
X12842697Y-13728579D01*
X12842697Y-13728579D02*
X12833173Y-13766674D01*
X12833173Y-13766674D02*
X12833173Y-13842864D01*
X12833173Y-13842864D02*
X12842697Y-13861912D01*
X12842697Y-13861912D02*
X12852221Y-13871436D01*
X12852221Y-13871436D02*
X12871269Y-13880959D01*
X12871269Y-13880959D02*
X12909364Y-13880959D01*
X12909364Y-13880959D02*
X12928411Y-13871436D01*
X12928411Y-13871436D02*
X12937935Y-13861912D01*
X12937935Y-13861912D02*
X12947459Y-13842864D01*
X12947459Y-13842864D02*
X12947459Y-13795245D01*
X12947459Y-13795245D02*
X12937935Y-13776198D01*
X12937935Y-13776198D02*
X12928411Y-13766674D01*
X12928411Y-13766674D02*
X12909364Y-13757150D01*
X12909364Y-13757150D02*
X12871269Y-13757150D01*
X12871269Y-13757150D02*
X12852221Y-13766674D01*
X12852221Y-13766674D02*
X12842697Y-13776198D01*
X12842697Y-13776198D02*
X12833173Y-13795245D01*
X13023650Y-13680959D02*
X13023650Y-13719055D01*
X13099840Y-13680959D02*
X13099840Y-13719055D01*
X13362697Y-13957150D02*
X13353173Y-13947626D01*
X13353173Y-13947626D02*
X13334126Y-13919055D01*
X13334126Y-13919055D02*
X13324602Y-13900007D01*
X13324602Y-13900007D02*
X13315078Y-13871436D01*
X13315078Y-13871436D02*
X13305554Y-13823817D01*
X13305554Y-13823817D02*
X13305554Y-13785721D01*
X13305554Y-13785721D02*
X13315078Y-13738102D01*
X13315078Y-13738102D02*
X13324602Y-13709531D01*
X13324602Y-13709531D02*
X13334126Y-13690483D01*
X13334126Y-13690483D02*
X13353173Y-13661912D01*
X13353173Y-13661912D02*
X13362697Y-13652388D01*
X13429364Y-13700007D02*
X13438888Y-13690483D01*
X13438888Y-13690483D02*
X13457935Y-13680959D01*
X13457935Y-13680959D02*
X13505554Y-13680959D01*
X13505554Y-13680959D02*
X13524602Y-13690483D01*
X13524602Y-13690483D02*
X13534126Y-13700007D01*
X13534126Y-13700007D02*
X13543650Y-13719055D01*
X13543650Y-13719055D02*
X13543650Y-13738102D01*
X13543650Y-13738102D02*
X13534126Y-13766674D01*
X13534126Y-13766674D02*
X13419840Y-13880959D01*
X13419840Y-13880959D02*
X13543650Y-13880959D01*
X13749364Y-13880959D02*
X13749364Y-13680959D01*
X13835078Y-13880959D02*
X13835078Y-13776198D01*
X13835078Y-13776198D02*
X13825554Y-13757150D01*
X13825554Y-13757150D02*
X13806507Y-13747626D01*
X13806507Y-13747626D02*
X13777935Y-13747626D01*
X13777935Y-13747626D02*
X13758888Y-13757150D01*
X13758888Y-13757150D02*
X13749364Y-13766674D01*
X13958888Y-13880959D02*
X13939840Y-13871436D01*
X13939840Y-13871436D02*
X13930316Y-13861912D01*
X13930316Y-13861912D02*
X13920792Y-13842864D01*
X13920792Y-13842864D02*
X13920792Y-13785721D01*
X13920792Y-13785721D02*
X13930316Y-13766674D01*
X13930316Y-13766674D02*
X13939840Y-13757150D01*
X13939840Y-13757150D02*
X13958888Y-13747626D01*
X13958888Y-13747626D02*
X13987459Y-13747626D01*
X13987459Y-13747626D02*
X14006507Y-13757150D01*
X14006507Y-13757150D02*
X14016031Y-13766674D01*
X14016031Y-13766674D02*
X14025554Y-13785721D01*
X14025554Y-13785721D02*
X14025554Y-13842864D01*
X14025554Y-13842864D02*
X14016031Y-13861912D01*
X14016031Y-13861912D02*
X14006507Y-13871436D01*
X14006507Y-13871436D02*
X13987459Y-13880959D01*
X13987459Y-13880959D02*
X13958888Y-13880959D01*
X14139840Y-13880959D02*
X14120792Y-13871436D01*
X14120792Y-13871436D02*
X14111269Y-13852388D01*
X14111269Y-13852388D02*
X14111269Y-13680959D01*
X14292221Y-13871436D02*
X14273173Y-13880959D01*
X14273173Y-13880959D02*
X14235078Y-13880959D01*
X14235078Y-13880959D02*
X14216031Y-13871436D01*
X14216031Y-13871436D02*
X14206507Y-13852388D01*
X14206507Y-13852388D02*
X14206507Y-13776198D01*
X14206507Y-13776198D02*
X14216031Y-13757150D01*
X14216031Y-13757150D02*
X14235078Y-13747626D01*
X14235078Y-13747626D02*
X14273173Y-13747626D01*
X14273173Y-13747626D02*
X14292221Y-13757150D01*
X14292221Y-13757150D02*
X14301745Y-13776198D01*
X14301745Y-13776198D02*
X14301745Y-13795245D01*
X14301745Y-13795245D02*
X14206507Y-13814293D01*
X14377935Y-13871436D02*
X14396983Y-13880959D01*
X14396983Y-13880959D02*
X14435078Y-13880959D01*
X14435078Y-13880959D02*
X14454126Y-13871436D01*
X14454126Y-13871436D02*
X14463650Y-13852388D01*
X14463650Y-13852388D02*
X14463650Y-13842864D01*
X14463650Y-13842864D02*
X14454126Y-13823817D01*
X14454126Y-13823817D02*
X14435078Y-13814293D01*
X14435078Y-13814293D02*
X14406507Y-13814293D01*
X14406507Y-13814293D02*
X14387459Y-13804769D01*
X14387459Y-13804769D02*
X14377935Y-13785721D01*
X14377935Y-13785721D02*
X14377935Y-13776198D01*
X14377935Y-13776198D02*
X14387459Y-13757150D01*
X14387459Y-13757150D02*
X14406507Y-13747626D01*
X14406507Y-13747626D02*
X14435078Y-13747626D01*
X14435078Y-13747626D02*
X14454126Y-13757150D01*
X14530316Y-13957150D02*
X14539840Y-13947626D01*
X14539840Y-13947626D02*
X14558888Y-13919055D01*
X14558888Y-13919055D02*
X14568412Y-13900007D01*
X14568412Y-13900007D02*
X14577935Y-13871436D01*
X14577935Y-13871436D02*
X14587459Y-13823817D01*
X14587459Y-13823817D02*
X14587459Y-13785721D01*
X14587459Y-13785721D02*
X14577935Y-13738102D01*
X14577935Y-13738102D02*
X14568412Y-13709531D01*
X14568412Y-13709531D02*
X14558888Y-13690483D01*
X14558888Y-13690483D02*
X14539840Y-13661912D01*
X14539840Y-13661912D02*
X14530316Y-13652388D01*
X14859840Y-13957150D02*
X14850316Y-13947626D01*
X14850316Y-13947626D02*
X14831269Y-13919055D01*
X14831269Y-13919055D02*
X14821745Y-13900007D01*
X14821745Y-13900007D02*
X14812221Y-13871436D01*
X14812221Y-13871436D02*
X14802697Y-13823817D01*
X14802697Y-13823817D02*
X14802697Y-13785721D01*
X14802697Y-13785721D02*
X14812221Y-13738102D01*
X14812221Y-13738102D02*
X14821745Y-13709531D01*
X14821745Y-13709531D02*
X14831269Y-13690483D01*
X14831269Y-13690483D02*
X14850316Y-13661912D01*
X14850316Y-13661912D02*
X14859840Y-13652388D01*
X14936031Y-13747626D02*
X14936031Y-13880959D01*
X14936031Y-13766674D02*
X14945554Y-13757150D01*
X14945554Y-13757150D02*
X14964602Y-13747626D01*
X14964602Y-13747626D02*
X14993173Y-13747626D01*
X14993173Y-13747626D02*
X15012221Y-13757150D01*
X15012221Y-13757150D02*
X15021745Y-13776198D01*
X15021745Y-13776198D02*
X15021745Y-13880959D01*
X15145554Y-13880959D02*
X15126507Y-13871436D01*
X15126507Y-13871436D02*
X15116983Y-13861912D01*
X15116983Y-13861912D02*
X15107459Y-13842864D01*
X15107459Y-13842864D02*
X15107459Y-13785721D01*
X15107459Y-13785721D02*
X15116983Y-13766674D01*
X15116983Y-13766674D02*
X15126507Y-13757150D01*
X15126507Y-13757150D02*
X15145554Y-13747626D01*
X15145554Y-13747626D02*
X15174126Y-13747626D01*
X15174126Y-13747626D02*
X15193173Y-13757150D01*
X15193173Y-13757150D02*
X15202697Y-13766674D01*
X15202697Y-13766674D02*
X15212221Y-13785721D01*
X15212221Y-13785721D02*
X15212221Y-13842864D01*
X15212221Y-13842864D02*
X15202697Y-13861912D01*
X15202697Y-13861912D02*
X15193173Y-13871436D01*
X15193173Y-13871436D02*
X15174126Y-13880959D01*
X15174126Y-13880959D02*
X15145554Y-13880959D01*
X15269364Y-13747626D02*
X15345554Y-13747626D01*
X15297935Y-13680959D02*
X15297935Y-13852388D01*
X15297935Y-13852388D02*
X15307459Y-13871436D01*
X15307459Y-13871436D02*
X15326507Y-13880959D01*
X15326507Y-13880959D02*
X15345554Y-13880959D01*
X15532221Y-13747626D02*
X15532221Y-13947626D01*
X15532221Y-13757150D02*
X15551269Y-13747626D01*
X15551269Y-13747626D02*
X15589364Y-13747626D01*
X15589364Y-13747626D02*
X15608412Y-13757150D01*
X15608412Y-13757150D02*
X15617935Y-13766674D01*
X15617935Y-13766674D02*
X15627459Y-13785721D01*
X15627459Y-13785721D02*
X15627459Y-13842864D01*
X15627459Y-13842864D02*
X15617935Y-13861912D01*
X15617935Y-13861912D02*
X15608412Y-13871436D01*
X15608412Y-13871436D02*
X15589364Y-13880959D01*
X15589364Y-13880959D02*
X15551269Y-13880959D01*
X15551269Y-13880959D02*
X15532221Y-13871436D01*
X15741745Y-13880959D02*
X15722697Y-13871436D01*
X15722697Y-13871436D02*
X15713173Y-13852388D01*
X15713173Y-13852388D02*
X15713173Y-13680959D01*
X15903650Y-13880959D02*
X15903650Y-13776198D01*
X15903650Y-13776198D02*
X15894126Y-13757150D01*
X15894126Y-13757150D02*
X15875078Y-13747626D01*
X15875078Y-13747626D02*
X15836983Y-13747626D01*
X15836983Y-13747626D02*
X15817935Y-13757150D01*
X15903650Y-13871436D02*
X15884602Y-13880959D01*
X15884602Y-13880959D02*
X15836983Y-13880959D01*
X15836983Y-13880959D02*
X15817935Y-13871436D01*
X15817935Y-13871436D02*
X15808412Y-13852388D01*
X15808412Y-13852388D02*
X15808412Y-13833340D01*
X15808412Y-13833340D02*
X15817935Y-13814293D01*
X15817935Y-13814293D02*
X15836983Y-13804769D01*
X15836983Y-13804769D02*
X15884602Y-13804769D01*
X15884602Y-13804769D02*
X15903650Y-13795245D01*
X15970316Y-13747626D02*
X16046507Y-13747626D01*
X15998888Y-13680959D02*
X15998888Y-13852388D01*
X15998888Y-13852388D02*
X16008412Y-13871436D01*
X16008412Y-13871436D02*
X16027459Y-13880959D01*
X16027459Y-13880959D02*
X16046507Y-13880959D01*
X16189364Y-13871436D02*
X16170316Y-13880959D01*
X16170316Y-13880959D02*
X16132221Y-13880959D01*
X16132221Y-13880959D02*
X16113173Y-13871436D01*
X16113173Y-13871436D02*
X16103650Y-13852388D01*
X16103650Y-13852388D02*
X16103650Y-13776198D01*
X16103650Y-13776198D02*
X16113173Y-13757150D01*
X16113173Y-13757150D02*
X16132221Y-13747626D01*
X16132221Y-13747626D02*
X16170316Y-13747626D01*
X16170316Y-13747626D02*
X16189364Y-13757150D01*
X16189364Y-13757150D02*
X16198888Y-13776198D01*
X16198888Y-13776198D02*
X16198888Y-13795245D01*
X16198888Y-13795245D02*
X16103650Y-13814293D01*
X16370316Y-13880959D02*
X16370316Y-13680959D01*
X16370316Y-13871436D02*
X16351269Y-13880959D01*
X16351269Y-13880959D02*
X16313173Y-13880959D01*
X16313173Y-13880959D02*
X16294126Y-13871436D01*
X16294126Y-13871436D02*
X16284602Y-13861912D01*
X16284602Y-13861912D02*
X16275078Y-13842864D01*
X16275078Y-13842864D02*
X16275078Y-13785721D01*
X16275078Y-13785721D02*
X16284602Y-13766674D01*
X16284602Y-13766674D02*
X16294126Y-13757150D01*
X16294126Y-13757150D02*
X16313173Y-13747626D01*
X16313173Y-13747626D02*
X16351269Y-13747626D01*
X16351269Y-13747626D02*
X16370316Y-13757150D01*
X16446507Y-13957150D02*
X16456031Y-13947626D01*
X16456031Y-13947626D02*
X16475078Y-13919055D01*
X16475078Y-13919055D02*
X16484602Y-13900007D01*
X16484602Y-13900007D02*
X16494126Y-13871436D01*
X16494126Y-13871436D02*
X16503650Y-13823817D01*
X16503650Y-13823817D02*
X16503650Y-13785721D01*
X16503650Y-13785721D02*
X16494126Y-13738102D01*
X16494126Y-13738102D02*
X16484602Y-13709531D01*
X16484602Y-13709531D02*
X16475078Y-13690483D01*
X16475078Y-13690483D02*
X16456031Y-13661912D01*
X16456031Y-13661912D02*
X16446507Y-13652388D01*
D13*
X9897935Y-14071483D02*
G75*
G03*
X9897935Y-14071483I-85090J0D01*
G01*
D11*
X10250316Y-14144959D02*
X10136030Y-14144959D01*
X10193173Y-14144959D02*
X10193173Y-13944959D01*
X10193173Y-13944959D02*
X10174126Y-13973531D01*
X10174126Y-13973531D02*
X10155078Y-13992579D01*
X10155078Y-13992579D02*
X10136030Y-14002102D01*
X10336030Y-14125912D02*
X10345554Y-14135436D01*
X10345554Y-14135436D02*
X10336030Y-14144959D01*
X10336030Y-14144959D02*
X10326507Y-14135436D01*
X10326507Y-14135436D02*
X10336030Y-14125912D01*
X10336030Y-14125912D02*
X10336030Y-14144959D01*
X10412221Y-13944959D02*
X10545554Y-13944959D01*
X10545554Y-13944959D02*
X10459840Y-14144959D01*
X10659840Y-13944959D02*
X10678888Y-13944959D01*
X10678888Y-13944959D02*
X10697935Y-13954483D01*
X10697935Y-13954483D02*
X10707459Y-13964007D01*
X10707459Y-13964007D02*
X10716983Y-13983055D01*
X10716983Y-13983055D02*
X10726507Y-14021150D01*
X10726507Y-14021150D02*
X10726507Y-14068769D01*
X10726507Y-14068769D02*
X10716983Y-14106864D01*
X10716983Y-14106864D02*
X10707459Y-14125912D01*
X10707459Y-14125912D02*
X10697935Y-14135436D01*
X10697935Y-14135436D02*
X10678888Y-14144959D01*
X10678888Y-14144959D02*
X10659840Y-14144959D01*
X10659840Y-14144959D02*
X10640792Y-14135436D01*
X10640792Y-14135436D02*
X10631269Y-14125912D01*
X10631269Y-14125912D02*
X10621745Y-14106864D01*
X10621745Y-14106864D02*
X10612221Y-14068769D01*
X10612221Y-14068769D02*
X10612221Y-14021150D01*
X10612221Y-14021150D02*
X10621745Y-13983055D01*
X10621745Y-13983055D02*
X10631269Y-13964007D01*
X10631269Y-13964007D02*
X10640792Y-13954483D01*
X10640792Y-13954483D02*
X10659840Y-13944959D01*
X10802697Y-13964007D02*
X10812221Y-13954483D01*
X10812221Y-13954483D02*
X10831269Y-13944959D01*
X10831269Y-13944959D02*
X10878888Y-13944959D01*
X10878888Y-13944959D02*
X10897935Y-13954483D01*
X10897935Y-13954483D02*
X10907459Y-13964007D01*
X10907459Y-13964007D02*
X10916983Y-13983055D01*
X10916983Y-13983055D02*
X10916983Y-14002102D01*
X10916983Y-14002102D02*
X10907459Y-14030674D01*
X10907459Y-14030674D02*
X10793173Y-14144959D01*
X10793173Y-14144959D02*
X10916983Y-14144959D01*
X11002697Y-14144959D02*
X11002697Y-14011626D01*
X11002697Y-14030674D02*
X11012221Y-14021150D01*
X11012221Y-14021150D02*
X11031269Y-14011626D01*
X11031269Y-14011626D02*
X11059840Y-14011626D01*
X11059840Y-14011626D02*
X11078888Y-14021150D01*
X11078888Y-14021150D02*
X11088411Y-14040198D01*
X11088411Y-14040198D02*
X11088411Y-14144959D01*
X11088411Y-14040198D02*
X11097935Y-14021150D01*
X11097935Y-14021150D02*
X11116983Y-14011626D01*
X11116983Y-14011626D02*
X11145554Y-14011626D01*
X11145554Y-14011626D02*
X11164602Y-14021150D01*
X11164602Y-14021150D02*
X11174126Y-14040198D01*
X11174126Y-14040198D02*
X11174126Y-14144959D01*
X11269364Y-14144959D02*
X11269364Y-14011626D01*
X11269364Y-14030674D02*
X11278888Y-14021150D01*
X11278888Y-14021150D02*
X11297935Y-14011626D01*
X11297935Y-14011626D02*
X11326507Y-14011626D01*
X11326507Y-14011626D02*
X11345554Y-14021150D01*
X11345554Y-14021150D02*
X11355078Y-14040198D01*
X11355078Y-14040198D02*
X11355078Y-14144959D01*
X11355078Y-14040198D02*
X11364602Y-14021150D01*
X11364602Y-14021150D02*
X11383649Y-14011626D01*
X11383649Y-14011626D02*
X11412221Y-14011626D01*
X11412221Y-14011626D02*
X11431269Y-14021150D01*
X11431269Y-14021150D02*
X11440792Y-14040198D01*
X11440792Y-14040198D02*
X11440792Y-14144959D01*
X11798888Y-13935436D02*
X11627459Y-14192579D01*
X12023649Y-13944959D02*
X12042697Y-13944959D01*
X12042697Y-13944959D02*
X12061745Y-13954483D01*
X12061745Y-13954483D02*
X12071269Y-13964007D01*
X12071269Y-13964007D02*
X12080792Y-13983055D01*
X12080792Y-13983055D02*
X12090316Y-14021150D01*
X12090316Y-14021150D02*
X12090316Y-14068769D01*
X12090316Y-14068769D02*
X12080792Y-14106864D01*
X12080792Y-14106864D02*
X12071269Y-14125912D01*
X12071269Y-14125912D02*
X12061745Y-14135436D01*
X12061745Y-14135436D02*
X12042697Y-14144959D01*
X12042697Y-14144959D02*
X12023649Y-14144959D01*
X12023649Y-14144959D02*
X12004602Y-14135436D01*
X12004602Y-14135436D02*
X11995078Y-14125912D01*
X11995078Y-14125912D02*
X11985554Y-14106864D01*
X11985554Y-14106864D02*
X11976030Y-14068769D01*
X11976030Y-14068769D02*
X11976030Y-14021150D01*
X11976030Y-14021150D02*
X11985554Y-13983055D01*
X11985554Y-13983055D02*
X11995078Y-13964007D01*
X11995078Y-13964007D02*
X12004602Y-13954483D01*
X12004602Y-13954483D02*
X12023649Y-13944959D01*
X12176030Y-14125912D02*
X12185554Y-14135436D01*
X12185554Y-14135436D02*
X12176030Y-14144959D01*
X12176030Y-14144959D02*
X12166507Y-14135436D01*
X12166507Y-14135436D02*
X12176030Y-14125912D01*
X12176030Y-14125912D02*
X12176030Y-14144959D01*
X12309364Y-13944959D02*
X12328411Y-13944959D01*
X12328411Y-13944959D02*
X12347459Y-13954483D01*
X12347459Y-13954483D02*
X12356983Y-13964007D01*
X12356983Y-13964007D02*
X12366507Y-13983055D01*
X12366507Y-13983055D02*
X12376030Y-14021150D01*
X12376030Y-14021150D02*
X12376030Y-14068769D01*
X12376030Y-14068769D02*
X12366507Y-14106864D01*
X12366507Y-14106864D02*
X12356983Y-14125912D01*
X12356983Y-14125912D02*
X12347459Y-14135436D01*
X12347459Y-14135436D02*
X12328411Y-14144959D01*
X12328411Y-14144959D02*
X12309364Y-14144959D01*
X12309364Y-14144959D02*
X12290316Y-14135436D01*
X12290316Y-14135436D02*
X12280792Y-14125912D01*
X12280792Y-14125912D02*
X12271269Y-14106864D01*
X12271269Y-14106864D02*
X12261745Y-14068769D01*
X12261745Y-14068769D02*
X12261745Y-14021150D01*
X12261745Y-14021150D02*
X12271269Y-13983055D01*
X12271269Y-13983055D02*
X12280792Y-13964007D01*
X12280792Y-13964007D02*
X12290316Y-13954483D01*
X12290316Y-13954483D02*
X12309364Y-13944959D01*
X12547459Y-13944959D02*
X12509364Y-13944959D01*
X12509364Y-13944959D02*
X12490316Y-13954483D01*
X12490316Y-13954483D02*
X12480792Y-13964007D01*
X12480792Y-13964007D02*
X12461745Y-13992579D01*
X12461745Y-13992579D02*
X12452221Y-14030674D01*
X12452221Y-14030674D02*
X12452221Y-14106864D01*
X12452221Y-14106864D02*
X12461745Y-14125912D01*
X12461745Y-14125912D02*
X12471269Y-14135436D01*
X12471269Y-14135436D02*
X12490316Y-14144959D01*
X12490316Y-14144959D02*
X12528411Y-14144959D01*
X12528411Y-14144959D02*
X12547459Y-14135436D01*
X12547459Y-14135436D02*
X12556983Y-14125912D01*
X12556983Y-14125912D02*
X12566507Y-14106864D01*
X12566507Y-14106864D02*
X12566507Y-14059245D01*
X12566507Y-14059245D02*
X12556983Y-14040198D01*
X12556983Y-14040198D02*
X12547459Y-14030674D01*
X12547459Y-14030674D02*
X12528411Y-14021150D01*
X12528411Y-14021150D02*
X12490316Y-14021150D01*
X12490316Y-14021150D02*
X12471269Y-14030674D01*
X12471269Y-14030674D02*
X12461745Y-14040198D01*
X12461745Y-14040198D02*
X12452221Y-14059245D01*
X12633173Y-13944959D02*
X12766507Y-13944959D01*
X12766507Y-13944959D02*
X12680792Y-14144959D01*
X12880792Y-13944959D02*
X12899840Y-13944959D01*
X12899840Y-13944959D02*
X12918888Y-13954483D01*
X12918888Y-13954483D02*
X12928411Y-13964007D01*
X12928411Y-13964007D02*
X12937935Y-13983055D01*
X12937935Y-13983055D02*
X12947459Y-14021150D01*
X12947459Y-14021150D02*
X12947459Y-14068769D01*
X12947459Y-14068769D02*
X12937935Y-14106864D01*
X12937935Y-14106864D02*
X12928411Y-14125912D01*
X12928411Y-14125912D02*
X12918888Y-14135436D01*
X12918888Y-14135436D02*
X12899840Y-14144959D01*
X12899840Y-14144959D02*
X12880792Y-14144959D01*
X12880792Y-14144959D02*
X12861745Y-14135436D01*
X12861745Y-14135436D02*
X12852221Y-14125912D01*
X12852221Y-14125912D02*
X12842697Y-14106864D01*
X12842697Y-14106864D02*
X12833173Y-14068769D01*
X12833173Y-14068769D02*
X12833173Y-14021150D01*
X12833173Y-14021150D02*
X12842697Y-13983055D01*
X12842697Y-13983055D02*
X12852221Y-13964007D01*
X12852221Y-13964007D02*
X12861745Y-13954483D01*
X12861745Y-13954483D02*
X12880792Y-13944959D01*
X13023650Y-13944959D02*
X13023650Y-13983055D01*
X13099840Y-13944959D02*
X13099840Y-13983055D01*
X13362697Y-14221150D02*
X13353173Y-14211626D01*
X13353173Y-14211626D02*
X13334126Y-14183055D01*
X13334126Y-14183055D02*
X13324602Y-14164007D01*
X13324602Y-14164007D02*
X13315078Y-14135436D01*
X13315078Y-14135436D02*
X13305554Y-14087817D01*
X13305554Y-14087817D02*
X13305554Y-14049721D01*
X13305554Y-14049721D02*
X13315078Y-14002102D01*
X13315078Y-14002102D02*
X13324602Y-13973531D01*
X13324602Y-13973531D02*
X13334126Y-13954483D01*
X13334126Y-13954483D02*
X13353173Y-13925912D01*
X13353173Y-13925912D02*
X13362697Y-13916388D01*
X13429364Y-13964007D02*
X13438888Y-13954483D01*
X13438888Y-13954483D02*
X13457935Y-13944959D01*
X13457935Y-13944959D02*
X13505554Y-13944959D01*
X13505554Y-13944959D02*
X13524602Y-13954483D01*
X13524602Y-13954483D02*
X13534126Y-13964007D01*
X13534126Y-13964007D02*
X13543650Y-13983055D01*
X13543650Y-13983055D02*
X13543650Y-14002102D01*
X13543650Y-14002102D02*
X13534126Y-14030674D01*
X13534126Y-14030674D02*
X13419840Y-14144959D01*
X13419840Y-14144959D02*
X13543650Y-14144959D01*
X13667459Y-13944959D02*
X13686507Y-13944959D01*
X13686507Y-13944959D02*
X13705554Y-13954483D01*
X13705554Y-13954483D02*
X13715078Y-13964007D01*
X13715078Y-13964007D02*
X13724602Y-13983055D01*
X13724602Y-13983055D02*
X13734126Y-14021150D01*
X13734126Y-14021150D02*
X13734126Y-14068769D01*
X13734126Y-14068769D02*
X13724602Y-14106864D01*
X13724602Y-14106864D02*
X13715078Y-14125912D01*
X13715078Y-14125912D02*
X13705554Y-14135436D01*
X13705554Y-14135436D02*
X13686507Y-14144959D01*
X13686507Y-14144959D02*
X13667459Y-14144959D01*
X13667459Y-14144959D02*
X13648411Y-14135436D01*
X13648411Y-14135436D02*
X13638888Y-14125912D01*
X13638888Y-14125912D02*
X13629364Y-14106864D01*
X13629364Y-14106864D02*
X13619840Y-14068769D01*
X13619840Y-14068769D02*
X13619840Y-14021150D01*
X13619840Y-14021150D02*
X13629364Y-13983055D01*
X13629364Y-13983055D02*
X13638888Y-13964007D01*
X13638888Y-13964007D02*
X13648411Y-13954483D01*
X13648411Y-13954483D02*
X13667459Y-13944959D01*
X13939840Y-14144959D02*
X13939840Y-13944959D01*
X14025554Y-14144959D02*
X14025554Y-14040198D01*
X14025554Y-14040198D02*
X14016031Y-14021150D01*
X14016031Y-14021150D02*
X13996983Y-14011626D01*
X13996983Y-14011626D02*
X13968411Y-14011626D01*
X13968411Y-14011626D02*
X13949364Y-14021150D01*
X13949364Y-14021150D02*
X13939840Y-14030674D01*
X14149364Y-14144959D02*
X14130316Y-14135436D01*
X14130316Y-14135436D02*
X14120792Y-14125912D01*
X14120792Y-14125912D02*
X14111269Y-14106864D01*
X14111269Y-14106864D02*
X14111269Y-14049721D01*
X14111269Y-14049721D02*
X14120792Y-14030674D01*
X14120792Y-14030674D02*
X14130316Y-14021150D01*
X14130316Y-14021150D02*
X14149364Y-14011626D01*
X14149364Y-14011626D02*
X14177935Y-14011626D01*
X14177935Y-14011626D02*
X14196983Y-14021150D01*
X14196983Y-14021150D02*
X14206507Y-14030674D01*
X14206507Y-14030674D02*
X14216031Y-14049721D01*
X14216031Y-14049721D02*
X14216031Y-14106864D01*
X14216031Y-14106864D02*
X14206507Y-14125912D01*
X14206507Y-14125912D02*
X14196983Y-14135436D01*
X14196983Y-14135436D02*
X14177935Y-14144959D01*
X14177935Y-14144959D02*
X14149364Y-14144959D01*
X14330316Y-14144959D02*
X14311269Y-14135436D01*
X14311269Y-14135436D02*
X14301745Y-14116388D01*
X14301745Y-14116388D02*
X14301745Y-13944959D01*
X14482697Y-14135436D02*
X14463650Y-14144959D01*
X14463650Y-14144959D02*
X14425554Y-14144959D01*
X14425554Y-14144959D02*
X14406507Y-14135436D01*
X14406507Y-14135436D02*
X14396983Y-14116388D01*
X14396983Y-14116388D02*
X14396983Y-14040198D01*
X14396983Y-14040198D02*
X14406507Y-14021150D01*
X14406507Y-14021150D02*
X14425554Y-14011626D01*
X14425554Y-14011626D02*
X14463650Y-14011626D01*
X14463650Y-14011626D02*
X14482697Y-14021150D01*
X14482697Y-14021150D02*
X14492221Y-14040198D01*
X14492221Y-14040198D02*
X14492221Y-14059245D01*
X14492221Y-14059245D02*
X14396983Y-14078293D01*
X14568412Y-14135436D02*
X14587459Y-14144959D01*
X14587459Y-14144959D02*
X14625554Y-14144959D01*
X14625554Y-14144959D02*
X14644602Y-14135436D01*
X14644602Y-14135436D02*
X14654126Y-14116388D01*
X14654126Y-14116388D02*
X14654126Y-14106864D01*
X14654126Y-14106864D02*
X14644602Y-14087817D01*
X14644602Y-14087817D02*
X14625554Y-14078293D01*
X14625554Y-14078293D02*
X14596983Y-14078293D01*
X14596983Y-14078293D02*
X14577935Y-14068769D01*
X14577935Y-14068769D02*
X14568412Y-14049721D01*
X14568412Y-14049721D02*
X14568412Y-14040198D01*
X14568412Y-14040198D02*
X14577935Y-14021150D01*
X14577935Y-14021150D02*
X14596983Y-14011626D01*
X14596983Y-14011626D02*
X14625554Y-14011626D01*
X14625554Y-14011626D02*
X14644602Y-14021150D01*
X14720793Y-14221150D02*
X14730316Y-14211626D01*
X14730316Y-14211626D02*
X14749364Y-14183055D01*
X14749364Y-14183055D02*
X14758888Y-14164007D01*
X14758888Y-14164007D02*
X14768412Y-14135436D01*
X14768412Y-14135436D02*
X14777935Y-14087817D01*
X14777935Y-14087817D02*
X14777935Y-14049721D01*
X14777935Y-14049721D02*
X14768412Y-14002102D01*
X14768412Y-14002102D02*
X14758888Y-13973531D01*
X14758888Y-13973531D02*
X14749364Y-13954483D01*
X14749364Y-13954483D02*
X14730316Y-13925912D01*
X14730316Y-13925912D02*
X14720793Y-13916388D01*
X15050316Y-14221150D02*
X15040792Y-14211626D01*
X15040792Y-14211626D02*
X15021745Y-14183055D01*
X15021745Y-14183055D02*
X15012221Y-14164007D01*
X15012221Y-14164007D02*
X15002697Y-14135436D01*
X15002697Y-14135436D02*
X14993173Y-14087817D01*
X14993173Y-14087817D02*
X14993173Y-14049721D01*
X14993173Y-14049721D02*
X15002697Y-14002102D01*
X15002697Y-14002102D02*
X15012221Y-13973531D01*
X15012221Y-13973531D02*
X15021745Y-13954483D01*
X15021745Y-13954483D02*
X15040792Y-13925912D01*
X15040792Y-13925912D02*
X15050316Y-13916388D01*
X15126507Y-14011626D02*
X15126507Y-14144959D01*
X15126507Y-14030674D02*
X15136031Y-14021150D01*
X15136031Y-14021150D02*
X15155078Y-14011626D01*
X15155078Y-14011626D02*
X15183650Y-14011626D01*
X15183650Y-14011626D02*
X15202697Y-14021150D01*
X15202697Y-14021150D02*
X15212221Y-14040198D01*
X15212221Y-14040198D02*
X15212221Y-14144959D01*
X15336031Y-14144959D02*
X15316983Y-14135436D01*
X15316983Y-14135436D02*
X15307459Y-14125912D01*
X15307459Y-14125912D02*
X15297935Y-14106864D01*
X15297935Y-14106864D02*
X15297935Y-14049721D01*
X15297935Y-14049721D02*
X15307459Y-14030674D01*
X15307459Y-14030674D02*
X15316983Y-14021150D01*
X15316983Y-14021150D02*
X15336031Y-14011626D01*
X15336031Y-14011626D02*
X15364602Y-14011626D01*
X15364602Y-14011626D02*
X15383650Y-14021150D01*
X15383650Y-14021150D02*
X15393173Y-14030674D01*
X15393173Y-14030674D02*
X15402697Y-14049721D01*
X15402697Y-14049721D02*
X15402697Y-14106864D01*
X15402697Y-14106864D02*
X15393173Y-14125912D01*
X15393173Y-14125912D02*
X15383650Y-14135436D01*
X15383650Y-14135436D02*
X15364602Y-14144959D01*
X15364602Y-14144959D02*
X15336031Y-14144959D01*
X15459840Y-14011626D02*
X15536031Y-14011626D01*
X15488412Y-13944959D02*
X15488412Y-14116388D01*
X15488412Y-14116388D02*
X15497935Y-14135436D01*
X15497935Y-14135436D02*
X15516983Y-14144959D01*
X15516983Y-14144959D02*
X15536031Y-14144959D01*
X15722697Y-14011626D02*
X15722697Y-14211626D01*
X15722697Y-14021150D02*
X15741745Y-14011626D01*
X15741745Y-14011626D02*
X15779840Y-14011626D01*
X15779840Y-14011626D02*
X15798888Y-14021150D01*
X15798888Y-14021150D02*
X15808412Y-14030674D01*
X15808412Y-14030674D02*
X15817935Y-14049721D01*
X15817935Y-14049721D02*
X15817935Y-14106864D01*
X15817935Y-14106864D02*
X15808412Y-14125912D01*
X15808412Y-14125912D02*
X15798888Y-14135436D01*
X15798888Y-14135436D02*
X15779840Y-14144959D01*
X15779840Y-14144959D02*
X15741745Y-14144959D01*
X15741745Y-14144959D02*
X15722697Y-14135436D01*
X15932221Y-14144959D02*
X15913173Y-14135436D01*
X15913173Y-14135436D02*
X15903650Y-14116388D01*
X15903650Y-14116388D02*
X15903650Y-13944959D01*
X16094126Y-14144959D02*
X16094126Y-14040198D01*
X16094126Y-14040198D02*
X16084602Y-14021150D01*
X16084602Y-14021150D02*
X16065554Y-14011626D01*
X16065554Y-14011626D02*
X16027459Y-14011626D01*
X16027459Y-14011626D02*
X16008412Y-14021150D01*
X16094126Y-14135436D02*
X16075078Y-14144959D01*
X16075078Y-14144959D02*
X16027459Y-14144959D01*
X16027459Y-14144959D02*
X16008412Y-14135436D01*
X16008412Y-14135436D02*
X15998888Y-14116388D01*
X15998888Y-14116388D02*
X15998888Y-14097340D01*
X15998888Y-14097340D02*
X16008412Y-14078293D01*
X16008412Y-14078293D02*
X16027459Y-14068769D01*
X16027459Y-14068769D02*
X16075078Y-14068769D01*
X16075078Y-14068769D02*
X16094126Y-14059245D01*
X16160793Y-14011626D02*
X16236983Y-14011626D01*
X16189364Y-13944959D02*
X16189364Y-14116388D01*
X16189364Y-14116388D02*
X16198888Y-14135436D01*
X16198888Y-14135436D02*
X16217935Y-14144959D01*
X16217935Y-14144959D02*
X16236983Y-14144959D01*
X16379840Y-14135436D02*
X16360793Y-14144959D01*
X16360793Y-14144959D02*
X16322697Y-14144959D01*
X16322697Y-14144959D02*
X16303650Y-14135436D01*
X16303650Y-14135436D02*
X16294126Y-14116388D01*
X16294126Y-14116388D02*
X16294126Y-14040198D01*
X16294126Y-14040198D02*
X16303650Y-14021150D01*
X16303650Y-14021150D02*
X16322697Y-14011626D01*
X16322697Y-14011626D02*
X16360793Y-14011626D01*
X16360793Y-14011626D02*
X16379840Y-14021150D01*
X16379840Y-14021150D02*
X16389364Y-14040198D01*
X16389364Y-14040198D02*
X16389364Y-14059245D01*
X16389364Y-14059245D02*
X16294126Y-14078293D01*
X16560793Y-14144959D02*
X16560793Y-13944959D01*
X16560793Y-14135436D02*
X16541745Y-14144959D01*
X16541745Y-14144959D02*
X16503650Y-14144959D01*
X16503650Y-14144959D02*
X16484602Y-14135436D01*
X16484602Y-14135436D02*
X16475078Y-14125912D01*
X16475078Y-14125912D02*
X16465554Y-14106864D01*
X16465554Y-14106864D02*
X16465554Y-14049721D01*
X16465554Y-14049721D02*
X16475078Y-14030674D01*
X16475078Y-14030674D02*
X16484602Y-14021150D01*
X16484602Y-14021150D02*
X16503650Y-14011626D01*
X16503650Y-14011626D02*
X16541745Y-14011626D01*
X16541745Y-14011626D02*
X16560793Y-14021150D01*
X16636983Y-14221150D02*
X16646507Y-14211626D01*
X16646507Y-14211626D02*
X16665554Y-14183055D01*
X16665554Y-14183055D02*
X16675078Y-14164007D01*
X16675078Y-14164007D02*
X16684602Y-14135436D01*
X16684602Y-14135436D02*
X16694126Y-14087817D01*
X16694126Y-14087817D02*
X16694126Y-14049721D01*
X16694126Y-14049721D02*
X16684602Y-14002102D01*
X16684602Y-14002102D02*
X16675078Y-13973531D01*
X16675078Y-13973531D02*
X16665554Y-13954483D01*
X16665554Y-13954483D02*
X16646507Y-13925912D01*
X16646507Y-13925912D02*
X16636983Y-13916388D01*
X9797935Y-14261663D02*
X9797935Y-14461663D01*
X9697935Y-14361663D02*
X9897935Y-14361663D01*
X10126507Y-14235139D02*
X10250316Y-14235139D01*
X10250316Y-14235139D02*
X10183649Y-14311330D01*
X10183649Y-14311330D02*
X10212221Y-14311330D01*
X10212221Y-14311330D02*
X10231269Y-14320854D01*
X10231269Y-14320854D02*
X10240792Y-14330378D01*
X10240792Y-14330378D02*
X10250316Y-14349425D01*
X10250316Y-14349425D02*
X10250316Y-14397044D01*
X10250316Y-14397044D02*
X10240792Y-14416092D01*
X10240792Y-14416092D02*
X10231269Y-14425616D01*
X10231269Y-14425616D02*
X10212221Y-14435139D01*
X10212221Y-14435139D02*
X10155078Y-14435139D01*
X10155078Y-14435139D02*
X10136030Y-14425616D01*
X10136030Y-14425616D02*
X10126507Y-14416092D01*
X10336030Y-14416092D02*
X10345554Y-14425616D01*
X10345554Y-14425616D02*
X10336030Y-14435139D01*
X10336030Y-14435139D02*
X10326507Y-14425616D01*
X10326507Y-14425616D02*
X10336030Y-14416092D01*
X10336030Y-14416092D02*
X10336030Y-14435139D01*
X10469364Y-14235139D02*
X10488411Y-14235139D01*
X10488411Y-14235139D02*
X10507459Y-14244663D01*
X10507459Y-14244663D02*
X10516983Y-14254187D01*
X10516983Y-14254187D02*
X10526507Y-14273235D01*
X10526507Y-14273235D02*
X10536030Y-14311330D01*
X10536030Y-14311330D02*
X10536030Y-14358949D01*
X10536030Y-14358949D02*
X10526507Y-14397044D01*
X10526507Y-14397044D02*
X10516983Y-14416092D01*
X10516983Y-14416092D02*
X10507459Y-14425616D01*
X10507459Y-14425616D02*
X10488411Y-14435139D01*
X10488411Y-14435139D02*
X10469364Y-14435139D01*
X10469364Y-14435139D02*
X10450316Y-14425616D01*
X10450316Y-14425616D02*
X10440792Y-14416092D01*
X10440792Y-14416092D02*
X10431269Y-14397044D01*
X10431269Y-14397044D02*
X10421745Y-14358949D01*
X10421745Y-14358949D02*
X10421745Y-14311330D01*
X10421745Y-14311330D02*
X10431269Y-14273235D01*
X10431269Y-14273235D02*
X10440792Y-14254187D01*
X10440792Y-14254187D02*
X10450316Y-14244663D01*
X10450316Y-14244663D02*
X10469364Y-14235139D01*
X10659840Y-14235139D02*
X10678888Y-14235139D01*
X10678888Y-14235139D02*
X10697935Y-14244663D01*
X10697935Y-14244663D02*
X10707459Y-14254187D01*
X10707459Y-14254187D02*
X10716983Y-14273235D01*
X10716983Y-14273235D02*
X10726507Y-14311330D01*
X10726507Y-14311330D02*
X10726507Y-14358949D01*
X10726507Y-14358949D02*
X10716983Y-14397044D01*
X10716983Y-14397044D02*
X10707459Y-14416092D01*
X10707459Y-14416092D02*
X10697935Y-14425616D01*
X10697935Y-14425616D02*
X10678888Y-14435139D01*
X10678888Y-14435139D02*
X10659840Y-14435139D01*
X10659840Y-14435139D02*
X10640792Y-14425616D01*
X10640792Y-14425616D02*
X10631269Y-14416092D01*
X10631269Y-14416092D02*
X10621745Y-14397044D01*
X10621745Y-14397044D02*
X10612221Y-14358949D01*
X10612221Y-14358949D02*
X10612221Y-14311330D01*
X10612221Y-14311330D02*
X10621745Y-14273235D01*
X10621745Y-14273235D02*
X10631269Y-14254187D01*
X10631269Y-14254187D02*
X10640792Y-14244663D01*
X10640792Y-14244663D02*
X10659840Y-14235139D01*
X10850316Y-14235139D02*
X10869364Y-14235139D01*
X10869364Y-14235139D02*
X10888411Y-14244663D01*
X10888411Y-14244663D02*
X10897935Y-14254187D01*
X10897935Y-14254187D02*
X10907459Y-14273235D01*
X10907459Y-14273235D02*
X10916983Y-14311330D01*
X10916983Y-14311330D02*
X10916983Y-14358949D01*
X10916983Y-14358949D02*
X10907459Y-14397044D01*
X10907459Y-14397044D02*
X10897935Y-14416092D01*
X10897935Y-14416092D02*
X10888411Y-14425616D01*
X10888411Y-14425616D02*
X10869364Y-14435139D01*
X10869364Y-14435139D02*
X10850316Y-14435139D01*
X10850316Y-14435139D02*
X10831269Y-14425616D01*
X10831269Y-14425616D02*
X10821745Y-14416092D01*
X10821745Y-14416092D02*
X10812221Y-14397044D01*
X10812221Y-14397044D02*
X10802697Y-14358949D01*
X10802697Y-14358949D02*
X10802697Y-14311330D01*
X10802697Y-14311330D02*
X10812221Y-14273235D01*
X10812221Y-14273235D02*
X10821745Y-14254187D01*
X10821745Y-14254187D02*
X10831269Y-14244663D01*
X10831269Y-14244663D02*
X10850316Y-14235139D01*
X11002697Y-14435139D02*
X11002697Y-14301806D01*
X11002697Y-14320854D02*
X11012221Y-14311330D01*
X11012221Y-14311330D02*
X11031269Y-14301806D01*
X11031269Y-14301806D02*
X11059840Y-14301806D01*
X11059840Y-14301806D02*
X11078888Y-14311330D01*
X11078888Y-14311330D02*
X11088411Y-14330378D01*
X11088411Y-14330378D02*
X11088411Y-14435139D01*
X11088411Y-14330378D02*
X11097935Y-14311330D01*
X11097935Y-14311330D02*
X11116983Y-14301806D01*
X11116983Y-14301806D02*
X11145554Y-14301806D01*
X11145554Y-14301806D02*
X11164602Y-14311330D01*
X11164602Y-14311330D02*
X11174126Y-14330378D01*
X11174126Y-14330378D02*
X11174126Y-14435139D01*
X11269364Y-14435139D02*
X11269364Y-14301806D01*
X11269364Y-14320854D02*
X11278888Y-14311330D01*
X11278888Y-14311330D02*
X11297935Y-14301806D01*
X11297935Y-14301806D02*
X11326507Y-14301806D01*
X11326507Y-14301806D02*
X11345554Y-14311330D01*
X11345554Y-14311330D02*
X11355078Y-14330378D01*
X11355078Y-14330378D02*
X11355078Y-14435139D01*
X11355078Y-14330378D02*
X11364602Y-14311330D01*
X11364602Y-14311330D02*
X11383649Y-14301806D01*
X11383649Y-14301806D02*
X11412221Y-14301806D01*
X11412221Y-14301806D02*
X11431269Y-14311330D01*
X11431269Y-14311330D02*
X11440792Y-14330378D01*
X11440792Y-14330378D02*
X11440792Y-14435139D01*
X11798888Y-14225616D02*
X11627459Y-14482759D01*
X12023649Y-14235139D02*
X12042697Y-14235139D01*
X12042697Y-14235139D02*
X12061745Y-14244663D01*
X12061745Y-14244663D02*
X12071269Y-14254187D01*
X12071269Y-14254187D02*
X12080792Y-14273235D01*
X12080792Y-14273235D02*
X12090316Y-14311330D01*
X12090316Y-14311330D02*
X12090316Y-14358949D01*
X12090316Y-14358949D02*
X12080792Y-14397044D01*
X12080792Y-14397044D02*
X12071269Y-14416092D01*
X12071269Y-14416092D02*
X12061745Y-14425616D01*
X12061745Y-14425616D02*
X12042697Y-14435139D01*
X12042697Y-14435139D02*
X12023649Y-14435139D01*
X12023649Y-14435139D02*
X12004602Y-14425616D01*
X12004602Y-14425616D02*
X11995078Y-14416092D01*
X11995078Y-14416092D02*
X11985554Y-14397044D01*
X11985554Y-14397044D02*
X11976030Y-14358949D01*
X11976030Y-14358949D02*
X11976030Y-14311330D01*
X11976030Y-14311330D02*
X11985554Y-14273235D01*
X11985554Y-14273235D02*
X11995078Y-14254187D01*
X11995078Y-14254187D02*
X12004602Y-14244663D01*
X12004602Y-14244663D02*
X12023649Y-14235139D01*
X12176030Y-14416092D02*
X12185554Y-14425616D01*
X12185554Y-14425616D02*
X12176030Y-14435139D01*
X12176030Y-14435139D02*
X12166507Y-14425616D01*
X12166507Y-14425616D02*
X12176030Y-14416092D01*
X12176030Y-14416092D02*
X12176030Y-14435139D01*
X12376030Y-14435139D02*
X12261745Y-14435139D01*
X12318888Y-14435139D02*
X12318888Y-14235139D01*
X12318888Y-14235139D02*
X12299840Y-14263711D01*
X12299840Y-14263711D02*
X12280792Y-14282759D01*
X12280792Y-14282759D02*
X12261745Y-14292282D01*
X12566507Y-14435139D02*
X12452221Y-14435139D01*
X12509364Y-14435139D02*
X12509364Y-14235139D01*
X12509364Y-14235139D02*
X12490316Y-14263711D01*
X12490316Y-14263711D02*
X12471269Y-14282759D01*
X12471269Y-14282759D02*
X12452221Y-14292282D01*
X12680792Y-14320854D02*
X12661745Y-14311330D01*
X12661745Y-14311330D02*
X12652221Y-14301806D01*
X12652221Y-14301806D02*
X12642697Y-14282759D01*
X12642697Y-14282759D02*
X12642697Y-14273235D01*
X12642697Y-14273235D02*
X12652221Y-14254187D01*
X12652221Y-14254187D02*
X12661745Y-14244663D01*
X12661745Y-14244663D02*
X12680792Y-14235139D01*
X12680792Y-14235139D02*
X12718888Y-14235139D01*
X12718888Y-14235139D02*
X12737935Y-14244663D01*
X12737935Y-14244663D02*
X12747459Y-14254187D01*
X12747459Y-14254187D02*
X12756983Y-14273235D01*
X12756983Y-14273235D02*
X12756983Y-14282759D01*
X12756983Y-14282759D02*
X12747459Y-14301806D01*
X12747459Y-14301806D02*
X12737935Y-14311330D01*
X12737935Y-14311330D02*
X12718888Y-14320854D01*
X12718888Y-14320854D02*
X12680792Y-14320854D01*
X12680792Y-14320854D02*
X12661745Y-14330378D01*
X12661745Y-14330378D02*
X12652221Y-14339901D01*
X12652221Y-14339901D02*
X12642697Y-14358949D01*
X12642697Y-14358949D02*
X12642697Y-14397044D01*
X12642697Y-14397044D02*
X12652221Y-14416092D01*
X12652221Y-14416092D02*
X12661745Y-14425616D01*
X12661745Y-14425616D02*
X12680792Y-14435139D01*
X12680792Y-14435139D02*
X12718888Y-14435139D01*
X12718888Y-14435139D02*
X12737935Y-14425616D01*
X12737935Y-14425616D02*
X12747459Y-14416092D01*
X12747459Y-14416092D02*
X12756983Y-14397044D01*
X12756983Y-14397044D02*
X12756983Y-14358949D01*
X12756983Y-14358949D02*
X12747459Y-14339901D01*
X12747459Y-14339901D02*
X12737935Y-14330378D01*
X12737935Y-14330378D02*
X12718888Y-14320854D01*
X12947459Y-14435139D02*
X12833173Y-14435139D01*
X12890316Y-14435139D02*
X12890316Y-14235139D01*
X12890316Y-14235139D02*
X12871269Y-14263711D01*
X12871269Y-14263711D02*
X12852221Y-14282759D01*
X12852221Y-14282759D02*
X12833173Y-14292282D01*
X13023650Y-14235139D02*
X13023650Y-14273235D01*
X13099840Y-14235139D02*
X13099840Y-14273235D01*
X13362697Y-14511330D02*
X13353173Y-14501806D01*
X13353173Y-14501806D02*
X13334126Y-14473235D01*
X13334126Y-14473235D02*
X13324602Y-14454187D01*
X13324602Y-14454187D02*
X13315078Y-14425616D01*
X13315078Y-14425616D02*
X13305554Y-14377997D01*
X13305554Y-14377997D02*
X13305554Y-14339901D01*
X13305554Y-14339901D02*
X13315078Y-14292282D01*
X13315078Y-14292282D02*
X13324602Y-14263711D01*
X13324602Y-14263711D02*
X13334126Y-14244663D01*
X13334126Y-14244663D02*
X13353173Y-14216092D01*
X13353173Y-14216092D02*
X13362697Y-14206568D01*
X13429364Y-14254187D02*
X13438888Y-14244663D01*
X13438888Y-14244663D02*
X13457935Y-14235139D01*
X13457935Y-14235139D02*
X13505554Y-14235139D01*
X13505554Y-14235139D02*
X13524602Y-14244663D01*
X13524602Y-14244663D02*
X13534126Y-14254187D01*
X13534126Y-14254187D02*
X13543650Y-14273235D01*
X13543650Y-14273235D02*
X13543650Y-14292282D01*
X13543650Y-14292282D02*
X13534126Y-14320854D01*
X13534126Y-14320854D02*
X13419840Y-14435139D01*
X13419840Y-14435139D02*
X13543650Y-14435139D01*
X13667459Y-14235139D02*
X13686507Y-14235139D01*
X13686507Y-14235139D02*
X13705554Y-14244663D01*
X13705554Y-14244663D02*
X13715078Y-14254187D01*
X13715078Y-14254187D02*
X13724602Y-14273235D01*
X13724602Y-14273235D02*
X13734126Y-14311330D01*
X13734126Y-14311330D02*
X13734126Y-14358949D01*
X13734126Y-14358949D02*
X13724602Y-14397044D01*
X13724602Y-14397044D02*
X13715078Y-14416092D01*
X13715078Y-14416092D02*
X13705554Y-14425616D01*
X13705554Y-14425616D02*
X13686507Y-14435139D01*
X13686507Y-14435139D02*
X13667459Y-14435139D01*
X13667459Y-14435139D02*
X13648411Y-14425616D01*
X13648411Y-14425616D02*
X13638888Y-14416092D01*
X13638888Y-14416092D02*
X13629364Y-14397044D01*
X13629364Y-14397044D02*
X13619840Y-14358949D01*
X13619840Y-14358949D02*
X13619840Y-14311330D01*
X13619840Y-14311330D02*
X13629364Y-14273235D01*
X13629364Y-14273235D02*
X13638888Y-14254187D01*
X13638888Y-14254187D02*
X13648411Y-14244663D01*
X13648411Y-14244663D02*
X13667459Y-14235139D01*
X13939840Y-14435139D02*
X13939840Y-14235139D01*
X14025554Y-14435139D02*
X14025554Y-14330378D01*
X14025554Y-14330378D02*
X14016031Y-14311330D01*
X14016031Y-14311330D02*
X13996983Y-14301806D01*
X13996983Y-14301806D02*
X13968411Y-14301806D01*
X13968411Y-14301806D02*
X13949364Y-14311330D01*
X13949364Y-14311330D02*
X13939840Y-14320854D01*
X14149364Y-14435139D02*
X14130316Y-14425616D01*
X14130316Y-14425616D02*
X14120792Y-14416092D01*
X14120792Y-14416092D02*
X14111269Y-14397044D01*
X14111269Y-14397044D02*
X14111269Y-14339901D01*
X14111269Y-14339901D02*
X14120792Y-14320854D01*
X14120792Y-14320854D02*
X14130316Y-14311330D01*
X14130316Y-14311330D02*
X14149364Y-14301806D01*
X14149364Y-14301806D02*
X14177935Y-14301806D01*
X14177935Y-14301806D02*
X14196983Y-14311330D01*
X14196983Y-14311330D02*
X14206507Y-14320854D01*
X14206507Y-14320854D02*
X14216031Y-14339901D01*
X14216031Y-14339901D02*
X14216031Y-14397044D01*
X14216031Y-14397044D02*
X14206507Y-14416092D01*
X14206507Y-14416092D02*
X14196983Y-14425616D01*
X14196983Y-14425616D02*
X14177935Y-14435139D01*
X14177935Y-14435139D02*
X14149364Y-14435139D01*
X14330316Y-14435139D02*
X14311269Y-14425616D01*
X14311269Y-14425616D02*
X14301745Y-14406568D01*
X14301745Y-14406568D02*
X14301745Y-14235139D01*
X14482697Y-14425616D02*
X14463650Y-14435139D01*
X14463650Y-14435139D02*
X14425554Y-14435139D01*
X14425554Y-14435139D02*
X14406507Y-14425616D01*
X14406507Y-14425616D02*
X14396983Y-14406568D01*
X14396983Y-14406568D02*
X14396983Y-14330378D01*
X14396983Y-14330378D02*
X14406507Y-14311330D01*
X14406507Y-14311330D02*
X14425554Y-14301806D01*
X14425554Y-14301806D02*
X14463650Y-14301806D01*
X14463650Y-14301806D02*
X14482697Y-14311330D01*
X14482697Y-14311330D02*
X14492221Y-14330378D01*
X14492221Y-14330378D02*
X14492221Y-14349425D01*
X14492221Y-14349425D02*
X14396983Y-14368473D01*
X14568412Y-14425616D02*
X14587459Y-14435139D01*
X14587459Y-14435139D02*
X14625554Y-14435139D01*
X14625554Y-14435139D02*
X14644602Y-14425616D01*
X14644602Y-14425616D02*
X14654126Y-14406568D01*
X14654126Y-14406568D02*
X14654126Y-14397044D01*
X14654126Y-14397044D02*
X14644602Y-14377997D01*
X14644602Y-14377997D02*
X14625554Y-14368473D01*
X14625554Y-14368473D02*
X14596983Y-14368473D01*
X14596983Y-14368473D02*
X14577935Y-14358949D01*
X14577935Y-14358949D02*
X14568412Y-14339901D01*
X14568412Y-14339901D02*
X14568412Y-14330378D01*
X14568412Y-14330378D02*
X14577935Y-14311330D01*
X14577935Y-14311330D02*
X14596983Y-14301806D01*
X14596983Y-14301806D02*
X14625554Y-14301806D01*
X14625554Y-14301806D02*
X14644602Y-14311330D01*
X14720793Y-14511330D02*
X14730316Y-14501806D01*
X14730316Y-14501806D02*
X14749364Y-14473235D01*
X14749364Y-14473235D02*
X14758888Y-14454187D01*
X14758888Y-14454187D02*
X14768412Y-14425616D01*
X14768412Y-14425616D02*
X14777935Y-14377997D01*
X14777935Y-14377997D02*
X14777935Y-14339901D01*
X14777935Y-14339901D02*
X14768412Y-14292282D01*
X14768412Y-14292282D02*
X14758888Y-14263711D01*
X14758888Y-14263711D02*
X14749364Y-14244663D01*
X14749364Y-14244663D02*
X14730316Y-14216092D01*
X14730316Y-14216092D02*
X14720793Y-14206568D01*
X15050316Y-14511330D02*
X15040792Y-14501806D01*
X15040792Y-14501806D02*
X15021745Y-14473235D01*
X15021745Y-14473235D02*
X15012221Y-14454187D01*
X15012221Y-14454187D02*
X15002697Y-14425616D01*
X15002697Y-14425616D02*
X14993173Y-14377997D01*
X14993173Y-14377997D02*
X14993173Y-14339901D01*
X14993173Y-14339901D02*
X15002697Y-14292282D01*
X15002697Y-14292282D02*
X15012221Y-14263711D01*
X15012221Y-14263711D02*
X15021745Y-14244663D01*
X15021745Y-14244663D02*
X15040792Y-14216092D01*
X15040792Y-14216092D02*
X15050316Y-14206568D01*
X15126507Y-14301806D02*
X15126507Y-14435139D01*
X15126507Y-14320854D02*
X15136031Y-14311330D01*
X15136031Y-14311330D02*
X15155078Y-14301806D01*
X15155078Y-14301806D02*
X15183650Y-14301806D01*
X15183650Y-14301806D02*
X15202697Y-14311330D01*
X15202697Y-14311330D02*
X15212221Y-14330378D01*
X15212221Y-14330378D02*
X15212221Y-14435139D01*
X15336031Y-14435139D02*
X15316983Y-14425616D01*
X15316983Y-14425616D02*
X15307459Y-14416092D01*
X15307459Y-14416092D02*
X15297935Y-14397044D01*
X15297935Y-14397044D02*
X15297935Y-14339901D01*
X15297935Y-14339901D02*
X15307459Y-14320854D01*
X15307459Y-14320854D02*
X15316983Y-14311330D01*
X15316983Y-14311330D02*
X15336031Y-14301806D01*
X15336031Y-14301806D02*
X15364602Y-14301806D01*
X15364602Y-14301806D02*
X15383650Y-14311330D01*
X15383650Y-14311330D02*
X15393173Y-14320854D01*
X15393173Y-14320854D02*
X15402697Y-14339901D01*
X15402697Y-14339901D02*
X15402697Y-14397044D01*
X15402697Y-14397044D02*
X15393173Y-14416092D01*
X15393173Y-14416092D02*
X15383650Y-14425616D01*
X15383650Y-14425616D02*
X15364602Y-14435139D01*
X15364602Y-14435139D02*
X15336031Y-14435139D01*
X15459840Y-14301806D02*
X15536031Y-14301806D01*
X15488412Y-14235139D02*
X15488412Y-14406568D01*
X15488412Y-14406568D02*
X15497935Y-14425616D01*
X15497935Y-14425616D02*
X15516983Y-14435139D01*
X15516983Y-14435139D02*
X15536031Y-14435139D01*
X15722697Y-14301806D02*
X15722697Y-14501806D01*
X15722697Y-14311330D02*
X15741745Y-14301806D01*
X15741745Y-14301806D02*
X15779840Y-14301806D01*
X15779840Y-14301806D02*
X15798888Y-14311330D01*
X15798888Y-14311330D02*
X15808412Y-14320854D01*
X15808412Y-14320854D02*
X15817935Y-14339901D01*
X15817935Y-14339901D02*
X15817935Y-14397044D01*
X15817935Y-14397044D02*
X15808412Y-14416092D01*
X15808412Y-14416092D02*
X15798888Y-14425616D01*
X15798888Y-14425616D02*
X15779840Y-14435139D01*
X15779840Y-14435139D02*
X15741745Y-14435139D01*
X15741745Y-14435139D02*
X15722697Y-14425616D01*
X15932221Y-14435139D02*
X15913173Y-14425616D01*
X15913173Y-14425616D02*
X15903650Y-14406568D01*
X15903650Y-14406568D02*
X15903650Y-14235139D01*
X16094126Y-14435139D02*
X16094126Y-14330378D01*
X16094126Y-14330378D02*
X16084602Y-14311330D01*
X16084602Y-14311330D02*
X16065554Y-14301806D01*
X16065554Y-14301806D02*
X16027459Y-14301806D01*
X16027459Y-14301806D02*
X16008412Y-14311330D01*
X16094126Y-14425616D02*
X16075078Y-14435139D01*
X16075078Y-14435139D02*
X16027459Y-14435139D01*
X16027459Y-14435139D02*
X16008412Y-14425616D01*
X16008412Y-14425616D02*
X15998888Y-14406568D01*
X15998888Y-14406568D02*
X15998888Y-14387520D01*
X15998888Y-14387520D02*
X16008412Y-14368473D01*
X16008412Y-14368473D02*
X16027459Y-14358949D01*
X16027459Y-14358949D02*
X16075078Y-14358949D01*
X16075078Y-14358949D02*
X16094126Y-14349425D01*
X16160793Y-14301806D02*
X16236983Y-14301806D01*
X16189364Y-14235139D02*
X16189364Y-14406568D01*
X16189364Y-14406568D02*
X16198888Y-14425616D01*
X16198888Y-14425616D02*
X16217935Y-14435139D01*
X16217935Y-14435139D02*
X16236983Y-14435139D01*
X16379840Y-14425616D02*
X16360793Y-14435139D01*
X16360793Y-14435139D02*
X16322697Y-14435139D01*
X16322697Y-14435139D02*
X16303650Y-14425616D01*
X16303650Y-14425616D02*
X16294126Y-14406568D01*
X16294126Y-14406568D02*
X16294126Y-14330378D01*
X16294126Y-14330378D02*
X16303650Y-14311330D01*
X16303650Y-14311330D02*
X16322697Y-14301806D01*
X16322697Y-14301806D02*
X16360793Y-14301806D01*
X16360793Y-14301806D02*
X16379840Y-14311330D01*
X16379840Y-14311330D02*
X16389364Y-14330378D01*
X16389364Y-14330378D02*
X16389364Y-14349425D01*
X16389364Y-14349425D02*
X16294126Y-14368473D01*
X16560793Y-14435139D02*
X16560793Y-14235139D01*
X16560793Y-14425616D02*
X16541745Y-14435139D01*
X16541745Y-14435139D02*
X16503650Y-14435139D01*
X16503650Y-14435139D02*
X16484602Y-14425616D01*
X16484602Y-14425616D02*
X16475078Y-14416092D01*
X16475078Y-14416092D02*
X16465554Y-14397044D01*
X16465554Y-14397044D02*
X16465554Y-14339901D01*
X16465554Y-14339901D02*
X16475078Y-14320854D01*
X16475078Y-14320854D02*
X16484602Y-14311330D01*
X16484602Y-14311330D02*
X16503650Y-14301806D01*
X16503650Y-14301806D02*
X16541745Y-14301806D01*
X16541745Y-14301806D02*
X16560793Y-14311330D01*
X16636983Y-14511330D02*
X16646507Y-14501806D01*
X16646507Y-14501806D02*
X16665554Y-14473235D01*
X16665554Y-14473235D02*
X16675078Y-14454187D01*
X16675078Y-14454187D02*
X16684602Y-14425616D01*
X16684602Y-14425616D02*
X16694126Y-14377997D01*
X16694126Y-14377997D02*
X16694126Y-14339901D01*
X16694126Y-14339901D02*
X16684602Y-14292282D01*
X16684602Y-14292282D02*
X16675078Y-14263711D01*
X16675078Y-14263711D02*
X16665554Y-14244663D01*
X16665554Y-14244663D02*
X16646507Y-14216092D01*
X16646507Y-14216092D02*
X16636983Y-14206568D01*
X9868647Y-14752375D02*
X9868647Y-14610952D01*
X9727224Y-14610952D01*
X9727224Y-14752375D01*
X9868647Y-14752375D01*
X10126507Y-14555139D02*
X10250316Y-14555139D01*
X10250316Y-14555139D02*
X10183649Y-14631330D01*
X10183649Y-14631330D02*
X10212221Y-14631330D01*
X10212221Y-14631330D02*
X10231269Y-14640854D01*
X10231269Y-14640854D02*
X10240792Y-14650378D01*
X10240792Y-14650378D02*
X10250316Y-14669425D01*
X10250316Y-14669425D02*
X10250316Y-14717044D01*
X10250316Y-14717044D02*
X10240792Y-14736092D01*
X10240792Y-14736092D02*
X10231269Y-14745616D01*
X10231269Y-14745616D02*
X10212221Y-14755139D01*
X10212221Y-14755139D02*
X10155078Y-14755139D01*
X10155078Y-14755139D02*
X10136030Y-14745616D01*
X10136030Y-14745616D02*
X10126507Y-14736092D01*
X10336030Y-14736092D02*
X10345554Y-14745616D01*
X10345554Y-14745616D02*
X10336030Y-14755139D01*
X10336030Y-14755139D02*
X10326507Y-14745616D01*
X10326507Y-14745616D02*
X10336030Y-14736092D01*
X10336030Y-14736092D02*
X10336030Y-14755139D01*
X10440792Y-14755139D02*
X10478888Y-14755139D01*
X10478888Y-14755139D02*
X10497935Y-14745616D01*
X10497935Y-14745616D02*
X10507459Y-14736092D01*
X10507459Y-14736092D02*
X10526507Y-14707520D01*
X10526507Y-14707520D02*
X10536030Y-14669425D01*
X10536030Y-14669425D02*
X10536030Y-14593235D01*
X10536030Y-14593235D02*
X10526507Y-14574187D01*
X10526507Y-14574187D02*
X10516983Y-14564663D01*
X10516983Y-14564663D02*
X10497935Y-14555139D01*
X10497935Y-14555139D02*
X10459840Y-14555139D01*
X10459840Y-14555139D02*
X10440792Y-14564663D01*
X10440792Y-14564663D02*
X10431269Y-14574187D01*
X10431269Y-14574187D02*
X10421745Y-14593235D01*
X10421745Y-14593235D02*
X10421745Y-14640854D01*
X10421745Y-14640854D02*
X10431269Y-14659901D01*
X10431269Y-14659901D02*
X10440792Y-14669425D01*
X10440792Y-14669425D02*
X10459840Y-14678949D01*
X10459840Y-14678949D02*
X10497935Y-14678949D01*
X10497935Y-14678949D02*
X10516983Y-14669425D01*
X10516983Y-14669425D02*
X10526507Y-14659901D01*
X10526507Y-14659901D02*
X10536030Y-14640854D01*
X10650316Y-14640854D02*
X10631269Y-14631330D01*
X10631269Y-14631330D02*
X10621745Y-14621806D01*
X10621745Y-14621806D02*
X10612221Y-14602759D01*
X10612221Y-14602759D02*
X10612221Y-14593235D01*
X10612221Y-14593235D02*
X10621745Y-14574187D01*
X10621745Y-14574187D02*
X10631269Y-14564663D01*
X10631269Y-14564663D02*
X10650316Y-14555139D01*
X10650316Y-14555139D02*
X10688411Y-14555139D01*
X10688411Y-14555139D02*
X10707459Y-14564663D01*
X10707459Y-14564663D02*
X10716983Y-14574187D01*
X10716983Y-14574187D02*
X10726507Y-14593235D01*
X10726507Y-14593235D02*
X10726507Y-14602759D01*
X10726507Y-14602759D02*
X10716983Y-14621806D01*
X10716983Y-14621806D02*
X10707459Y-14631330D01*
X10707459Y-14631330D02*
X10688411Y-14640854D01*
X10688411Y-14640854D02*
X10650316Y-14640854D01*
X10650316Y-14640854D02*
X10631269Y-14650378D01*
X10631269Y-14650378D02*
X10621745Y-14659901D01*
X10621745Y-14659901D02*
X10612221Y-14678949D01*
X10612221Y-14678949D02*
X10612221Y-14717044D01*
X10612221Y-14717044D02*
X10621745Y-14736092D01*
X10621745Y-14736092D02*
X10631269Y-14745616D01*
X10631269Y-14745616D02*
X10650316Y-14755139D01*
X10650316Y-14755139D02*
X10688411Y-14755139D01*
X10688411Y-14755139D02*
X10707459Y-14745616D01*
X10707459Y-14745616D02*
X10716983Y-14736092D01*
X10716983Y-14736092D02*
X10726507Y-14717044D01*
X10726507Y-14717044D02*
X10726507Y-14678949D01*
X10726507Y-14678949D02*
X10716983Y-14659901D01*
X10716983Y-14659901D02*
X10707459Y-14650378D01*
X10707459Y-14650378D02*
X10688411Y-14640854D01*
X10840792Y-14640854D02*
X10821745Y-14631330D01*
X10821745Y-14631330D02*
X10812221Y-14621806D01*
X10812221Y-14621806D02*
X10802697Y-14602759D01*
X10802697Y-14602759D02*
X10802697Y-14593235D01*
X10802697Y-14593235D02*
X10812221Y-14574187D01*
X10812221Y-14574187D02*
X10821745Y-14564663D01*
X10821745Y-14564663D02*
X10840792Y-14555139D01*
X10840792Y-14555139D02*
X10878888Y-14555139D01*
X10878888Y-14555139D02*
X10897935Y-14564663D01*
X10897935Y-14564663D02*
X10907459Y-14574187D01*
X10907459Y-14574187D02*
X10916983Y-14593235D01*
X10916983Y-14593235D02*
X10916983Y-14602759D01*
X10916983Y-14602759D02*
X10907459Y-14621806D01*
X10907459Y-14621806D02*
X10897935Y-14631330D01*
X10897935Y-14631330D02*
X10878888Y-14640854D01*
X10878888Y-14640854D02*
X10840792Y-14640854D01*
X10840792Y-14640854D02*
X10821745Y-14650378D01*
X10821745Y-14650378D02*
X10812221Y-14659901D01*
X10812221Y-14659901D02*
X10802697Y-14678949D01*
X10802697Y-14678949D02*
X10802697Y-14717044D01*
X10802697Y-14717044D02*
X10812221Y-14736092D01*
X10812221Y-14736092D02*
X10821745Y-14745616D01*
X10821745Y-14745616D02*
X10840792Y-14755139D01*
X10840792Y-14755139D02*
X10878888Y-14755139D01*
X10878888Y-14755139D02*
X10897935Y-14745616D01*
X10897935Y-14745616D02*
X10907459Y-14736092D01*
X10907459Y-14736092D02*
X10916983Y-14717044D01*
X10916983Y-14717044D02*
X10916983Y-14678949D01*
X10916983Y-14678949D02*
X10907459Y-14659901D01*
X10907459Y-14659901D02*
X10897935Y-14650378D01*
X10897935Y-14650378D02*
X10878888Y-14640854D01*
X11002697Y-14755139D02*
X11002697Y-14621806D01*
X11002697Y-14640854D02*
X11012221Y-14631330D01*
X11012221Y-14631330D02*
X11031269Y-14621806D01*
X11031269Y-14621806D02*
X11059840Y-14621806D01*
X11059840Y-14621806D02*
X11078888Y-14631330D01*
X11078888Y-14631330D02*
X11088411Y-14650378D01*
X11088411Y-14650378D02*
X11088411Y-14755139D01*
X11088411Y-14650378D02*
X11097935Y-14631330D01*
X11097935Y-14631330D02*
X11116983Y-14621806D01*
X11116983Y-14621806D02*
X11145554Y-14621806D01*
X11145554Y-14621806D02*
X11164602Y-14631330D01*
X11164602Y-14631330D02*
X11174126Y-14650378D01*
X11174126Y-14650378D02*
X11174126Y-14755139D01*
X11269364Y-14755139D02*
X11269364Y-14621806D01*
X11269364Y-14640854D02*
X11278888Y-14631330D01*
X11278888Y-14631330D02*
X11297935Y-14621806D01*
X11297935Y-14621806D02*
X11326507Y-14621806D01*
X11326507Y-14621806D02*
X11345554Y-14631330D01*
X11345554Y-14631330D02*
X11355078Y-14650378D01*
X11355078Y-14650378D02*
X11355078Y-14755139D01*
X11355078Y-14650378D02*
X11364602Y-14631330D01*
X11364602Y-14631330D02*
X11383649Y-14621806D01*
X11383649Y-14621806D02*
X11412221Y-14621806D01*
X11412221Y-14621806D02*
X11431269Y-14631330D01*
X11431269Y-14631330D02*
X11440792Y-14650378D01*
X11440792Y-14650378D02*
X11440792Y-14755139D01*
X11798888Y-14545616D02*
X11627459Y-14802759D01*
X12023649Y-14555139D02*
X12042697Y-14555139D01*
X12042697Y-14555139D02*
X12061745Y-14564663D01*
X12061745Y-14564663D02*
X12071269Y-14574187D01*
X12071269Y-14574187D02*
X12080792Y-14593235D01*
X12080792Y-14593235D02*
X12090316Y-14631330D01*
X12090316Y-14631330D02*
X12090316Y-14678949D01*
X12090316Y-14678949D02*
X12080792Y-14717044D01*
X12080792Y-14717044D02*
X12071269Y-14736092D01*
X12071269Y-14736092D02*
X12061745Y-14745616D01*
X12061745Y-14745616D02*
X12042697Y-14755139D01*
X12042697Y-14755139D02*
X12023649Y-14755139D01*
X12023649Y-14755139D02*
X12004602Y-14745616D01*
X12004602Y-14745616D02*
X11995078Y-14736092D01*
X11995078Y-14736092D02*
X11985554Y-14717044D01*
X11985554Y-14717044D02*
X11976030Y-14678949D01*
X11976030Y-14678949D02*
X11976030Y-14631330D01*
X11976030Y-14631330D02*
X11985554Y-14593235D01*
X11985554Y-14593235D02*
X11995078Y-14574187D01*
X11995078Y-14574187D02*
X12004602Y-14564663D01*
X12004602Y-14564663D02*
X12023649Y-14555139D01*
X12176030Y-14736092D02*
X12185554Y-14745616D01*
X12185554Y-14745616D02*
X12176030Y-14755139D01*
X12176030Y-14755139D02*
X12166507Y-14745616D01*
X12166507Y-14745616D02*
X12176030Y-14736092D01*
X12176030Y-14736092D02*
X12176030Y-14755139D01*
X12376030Y-14755139D02*
X12261745Y-14755139D01*
X12318888Y-14755139D02*
X12318888Y-14555139D01*
X12318888Y-14555139D02*
X12299840Y-14583711D01*
X12299840Y-14583711D02*
X12280792Y-14602759D01*
X12280792Y-14602759D02*
X12261745Y-14612282D01*
X12556983Y-14555139D02*
X12461745Y-14555139D01*
X12461745Y-14555139D02*
X12452221Y-14650378D01*
X12452221Y-14650378D02*
X12461745Y-14640854D01*
X12461745Y-14640854D02*
X12480792Y-14631330D01*
X12480792Y-14631330D02*
X12528411Y-14631330D01*
X12528411Y-14631330D02*
X12547459Y-14640854D01*
X12547459Y-14640854D02*
X12556983Y-14650378D01*
X12556983Y-14650378D02*
X12566507Y-14669425D01*
X12566507Y-14669425D02*
X12566507Y-14717044D01*
X12566507Y-14717044D02*
X12556983Y-14736092D01*
X12556983Y-14736092D02*
X12547459Y-14745616D01*
X12547459Y-14745616D02*
X12528411Y-14755139D01*
X12528411Y-14755139D02*
X12480792Y-14755139D01*
X12480792Y-14755139D02*
X12461745Y-14745616D01*
X12461745Y-14745616D02*
X12452221Y-14736092D01*
X12633173Y-14555139D02*
X12766507Y-14555139D01*
X12766507Y-14555139D02*
X12680792Y-14755139D01*
X12880792Y-14555139D02*
X12899840Y-14555139D01*
X12899840Y-14555139D02*
X12918888Y-14564663D01*
X12918888Y-14564663D02*
X12928411Y-14574187D01*
X12928411Y-14574187D02*
X12937935Y-14593235D01*
X12937935Y-14593235D02*
X12947459Y-14631330D01*
X12947459Y-14631330D02*
X12947459Y-14678949D01*
X12947459Y-14678949D02*
X12937935Y-14717044D01*
X12937935Y-14717044D02*
X12928411Y-14736092D01*
X12928411Y-14736092D02*
X12918888Y-14745616D01*
X12918888Y-14745616D02*
X12899840Y-14755139D01*
X12899840Y-14755139D02*
X12880792Y-14755139D01*
X12880792Y-14755139D02*
X12861745Y-14745616D01*
X12861745Y-14745616D02*
X12852221Y-14736092D01*
X12852221Y-14736092D02*
X12842697Y-14717044D01*
X12842697Y-14717044D02*
X12833173Y-14678949D01*
X12833173Y-14678949D02*
X12833173Y-14631330D01*
X12833173Y-14631330D02*
X12842697Y-14593235D01*
X12842697Y-14593235D02*
X12852221Y-14574187D01*
X12852221Y-14574187D02*
X12861745Y-14564663D01*
X12861745Y-14564663D02*
X12880792Y-14555139D01*
X13023650Y-14555139D02*
X13023650Y-14593235D01*
X13099840Y-14555139D02*
X13099840Y-14593235D01*
X13362697Y-14831330D02*
X13353173Y-14821806D01*
X13353173Y-14821806D02*
X13334126Y-14793235D01*
X13334126Y-14793235D02*
X13324602Y-14774187D01*
X13324602Y-14774187D02*
X13315078Y-14745616D01*
X13315078Y-14745616D02*
X13305554Y-14697997D01*
X13305554Y-14697997D02*
X13305554Y-14659901D01*
X13305554Y-14659901D02*
X13315078Y-14612282D01*
X13315078Y-14612282D02*
X13324602Y-14583711D01*
X13324602Y-14583711D02*
X13334126Y-14564663D01*
X13334126Y-14564663D02*
X13353173Y-14536092D01*
X13353173Y-14536092D02*
X13362697Y-14526568D01*
X13543650Y-14755139D02*
X13429364Y-14755139D01*
X13486507Y-14755139D02*
X13486507Y-14555139D01*
X13486507Y-14555139D02*
X13467459Y-14583711D01*
X13467459Y-14583711D02*
X13448411Y-14602759D01*
X13448411Y-14602759D02*
X13429364Y-14612282D01*
X13667459Y-14555139D02*
X13686507Y-14555139D01*
X13686507Y-14555139D02*
X13705554Y-14564663D01*
X13705554Y-14564663D02*
X13715078Y-14574187D01*
X13715078Y-14574187D02*
X13724602Y-14593235D01*
X13724602Y-14593235D02*
X13734126Y-14631330D01*
X13734126Y-14631330D02*
X13734126Y-14678949D01*
X13734126Y-14678949D02*
X13724602Y-14717044D01*
X13724602Y-14717044D02*
X13715078Y-14736092D01*
X13715078Y-14736092D02*
X13705554Y-14745616D01*
X13705554Y-14745616D02*
X13686507Y-14755139D01*
X13686507Y-14755139D02*
X13667459Y-14755139D01*
X13667459Y-14755139D02*
X13648411Y-14745616D01*
X13648411Y-14745616D02*
X13638888Y-14736092D01*
X13638888Y-14736092D02*
X13629364Y-14717044D01*
X13629364Y-14717044D02*
X13619840Y-14678949D01*
X13619840Y-14678949D02*
X13619840Y-14631330D01*
X13619840Y-14631330D02*
X13629364Y-14593235D01*
X13629364Y-14593235D02*
X13638888Y-14574187D01*
X13638888Y-14574187D02*
X13648411Y-14564663D01*
X13648411Y-14564663D02*
X13667459Y-14555139D01*
X13939840Y-14755139D02*
X13939840Y-14555139D01*
X14025554Y-14755139D02*
X14025554Y-14650378D01*
X14025554Y-14650378D02*
X14016031Y-14631330D01*
X14016031Y-14631330D02*
X13996983Y-14621806D01*
X13996983Y-14621806D02*
X13968411Y-14621806D01*
X13968411Y-14621806D02*
X13949364Y-14631330D01*
X13949364Y-14631330D02*
X13939840Y-14640854D01*
X14149364Y-14755139D02*
X14130316Y-14745616D01*
X14130316Y-14745616D02*
X14120792Y-14736092D01*
X14120792Y-14736092D02*
X14111269Y-14717044D01*
X14111269Y-14717044D02*
X14111269Y-14659901D01*
X14111269Y-14659901D02*
X14120792Y-14640854D01*
X14120792Y-14640854D02*
X14130316Y-14631330D01*
X14130316Y-14631330D02*
X14149364Y-14621806D01*
X14149364Y-14621806D02*
X14177935Y-14621806D01*
X14177935Y-14621806D02*
X14196983Y-14631330D01*
X14196983Y-14631330D02*
X14206507Y-14640854D01*
X14206507Y-14640854D02*
X14216031Y-14659901D01*
X14216031Y-14659901D02*
X14216031Y-14717044D01*
X14216031Y-14717044D02*
X14206507Y-14736092D01*
X14206507Y-14736092D02*
X14196983Y-14745616D01*
X14196983Y-14745616D02*
X14177935Y-14755139D01*
X14177935Y-14755139D02*
X14149364Y-14755139D01*
X14330316Y-14755139D02*
X14311269Y-14745616D01*
X14311269Y-14745616D02*
X14301745Y-14726568D01*
X14301745Y-14726568D02*
X14301745Y-14555139D01*
X14482697Y-14745616D02*
X14463650Y-14755139D01*
X14463650Y-14755139D02*
X14425554Y-14755139D01*
X14425554Y-14755139D02*
X14406507Y-14745616D01*
X14406507Y-14745616D02*
X14396983Y-14726568D01*
X14396983Y-14726568D02*
X14396983Y-14650378D01*
X14396983Y-14650378D02*
X14406507Y-14631330D01*
X14406507Y-14631330D02*
X14425554Y-14621806D01*
X14425554Y-14621806D02*
X14463650Y-14621806D01*
X14463650Y-14621806D02*
X14482697Y-14631330D01*
X14482697Y-14631330D02*
X14492221Y-14650378D01*
X14492221Y-14650378D02*
X14492221Y-14669425D01*
X14492221Y-14669425D02*
X14396983Y-14688473D01*
X14568412Y-14745616D02*
X14587459Y-14755139D01*
X14587459Y-14755139D02*
X14625554Y-14755139D01*
X14625554Y-14755139D02*
X14644602Y-14745616D01*
X14644602Y-14745616D02*
X14654126Y-14726568D01*
X14654126Y-14726568D02*
X14654126Y-14717044D01*
X14654126Y-14717044D02*
X14644602Y-14697997D01*
X14644602Y-14697997D02*
X14625554Y-14688473D01*
X14625554Y-14688473D02*
X14596983Y-14688473D01*
X14596983Y-14688473D02*
X14577935Y-14678949D01*
X14577935Y-14678949D02*
X14568412Y-14659901D01*
X14568412Y-14659901D02*
X14568412Y-14650378D01*
X14568412Y-14650378D02*
X14577935Y-14631330D01*
X14577935Y-14631330D02*
X14596983Y-14621806D01*
X14596983Y-14621806D02*
X14625554Y-14621806D01*
X14625554Y-14621806D02*
X14644602Y-14631330D01*
X14720793Y-14831330D02*
X14730316Y-14821806D01*
X14730316Y-14821806D02*
X14749364Y-14793235D01*
X14749364Y-14793235D02*
X14758888Y-14774187D01*
X14758888Y-14774187D02*
X14768412Y-14745616D01*
X14768412Y-14745616D02*
X14777935Y-14697997D01*
X14777935Y-14697997D02*
X14777935Y-14659901D01*
X14777935Y-14659901D02*
X14768412Y-14612282D01*
X14768412Y-14612282D02*
X14758888Y-14583711D01*
X14758888Y-14583711D02*
X14749364Y-14564663D01*
X14749364Y-14564663D02*
X14730316Y-14536092D01*
X14730316Y-14536092D02*
X14720793Y-14526568D01*
X15050316Y-14831330D02*
X15040792Y-14821806D01*
X15040792Y-14821806D02*
X15021745Y-14793235D01*
X15021745Y-14793235D02*
X15012221Y-14774187D01*
X15012221Y-14774187D02*
X15002697Y-14745616D01*
X15002697Y-14745616D02*
X14993173Y-14697997D01*
X14993173Y-14697997D02*
X14993173Y-14659901D01*
X14993173Y-14659901D02*
X15002697Y-14612282D01*
X15002697Y-14612282D02*
X15012221Y-14583711D01*
X15012221Y-14583711D02*
X15021745Y-14564663D01*
X15021745Y-14564663D02*
X15040792Y-14536092D01*
X15040792Y-14536092D02*
X15050316Y-14526568D01*
X15126507Y-14621806D02*
X15126507Y-14755139D01*
X15126507Y-14640854D02*
X15136031Y-14631330D01*
X15136031Y-14631330D02*
X15155078Y-14621806D01*
X15155078Y-14621806D02*
X15183650Y-14621806D01*
X15183650Y-14621806D02*
X15202697Y-14631330D01*
X15202697Y-14631330D02*
X15212221Y-14650378D01*
X15212221Y-14650378D02*
X15212221Y-14755139D01*
X15336031Y-14755139D02*
X15316983Y-14745616D01*
X15316983Y-14745616D02*
X15307459Y-14736092D01*
X15307459Y-14736092D02*
X15297935Y-14717044D01*
X15297935Y-14717044D02*
X15297935Y-14659901D01*
X15297935Y-14659901D02*
X15307459Y-14640854D01*
X15307459Y-14640854D02*
X15316983Y-14631330D01*
X15316983Y-14631330D02*
X15336031Y-14621806D01*
X15336031Y-14621806D02*
X15364602Y-14621806D01*
X15364602Y-14621806D02*
X15383650Y-14631330D01*
X15383650Y-14631330D02*
X15393173Y-14640854D01*
X15393173Y-14640854D02*
X15402697Y-14659901D01*
X15402697Y-14659901D02*
X15402697Y-14717044D01*
X15402697Y-14717044D02*
X15393173Y-14736092D01*
X15393173Y-14736092D02*
X15383650Y-14745616D01*
X15383650Y-14745616D02*
X15364602Y-14755139D01*
X15364602Y-14755139D02*
X15336031Y-14755139D01*
X15459840Y-14621806D02*
X15536031Y-14621806D01*
X15488412Y-14555139D02*
X15488412Y-14726568D01*
X15488412Y-14726568D02*
X15497935Y-14745616D01*
X15497935Y-14745616D02*
X15516983Y-14755139D01*
X15516983Y-14755139D02*
X15536031Y-14755139D01*
X15722697Y-14621806D02*
X15722697Y-14821806D01*
X15722697Y-14631330D02*
X15741745Y-14621806D01*
X15741745Y-14621806D02*
X15779840Y-14621806D01*
X15779840Y-14621806D02*
X15798888Y-14631330D01*
X15798888Y-14631330D02*
X15808412Y-14640854D01*
X15808412Y-14640854D02*
X15817935Y-14659901D01*
X15817935Y-14659901D02*
X15817935Y-14717044D01*
X15817935Y-14717044D02*
X15808412Y-14736092D01*
X15808412Y-14736092D02*
X15798888Y-14745616D01*
X15798888Y-14745616D02*
X15779840Y-14755139D01*
X15779840Y-14755139D02*
X15741745Y-14755139D01*
X15741745Y-14755139D02*
X15722697Y-14745616D01*
X15932221Y-14755139D02*
X15913173Y-14745616D01*
X15913173Y-14745616D02*
X15903650Y-14726568D01*
X15903650Y-14726568D02*
X15903650Y-14555139D01*
X16094126Y-14755139D02*
X16094126Y-14650378D01*
X16094126Y-14650378D02*
X16084602Y-14631330D01*
X16084602Y-14631330D02*
X16065554Y-14621806D01*
X16065554Y-14621806D02*
X16027459Y-14621806D01*
X16027459Y-14621806D02*
X16008412Y-14631330D01*
X16094126Y-14745616D02*
X16075078Y-14755139D01*
X16075078Y-14755139D02*
X16027459Y-14755139D01*
X16027459Y-14755139D02*
X16008412Y-14745616D01*
X16008412Y-14745616D02*
X15998888Y-14726568D01*
X15998888Y-14726568D02*
X15998888Y-14707520D01*
X15998888Y-14707520D02*
X16008412Y-14688473D01*
X16008412Y-14688473D02*
X16027459Y-14678949D01*
X16027459Y-14678949D02*
X16075078Y-14678949D01*
X16075078Y-14678949D02*
X16094126Y-14669425D01*
X16160793Y-14621806D02*
X16236983Y-14621806D01*
X16189364Y-14555139D02*
X16189364Y-14726568D01*
X16189364Y-14726568D02*
X16198888Y-14745616D01*
X16198888Y-14745616D02*
X16217935Y-14755139D01*
X16217935Y-14755139D02*
X16236983Y-14755139D01*
X16379840Y-14745616D02*
X16360793Y-14755139D01*
X16360793Y-14755139D02*
X16322697Y-14755139D01*
X16322697Y-14755139D02*
X16303650Y-14745616D01*
X16303650Y-14745616D02*
X16294126Y-14726568D01*
X16294126Y-14726568D02*
X16294126Y-14650378D01*
X16294126Y-14650378D02*
X16303650Y-14631330D01*
X16303650Y-14631330D02*
X16322697Y-14621806D01*
X16322697Y-14621806D02*
X16360793Y-14621806D01*
X16360793Y-14621806D02*
X16379840Y-14631330D01*
X16379840Y-14631330D02*
X16389364Y-14650378D01*
X16389364Y-14650378D02*
X16389364Y-14669425D01*
X16389364Y-14669425D02*
X16294126Y-14688473D01*
X16560793Y-14755139D02*
X16560793Y-14555139D01*
X16560793Y-14745616D02*
X16541745Y-14755139D01*
X16541745Y-14755139D02*
X16503650Y-14755139D01*
X16503650Y-14755139D02*
X16484602Y-14745616D01*
X16484602Y-14745616D02*
X16475078Y-14736092D01*
X16475078Y-14736092D02*
X16465554Y-14717044D01*
X16465554Y-14717044D02*
X16465554Y-14659901D01*
X16465554Y-14659901D02*
X16475078Y-14640854D01*
X16475078Y-14640854D02*
X16484602Y-14631330D01*
X16484602Y-14631330D02*
X16503650Y-14621806D01*
X16503650Y-14621806D02*
X16541745Y-14621806D01*
X16541745Y-14621806D02*
X16560793Y-14631330D01*
X16636983Y-14831330D02*
X16646507Y-14821806D01*
X16646507Y-14821806D02*
X16665554Y-14793235D01*
X16665554Y-14793235D02*
X16675078Y-14774187D01*
X16675078Y-14774187D02*
X16684602Y-14745616D01*
X16684602Y-14745616D02*
X16694126Y-14697997D01*
X16694126Y-14697997D02*
X16694126Y-14659901D01*
X16694126Y-14659901D02*
X16684602Y-14612282D01*
X16684602Y-14612282D02*
X16675078Y-14583711D01*
X16675078Y-14583711D02*
X16665554Y-14564663D01*
X16665554Y-14564663D02*
X16646507Y-14536092D01*
X16646507Y-14536092D02*
X16636983Y-14526568D01*
M02*
