%TF.GenerationSoftware,KiCad,Pcbnew,(7.0.0)*%
%TF.CreationDate,2023-03-23T02:06:17-06:00*%
%TF.ProjectId,PicoLX,5069636f-4c58-42e6-9b69-6361645f7063,rev?*%
%TF.SameCoordinates,Original*%
%TF.FileFunction,Soldermask,Top*%
%TF.FilePolarity,Negative*%
%FSLAX46Y46*%
G04 Gerber Fmt 4.6, Leading zero omitted, Abs format (unit mm)*
G04 Created by KiCad (PCBNEW (7.0.0)) date 2023-03-23 02:06:17*
%MOMM*%
%LPD*%
G01*
G04 APERTURE LIST*
G04 Aperture macros list*
%AMRoundRect*
0 Rectangle with rounded corners*
0 $1 Rounding radius*
0 $2 $3 $4 $5 $6 $7 $8 $9 X,Y pos of 4 corners*
0 Add a 4 corners polygon primitive as box body*
4,1,4,$2,$3,$4,$5,$6,$7,$8,$9,$2,$3,0*
0 Add four circle primitives for the rounded corners*
1,1,$1+$1,$2,$3*
1,1,$1+$1,$4,$5*
1,1,$1+$1,$6,$7*
1,1,$1+$1,$8,$9*
0 Add four rect primitives between the rounded corners*
20,1,$1+$1,$2,$3,$4,$5,0*
20,1,$1+$1,$4,$5,$6,$7,0*
20,1,$1+$1,$6,$7,$8,$9,0*
20,1,$1+$1,$8,$9,$2,$3,0*%
%AMFreePoly0*
4,1,18,-0.410000,0.265000,0.000000,0.675000,0.328000,0.675000,0.359380,0.668758,0.385983,0.650983,0.403758,0.624380,0.410000,0.593000,0.410000,-0.593000,0.403758,-0.624380,0.385983,-0.650983,0.359380,-0.668758,0.328000,-0.675000,-0.328000,-0.675000,-0.359380,-0.668758,-0.385983,-0.650983,-0.403758,-0.624380,-0.410000,-0.593000,-0.410000,0.265000,-0.410000,0.265000,$1*%
G04 Aperture macros list end*
%ADD10C,2.100000*%
%ADD11C,1.750000*%
%ADD12FreePoly0,315.000000*%
%ADD13RoundRect,0.082000X-0.651245X-0.187383X-0.187383X-0.651245X0.651245X0.187383X0.187383X0.651245X0*%
%ADD14FreePoly0,225.000000*%
%ADD15RoundRect,0.082000X-0.187383X0.651245X-0.651245X0.187383X0.187383X-0.651245X0.651245X-0.187383X0*%
%ADD16FreePoly0,135.000000*%
%ADD17RoundRect,0.082000X0.651245X0.187383X0.187383X0.651245X-0.651245X-0.187383X-0.187383X-0.651245X0*%
%ADD18RoundRect,0.082000X0.593000X-0.328000X0.593000X0.328000X-0.593000X0.328000X-0.593000X-0.328000X0*%
%ADD19FreePoly0,90.000000*%
%ADD20RoundRect,0.082000X0.187383X-0.651245X0.651245X-0.187383X-0.187383X0.651245X-0.651245X0.187383X0*%
%ADD21FreePoly0,45.000000*%
%ADD22FreePoly0,270.000000*%
%ADD23RoundRect,0.082000X-0.593000X0.328000X-0.593000X-0.328000X0.593000X-0.328000X0.593000X0.328000X0*%
%ADD24C,1.701800*%
%ADD25C,3.000000*%
%ADD26C,3.987800*%
%ADD27O,1.000000X2.100000*%
%ADD28O,1.000000X1.800000*%
%ADD29C,0.650000*%
G04 APERTURE END LIST*
D10*
%TO.C,SW2*%
X223037501Y-98100000D03*
X223037501Y-105110000D03*
D11*
X225527501Y-99350000D03*
X225527501Y-103850000D03*
%TD*%
%TO.C,SW3*%
X225587500Y-93175000D03*
X225587500Y-88675000D03*
D10*
X223097500Y-94435000D03*
X223097500Y-87425000D03*
%TD*%
D12*
%TO.C,LED2*%
X104589339Y-62689339D03*
D13*
X105650000Y-63750000D03*
X100735608Y-66543072D03*
X101796268Y-67603732D03*
%TD*%
D14*
%TO.C,LED6*%
X217957195Y-66571535D03*
D15*
X216896536Y-67632196D03*
X214103464Y-62717804D03*
X213042804Y-63778464D03*
%TD*%
D16*
%TO.C,LED5*%
X214103463Y-129907195D03*
D17*
X213042804Y-128846536D03*
X217957196Y-126053464D03*
X216896536Y-124992804D03*
%TD*%
D18*
%TO.C,LED4*%
X162050000Y-127450000D03*
X162050000Y-128950000D03*
X156600000Y-127450000D03*
D19*
X156599999Y-128949999D03*
%TD*%
D20*
%TO.C,LED3*%
X105657196Y-128846536D03*
X104596536Y-129907196D03*
X101803464Y-124992804D03*
D21*
X100742803Y-126053463D03*
%TD*%
D22*
%TO.C,LED1*%
X162099999Y-63699999D03*
D23*
X162100000Y-65200000D03*
X156650000Y-63700000D03*
X156650000Y-65200000D03*
%TD*%
D24*
%TO.C,MX9*%
X214441152Y-77263634D03*
D25*
X211901152Y-72183634D03*
D26*
X209361152Y-77263634D03*
D25*
X205551152Y-74723634D03*
D24*
X204281152Y-77263634D03*
%TD*%
%TO.C,MX1*%
X114421752Y-115368834D03*
D25*
X111881752Y-110288834D03*
D26*
X109341752Y-115368834D03*
D25*
X105531752Y-112828834D03*
D24*
X104261752Y-115368834D03*
%TD*%
%TO.C,MX6*%
X176296152Y-115368834D03*
D25*
X173756152Y-110288834D03*
D26*
X171216152Y-115368834D03*
D25*
X167406152Y-112828834D03*
D24*
X166136152Y-115368834D03*
%TD*%
%TO.C,MX5*%
X152496352Y-115368834D03*
D25*
X149956352Y-110288834D03*
D26*
X147416352Y-115368834D03*
D25*
X143606352Y-112828834D03*
D24*
X142336352Y-115368834D03*
%TD*%
%TO.C,MX7*%
X176331152Y-77273634D03*
D25*
X173791152Y-72193634D03*
D26*
X171251152Y-77273634D03*
D25*
X167441152Y-74733634D03*
D24*
X166171152Y-77273634D03*
%TD*%
%TO.C,MX3*%
X133471752Y-96318834D03*
D25*
X130931752Y-91238834D03*
D26*
X128391752Y-96318834D03*
D25*
X124581752Y-93778834D03*
D24*
X123311752Y-96318834D03*
%TD*%
%TO.C,MX10*%
X204271152Y-115373634D03*
D25*
X205541152Y-112833634D03*
D26*
X209351152Y-115373634D03*
D25*
X211891152Y-110293634D03*
D24*
X214431152Y-115373634D03*
%TD*%
%TO.C,MX4*%
X152496352Y-77294234D03*
D25*
X149956352Y-72214234D03*
D26*
X147416352Y-77294234D03*
D25*
X143606352Y-74754234D03*
D24*
X142336352Y-77294234D03*
%TD*%
%TO.C,MX2*%
X104261752Y-77268834D03*
D25*
X105531752Y-74728834D03*
D26*
X109341752Y-77268834D03*
D25*
X111881752Y-72188834D03*
D24*
X114421752Y-77268834D03*
%TD*%
%TO.C,MX8*%
X195381152Y-96323634D03*
D25*
X192841152Y-91243634D03*
D26*
X190301152Y-96323634D03*
D25*
X186491152Y-93783634D03*
D24*
X185221152Y-96323634D03*
%TD*%
D27*
%TO.C,J1*%
X194706803Y-66930535D03*
D28*
X194706803Y-62730535D03*
D27*
X186066803Y-66930535D03*
D28*
X186066803Y-62730535D03*
D29*
X193276804Y-66410536D03*
X187496804Y-66410536D03*
%TD*%
M02*
