%TF.GenerationSoftware,KiCad,Pcbnew,(7.0.0)*%
%TF.CreationDate,2023-03-23T02:06:17-06:00*%
%TF.ProjectId,PicoLX,5069636f-4c58-42e6-9b69-6361645f7063,rev?*%
%TF.SameCoordinates,Original*%
%TF.FileFunction,Legend,Top*%
%TF.FilePolarity,Positive*%
%FSLAX46Y46*%
G04 Gerber Fmt 4.6, Leading zero omitted, Abs format (unit mm)*
G04 Created by KiCad (PCBNEW (7.0.0)) date 2023-03-23 02:06:17*
%MOMM*%
%LPD*%
G01*
G04 APERTURE LIST*
G04 Aperture macros list*
%AMRoundRect*
0 Rectangle with rounded corners*
0 $1 Rounding radius*
0 $2 $3 $4 $5 $6 $7 $8 $9 X,Y pos of 4 corners*
0 Add a 4 corners polygon primitive as box body*
4,1,4,$2,$3,$4,$5,$6,$7,$8,$9,$2,$3,0*
0 Add four circle primitives for the rounded corners*
1,1,$1+$1,$2,$3*
1,1,$1+$1,$4,$5*
1,1,$1+$1,$6,$7*
1,1,$1+$1,$8,$9*
0 Add four rect primitives between the rounded corners*
20,1,$1+$1,$2,$3,$4,$5,0*
20,1,$1+$1,$4,$5,$6,$7,0*
20,1,$1+$1,$6,$7,$8,$9,0*
20,1,$1+$1,$8,$9,$2,$3,0*%
%AMFreePoly0*
4,1,18,-0.410000,0.265000,0.000000,0.675000,0.328000,0.675000,0.359380,0.668758,0.385983,0.650983,0.403758,0.624380,0.410000,0.593000,0.410000,-0.593000,0.403758,-0.624380,0.385983,-0.650983,0.359380,-0.668758,0.328000,-0.675000,-0.328000,-0.675000,-0.359380,-0.668758,-0.385983,-0.650983,-0.403758,-0.624380,-0.410000,-0.593000,-0.410000,0.265000,-0.410000,0.265000,$1*%
G04 Aperture macros list end*
%ADD10C,0.150000*%
%ADD11C,0.120000*%
%ADD12C,2.100000*%
%ADD13C,1.750000*%
%ADD14FreePoly0,315.000000*%
%ADD15RoundRect,0.082000X-0.651245X-0.187383X-0.187383X-0.651245X0.651245X0.187383X0.187383X0.651245X0*%
%ADD16FreePoly0,225.000000*%
%ADD17RoundRect,0.082000X-0.187383X0.651245X-0.651245X0.187383X0.187383X-0.651245X0.651245X-0.187383X0*%
%ADD18FreePoly0,135.000000*%
%ADD19RoundRect,0.082000X0.651245X0.187383X0.187383X0.651245X-0.651245X-0.187383X-0.187383X-0.651245X0*%
%ADD20RoundRect,0.082000X0.593000X-0.328000X0.593000X0.328000X-0.593000X0.328000X-0.593000X-0.328000X0*%
%ADD21FreePoly0,90.000000*%
%ADD22RoundRect,0.082000X0.187383X-0.651245X0.651245X-0.187383X-0.187383X0.651245X-0.651245X0.187383X0*%
%ADD23FreePoly0,45.000000*%
%ADD24FreePoly0,270.000000*%
%ADD25RoundRect,0.082000X-0.593000X0.328000X-0.593000X-0.328000X0.593000X-0.328000X0.593000X0.328000X0*%
%ADD26C,1.701800*%
%ADD27C,3.000000*%
%ADD28C,3.987800*%
%ADD29O,1.000000X2.100000*%
%ADD30O,1.000000X1.800000*%
%ADD31C,0.650000*%
G04 APERTURE END LIST*
D10*
%TO.C,LED2*%
X100941491Y-64424063D02*
X100604774Y-64760781D01*
X100604774Y-64760781D02*
X99897667Y-64053674D01*
X100806804Y-63817971D02*
X101042507Y-63582269D01*
X101513911Y-63851643D02*
X101177194Y-64188361D01*
X101177194Y-64188361D02*
X100470087Y-63481254D01*
X100470087Y-63481254D02*
X100806804Y-63144536D01*
X101816957Y-63548597D02*
X101109850Y-62841490D01*
X101109850Y-62841490D02*
X101278209Y-62673132D01*
X101278209Y-62673132D02*
X101412896Y-62605788D01*
X101412896Y-62605788D02*
X101547583Y-62605788D01*
X101547583Y-62605788D02*
X101648598Y-62639460D01*
X101648598Y-62639460D02*
X101816957Y-62740475D01*
X101816957Y-62740475D02*
X101917972Y-62841490D01*
X101917972Y-62841490D02*
X102018987Y-63009849D01*
X102018987Y-63009849D02*
X102052659Y-63110864D01*
X102052659Y-63110864D02*
X102052659Y-63245551D01*
X102052659Y-63245551D02*
X101985316Y-63380238D01*
X101985316Y-63380238D02*
X101816957Y-63548597D01*
X101850629Y-62235399D02*
X101850629Y-62168055D01*
X101850629Y-62168055D02*
X101884300Y-62067040D01*
X101884300Y-62067040D02*
X102052659Y-61898681D01*
X102052659Y-61898681D02*
X102153674Y-61865010D01*
X102153674Y-61865010D02*
X102221018Y-61865010D01*
X102221018Y-61865010D02*
X102322033Y-61898681D01*
X102322033Y-61898681D02*
X102389377Y-61966025D01*
X102389377Y-61966025D02*
X102456720Y-62100712D01*
X102456720Y-62100712D02*
X102456720Y-62908834D01*
X102456720Y-62908834D02*
X102894453Y-62471101D01*
%TO.C,LED6*%
X216169736Y-62917691D02*
X215833018Y-62580974D01*
X215833018Y-62580974D02*
X216540125Y-61873867D01*
X216775828Y-62783004D02*
X217011530Y-63018707D01*
X216742156Y-63490111D02*
X216405438Y-63153394D01*
X216405438Y-63153394D02*
X217112545Y-62446287D01*
X217112545Y-62446287D02*
X217449263Y-62783004D01*
X217045202Y-63793157D02*
X217752309Y-63086050D01*
X217752309Y-63086050D02*
X217920667Y-63254409D01*
X217920667Y-63254409D02*
X217988011Y-63389096D01*
X217988011Y-63389096D02*
X217988011Y-63523783D01*
X217988011Y-63523783D02*
X217954339Y-63624798D01*
X217954339Y-63624798D02*
X217853324Y-63793157D01*
X217853324Y-63793157D02*
X217752309Y-63894172D01*
X217752309Y-63894172D02*
X217583950Y-63995187D01*
X217583950Y-63995187D02*
X217482935Y-64028859D01*
X217482935Y-64028859D02*
X217348248Y-64028859D01*
X217348248Y-64028859D02*
X217213561Y-63961516D01*
X217213561Y-63961516D02*
X217045202Y-63793157D01*
X218762461Y-64096203D02*
X218627774Y-63961516D01*
X218627774Y-63961516D02*
X218526759Y-63927844D01*
X218526759Y-63927844D02*
X218459415Y-63927844D01*
X218459415Y-63927844D02*
X218291057Y-63961516D01*
X218291057Y-63961516D02*
X218122698Y-64062531D01*
X218122698Y-64062531D02*
X217853324Y-64331905D01*
X217853324Y-64331905D02*
X217819652Y-64432920D01*
X217819652Y-64432920D02*
X217819652Y-64500264D01*
X217819652Y-64500264D02*
X217853324Y-64601279D01*
X217853324Y-64601279D02*
X217988011Y-64735966D01*
X217988011Y-64735966D02*
X218089026Y-64769638D01*
X218089026Y-64769638D02*
X218156370Y-64769638D01*
X218156370Y-64769638D02*
X218257385Y-64735966D01*
X218257385Y-64735966D02*
X218425744Y-64567607D01*
X218425744Y-64567607D02*
X218459415Y-64466592D01*
X218459415Y-64466592D02*
X218459415Y-64399248D01*
X218459415Y-64399248D02*
X218425744Y-64298233D01*
X218425744Y-64298233D02*
X218291057Y-64163546D01*
X218291057Y-64163546D02*
X218190041Y-64129874D01*
X218190041Y-64129874D02*
X218122698Y-64129874D01*
X218122698Y-64129874D02*
X218021683Y-64163546D01*
%TO.C,LED5*%
X216892491Y-130438663D02*
X216555774Y-130775381D01*
X216555774Y-130775381D02*
X215848667Y-130068274D01*
X216757804Y-129832571D02*
X216993507Y-129596869D01*
X217464911Y-129866243D02*
X217128194Y-130202961D01*
X217128194Y-130202961D02*
X216421087Y-129495854D01*
X216421087Y-129495854D02*
X216757804Y-129159136D01*
X217767957Y-129563197D02*
X217060850Y-128856090D01*
X217060850Y-128856090D02*
X217229209Y-128687732D01*
X217229209Y-128687732D02*
X217363896Y-128620388D01*
X217363896Y-128620388D02*
X217498583Y-128620388D01*
X217498583Y-128620388D02*
X217599598Y-128654060D01*
X217599598Y-128654060D02*
X217767957Y-128755075D01*
X217767957Y-128755075D02*
X217868972Y-128856090D01*
X217868972Y-128856090D02*
X217969987Y-129024449D01*
X217969987Y-129024449D02*
X218003659Y-129125464D01*
X218003659Y-129125464D02*
X218003659Y-129260151D01*
X218003659Y-129260151D02*
X217936316Y-129394838D01*
X217936316Y-129394838D02*
X217767957Y-129563197D01*
X218104674Y-127812266D02*
X217767957Y-128148984D01*
X217767957Y-128148984D02*
X218071003Y-128519373D01*
X218071003Y-128519373D02*
X218071003Y-128452029D01*
X218071003Y-128452029D02*
X218104674Y-128351014D01*
X218104674Y-128351014D02*
X218273033Y-128182655D01*
X218273033Y-128182655D02*
X218374048Y-128148984D01*
X218374048Y-128148984D02*
X218441392Y-128148984D01*
X218441392Y-128148984D02*
X218542407Y-128182655D01*
X218542407Y-128182655D02*
X218710766Y-128351014D01*
X218710766Y-128351014D02*
X218744438Y-128452029D01*
X218744438Y-128452029D02*
X218744438Y-128519373D01*
X218744438Y-128519373D02*
X218710766Y-128620388D01*
X218710766Y-128620388D02*
X218542407Y-128788747D01*
X218542407Y-128788747D02*
X218441392Y-128822419D01*
X218441392Y-128822419D02*
X218374048Y-128822419D01*
%TO.C,LED4*%
X158215152Y-131304380D02*
X157738962Y-131304380D01*
X157738962Y-131304380D02*
X157738962Y-130304380D01*
X158548486Y-130780571D02*
X158881819Y-130780571D01*
X159024676Y-131304380D02*
X158548486Y-131304380D01*
X158548486Y-131304380D02*
X158548486Y-130304380D01*
X158548486Y-130304380D02*
X159024676Y-130304380D01*
X159453248Y-131304380D02*
X159453248Y-130304380D01*
X159453248Y-130304380D02*
X159691343Y-130304380D01*
X159691343Y-130304380D02*
X159834200Y-130352000D01*
X159834200Y-130352000D02*
X159929438Y-130447238D01*
X159929438Y-130447238D02*
X159977057Y-130542476D01*
X159977057Y-130542476D02*
X160024676Y-130732952D01*
X160024676Y-130732952D02*
X160024676Y-130875809D01*
X160024676Y-130875809D02*
X159977057Y-131066285D01*
X159977057Y-131066285D02*
X159929438Y-131161523D01*
X159929438Y-131161523D02*
X159834200Y-131256761D01*
X159834200Y-131256761D02*
X159691343Y-131304380D01*
X159691343Y-131304380D02*
X159453248Y-131304380D01*
X160881819Y-130637714D02*
X160881819Y-131304380D01*
X160643724Y-130256761D02*
X160405629Y-130971047D01*
X160405629Y-130971047D02*
X161024676Y-130971047D01*
%TO.C,LED3*%
X100294936Y-128881491D02*
X99958218Y-128544774D01*
X99958218Y-128544774D02*
X100665325Y-127837667D01*
X100901028Y-128746804D02*
X101136730Y-128982507D01*
X100867356Y-129453911D02*
X100530638Y-129117194D01*
X100530638Y-129117194D02*
X101237745Y-128410087D01*
X101237745Y-128410087D02*
X101574463Y-128746804D01*
X101170402Y-129756957D02*
X101877509Y-129049850D01*
X101877509Y-129049850D02*
X102045867Y-129218209D01*
X102045867Y-129218209D02*
X102113211Y-129352896D01*
X102113211Y-129352896D02*
X102113211Y-129487583D01*
X102113211Y-129487583D02*
X102079539Y-129588598D01*
X102079539Y-129588598D02*
X101978524Y-129756957D01*
X101978524Y-129756957D02*
X101877509Y-129857972D01*
X101877509Y-129857972D02*
X101709150Y-129958987D01*
X101709150Y-129958987D02*
X101608135Y-129992659D01*
X101608135Y-129992659D02*
X101473448Y-129992659D01*
X101473448Y-129992659D02*
X101338761Y-129925316D01*
X101338761Y-129925316D02*
X101170402Y-129756957D01*
X102517272Y-129689613D02*
X102955005Y-130127346D01*
X102955005Y-130127346D02*
X102449928Y-130161018D01*
X102449928Y-130161018D02*
X102550944Y-130262033D01*
X102550944Y-130262033D02*
X102584615Y-130363048D01*
X102584615Y-130363048D02*
X102584615Y-130430392D01*
X102584615Y-130430392D02*
X102550944Y-130531407D01*
X102550944Y-130531407D02*
X102382585Y-130699766D01*
X102382585Y-130699766D02*
X102281570Y-130733438D01*
X102281570Y-130733438D02*
X102214226Y-130733438D01*
X102214226Y-130733438D02*
X102113211Y-130699766D01*
X102113211Y-130699766D02*
X101911180Y-130497735D01*
X101911180Y-130497735D02*
X101877509Y-130396720D01*
X101877509Y-130396720D02*
X101877509Y-130329377D01*
%TO.C,LED1*%
X158265952Y-62343380D02*
X157789762Y-62343380D01*
X157789762Y-62343380D02*
X157789762Y-61343380D01*
X158599286Y-61819571D02*
X158932619Y-61819571D01*
X159075476Y-62343380D02*
X158599286Y-62343380D01*
X158599286Y-62343380D02*
X158599286Y-61343380D01*
X158599286Y-61343380D02*
X159075476Y-61343380D01*
X159504048Y-62343380D02*
X159504048Y-61343380D01*
X159504048Y-61343380D02*
X159742143Y-61343380D01*
X159742143Y-61343380D02*
X159885000Y-61391000D01*
X159885000Y-61391000D02*
X159980238Y-61486238D01*
X159980238Y-61486238D02*
X160027857Y-61581476D01*
X160027857Y-61581476D02*
X160075476Y-61771952D01*
X160075476Y-61771952D02*
X160075476Y-61914809D01*
X160075476Y-61914809D02*
X160027857Y-62105285D01*
X160027857Y-62105285D02*
X159980238Y-62200523D01*
X159980238Y-62200523D02*
X159885000Y-62295761D01*
X159885000Y-62295761D02*
X159742143Y-62343380D01*
X159742143Y-62343380D02*
X159504048Y-62343380D01*
X161027857Y-62343380D02*
X160456429Y-62343380D01*
X160742143Y-62343380D02*
X160742143Y-61343380D01*
X160742143Y-61343380D02*
X160646905Y-61486238D01*
X160646905Y-61486238D02*
X160551667Y-61581476D01*
X160551667Y-61581476D02*
X160456429Y-61629095D01*
D11*
%TO.C,SW2*%
X221217501Y-97740000D02*
X221217501Y-98260000D01*
X221727501Y-97740000D02*
X221217501Y-97740000D01*
X228227501Y-97740000D02*
X224327501Y-97740000D01*
X228227501Y-97740000D02*
X228227501Y-105460000D01*
X221727501Y-98260000D02*
X221217501Y-98260000D01*
X224557501Y-98260000D02*
X224327501Y-98260000D01*
X224557501Y-98260000D02*
X224557501Y-98800000D01*
X224557501Y-99900000D02*
X224557501Y-103300000D01*
X224557501Y-104400000D02*
X224557501Y-104940000D01*
X221217501Y-104940000D02*
X221217501Y-105460000D01*
X221727501Y-104940000D02*
X221217501Y-104940000D01*
X224557501Y-104940000D02*
X224327501Y-104940000D01*
X221727501Y-105460000D02*
X221217501Y-105460000D01*
X228227501Y-105460000D02*
X224327501Y-105460000D01*
%TO.C,SW3*%
X228287500Y-94785000D02*
X224387500Y-94785000D01*
X221787500Y-94785000D02*
X221277500Y-94785000D01*
X224617500Y-94265000D02*
X224387500Y-94265000D01*
X221787500Y-94265000D02*
X221277500Y-94265000D01*
X221277500Y-94265000D02*
X221277500Y-94785000D01*
X224617500Y-93725000D02*
X224617500Y-94265000D01*
X224617500Y-89225000D02*
X224617500Y-92625000D01*
X224617500Y-87585000D02*
X224617500Y-88125000D01*
X224617500Y-87585000D02*
X224387500Y-87585000D01*
X221787500Y-87585000D02*
X221277500Y-87585000D01*
X228287500Y-87065000D02*
X228287500Y-94785000D01*
X228287500Y-87065000D02*
X224387500Y-87065000D01*
X221787500Y-87065000D02*
X221277500Y-87065000D01*
X221277500Y-87065000D02*
X221277500Y-87585000D01*
%TO.C,LED2*%
X105526256Y-62105977D02*
X104819150Y-61398870D01*
X104819150Y-61398870D02*
X104182753Y-62035266D01*
%TO.C,LED6*%
X218540559Y-67508452D02*
X219247666Y-66801346D01*
X219247666Y-66801346D02*
X218611270Y-66164949D01*
%TO.C,LED5*%
X213166548Y-130490559D02*
X213873654Y-131197666D01*
X213873654Y-131197666D02*
X214510051Y-130561270D01*
%TO.C,LED4*%
X155525000Y-129700000D02*
X156425000Y-129700000D01*
X155525000Y-128700000D02*
X155525000Y-129700000D01*
%TO.C,LED3*%
X99452334Y-125823654D02*
X100088730Y-126460051D01*
X100159441Y-125116548D02*
X99452334Y-125823654D01*
%TO.C,LED1*%
X163175000Y-63950000D02*
X163175000Y-62950000D01*
X163175000Y-62950000D02*
X162275000Y-62950000D01*
%TD*%
%LPC*%
D12*
%TO.C,SW2*%
X223037501Y-98100000D03*
X223037501Y-105110000D03*
D13*
X225527501Y-99350000D03*
X225527501Y-103850000D03*
%TD*%
%TO.C,SW3*%
X225587500Y-93175000D03*
X225587500Y-88675000D03*
D12*
X223097500Y-94435000D03*
X223097500Y-87425000D03*
%TD*%
D14*
%TO.C,LED2*%
X104589339Y-62689339D03*
D15*
X105650000Y-63750000D03*
X100735608Y-66543072D03*
X101796268Y-67603732D03*
%TD*%
D16*
%TO.C,LED6*%
X217957195Y-66571535D03*
D17*
X216896536Y-67632196D03*
X214103464Y-62717804D03*
X213042804Y-63778464D03*
%TD*%
D18*
%TO.C,LED5*%
X214103463Y-129907195D03*
D19*
X213042804Y-128846536D03*
X217957196Y-126053464D03*
X216896536Y-124992804D03*
%TD*%
D20*
%TO.C,LED4*%
X162050000Y-127450000D03*
X162050000Y-128950000D03*
X156600000Y-127450000D03*
D21*
X156599999Y-128949999D03*
%TD*%
D22*
%TO.C,LED3*%
X105657196Y-128846536D03*
X104596536Y-129907196D03*
X101803464Y-124992804D03*
D23*
X100742803Y-126053463D03*
%TD*%
D24*
%TO.C,LED1*%
X162099999Y-63699999D03*
D25*
X162100000Y-65200000D03*
X156650000Y-63700000D03*
X156650000Y-65200000D03*
%TD*%
D26*
%TO.C,MX9*%
X214441152Y-77263634D03*
D27*
X211901152Y-72183634D03*
D28*
X209361152Y-77263634D03*
D27*
X205551152Y-74723634D03*
D26*
X204281152Y-77263634D03*
%TD*%
%TO.C,MX1*%
X114421752Y-115368834D03*
D27*
X111881752Y-110288834D03*
D28*
X109341752Y-115368834D03*
D27*
X105531752Y-112828834D03*
D26*
X104261752Y-115368834D03*
%TD*%
%TO.C,MX6*%
X176296152Y-115368834D03*
D27*
X173756152Y-110288834D03*
D28*
X171216152Y-115368834D03*
D27*
X167406152Y-112828834D03*
D26*
X166136152Y-115368834D03*
%TD*%
%TO.C,MX5*%
X152496352Y-115368834D03*
D27*
X149956352Y-110288834D03*
D28*
X147416352Y-115368834D03*
D27*
X143606352Y-112828834D03*
D26*
X142336352Y-115368834D03*
%TD*%
%TO.C,MX7*%
X176331152Y-77273634D03*
D27*
X173791152Y-72193634D03*
D28*
X171251152Y-77273634D03*
D27*
X167441152Y-74733634D03*
D26*
X166171152Y-77273634D03*
%TD*%
%TO.C,MX3*%
X133471752Y-96318834D03*
D27*
X130931752Y-91238834D03*
D28*
X128391752Y-96318834D03*
D27*
X124581752Y-93778834D03*
D26*
X123311752Y-96318834D03*
%TD*%
%TO.C,MX10*%
X204271152Y-115373634D03*
D27*
X205541152Y-112833634D03*
D28*
X209351152Y-115373634D03*
D27*
X211891152Y-110293634D03*
D26*
X214431152Y-115373634D03*
%TD*%
%TO.C,MX4*%
X152496352Y-77294234D03*
D27*
X149956352Y-72214234D03*
D28*
X147416352Y-77294234D03*
D27*
X143606352Y-74754234D03*
D26*
X142336352Y-77294234D03*
%TD*%
%TO.C,MX2*%
X104261752Y-77268834D03*
D27*
X105531752Y-74728834D03*
D28*
X109341752Y-77268834D03*
D27*
X111881752Y-72188834D03*
D26*
X114421752Y-77268834D03*
%TD*%
%TO.C,MX8*%
X195381152Y-96323634D03*
D27*
X192841152Y-91243634D03*
D28*
X190301152Y-96323634D03*
D27*
X186491152Y-93783634D03*
D26*
X185221152Y-96323634D03*
%TD*%
D29*
%TO.C,J1*%
X194706803Y-66930535D03*
D30*
X194706803Y-62730535D03*
D29*
X186066803Y-66930535D03*
D30*
X186066803Y-62730535D03*
D31*
X193276804Y-66410536D03*
X187496804Y-66410536D03*
%TD*%
M02*
