%TF.GenerationSoftware,KiCad,Pcbnew,(7.0.0)*%
%TF.CreationDate,2023-03-23T02:07:03-06:00*%
%TF.ProjectId,MainPlate,4d61696e-506c-4617-9465-2e6b69636164,rev?*%
%TF.SameCoordinates,Original*%
%TF.FileFunction,Soldermask,Bot*%
%TF.FilePolarity,Negative*%
%FSLAX46Y46*%
G04 Gerber Fmt 4.6, Leading zero omitted, Abs format (unit mm)*
G04 Created by KiCad (PCBNEW (7.0.0)) date 2023-03-23 02:07:03*
%MOMM*%
%LPD*%
G01*
G04 APERTURE LIST*
G04 Aperture macros list*
%AMRoundRect*
0 Rectangle with rounded corners*
0 $1 Rounding radius*
0 $2 $3 $4 $5 $6 $7 $8 $9 X,Y pos of 4 corners*
0 Add a 4 corners polygon primitive as box body*
4,1,4,$2,$3,$4,$5,$6,$7,$8,$9,$2,$3,0*
0 Add four circle primitives for the rounded corners*
1,1,$1+$1,$2,$3*
1,1,$1+$1,$4,$5*
1,1,$1+$1,$6,$7*
1,1,$1+$1,$8,$9*
0 Add four rect primitives between the rounded corners*
20,1,$1+$1,$2,$3,$4,$5,0*
20,1,$1+$1,$4,$5,$6,$7,0*
20,1,$1+$1,$6,$7,$8,$9,0*
20,1,$1+$1,$8,$9,$2,$3,0*%
G04 Aperture macros list end*
%ADD10C,0.000000*%
%ADD11C,0.300000*%
%ADD12O,1.700000X1.700000*%
%ADD13R,1.700000X1.700000*%
%ADD14RoundRect,0.250000X-0.325000X-0.450000X0.325000X-0.450000X0.325000X0.450000X-0.325000X0.450000X0*%
%ADD15RoundRect,0.250000X-0.450000X0.325000X-0.450000X-0.325000X0.450000X-0.325000X0.450000X0.325000X0*%
%ADD16RoundRect,0.250000X0.325000X0.450000X-0.325000X0.450000X-0.325000X-0.450000X0.325000X-0.450000X0*%
%ADD17RoundRect,0.250000X0.450000X-0.325000X0.450000X0.325000X-0.450000X0.325000X-0.450000X-0.325000X0*%
G04 APERTURE END LIST*
D10*
G36*
X132500944Y-96498227D02*
G01*
X132501844Y-96497354D01*
X132501844Y-96498280D01*
X133142162Y-96498254D01*
X132712982Y-96928493D01*
X132075600Y-96924471D01*
X132075600Y-96923571D01*
X132074727Y-96923571D01*
X132070706Y-96286216D01*
X132500892Y-95857036D01*
X132500944Y-96498227D01*
G37*
G36*
X138429013Y-97503168D02*
G01*
X138429013Y-95730486D01*
X138861130Y-95730486D01*
X138861130Y-97503168D01*
X139417866Y-98059904D01*
X141190549Y-98059904D01*
X141747259Y-97503168D01*
X141747259Y-95730486D01*
X141190549Y-95173776D01*
X139417866Y-95173776D01*
X138861130Y-95730486D01*
X138429013Y-95730486D01*
X138429013Y-95465056D01*
X139152437Y-94741632D01*
X141455978Y-94741632D01*
X142179402Y-95465057D01*
X142179402Y-97768598D01*
X141455978Y-98492022D01*
X139152437Y-98492022D01*
X138429013Y-97768598D01*
X138429013Y-97503168D01*
G37*
G36*
X161731353Y-95086929D02*
G01*
X161734035Y-95087209D01*
X161736358Y-95087661D01*
X161738337Y-95088272D01*
X161739986Y-95089031D01*
X161741317Y-95089924D01*
X161742345Y-95090940D01*
X161743084Y-95092067D01*
X161743546Y-95093292D01*
X161743747Y-95094602D01*
X161743699Y-95095986D01*
X161743417Y-95097432D01*
X161742913Y-95098926D01*
X161742203Y-95100457D01*
X161741299Y-95102013D01*
X161740215Y-95103581D01*
X161738966Y-95105149D01*
X161737564Y-95106705D01*
X161736024Y-95108236D01*
X161734359Y-95109731D01*
X161732583Y-95111176D01*
X161730709Y-95112560D01*
X161728752Y-95113871D01*
X161726726Y-95115096D01*
X161724643Y-95116222D01*
X161722518Y-95117238D01*
X161720364Y-95118132D01*
X161718195Y-95118890D01*
X161716025Y-95119501D01*
X161713868Y-95119953D01*
X161711737Y-95120233D01*
X161709647Y-95120329D01*
X161706593Y-95120233D01*
X161703911Y-95119953D01*
X161701587Y-95119502D01*
X161699608Y-95118891D01*
X161697960Y-95118133D01*
X161696629Y-95117240D01*
X161695601Y-95116225D01*
X161694862Y-95115099D01*
X161694400Y-95113875D01*
X161694199Y-95112566D01*
X161694247Y-95111183D01*
X161694530Y-95109738D01*
X161695033Y-95108244D01*
X161695744Y-95106714D01*
X161696648Y-95105159D01*
X161697731Y-95103591D01*
X161698981Y-95102024D01*
X161700383Y-95100468D01*
X161701923Y-95098938D01*
X161703588Y-95097443D01*
X161705364Y-95095998D01*
X161707238Y-95094614D01*
X161709194Y-95093303D01*
X161711221Y-95092078D01*
X161713304Y-95090951D01*
X161715429Y-95089934D01*
X161717583Y-95089040D01*
X161719751Y-95088280D01*
X161721921Y-95087667D01*
X161724078Y-95087214D01*
X161726208Y-95086932D01*
X161728299Y-95086833D01*
X161731353Y-95086929D01*
G37*
G36*
X148537711Y-96286216D02*
G01*
X148533688Y-96923598D01*
X148532815Y-96923598D01*
X148532815Y-96924497D01*
X147895407Y-96928519D01*
X147466254Y-96498306D01*
X148107417Y-96498254D01*
X148106546Y-96497354D01*
X148107471Y-96497354D01*
X148107471Y-95857036D01*
X148537711Y-96286216D01*
G37*
G36*
X133062999Y-95646877D02*
G01*
X133352322Y-95936199D01*
X133635240Y-95936199D01*
X133635240Y-96003880D01*
X133567268Y-96072036D01*
X132927162Y-96072036D01*
X132927162Y-95431956D01*
X132995319Y-95363931D01*
X133062999Y-95363931D01*
X133062999Y-95646877D01*
G37*
G36*
X130507151Y-96093361D02*
G01*
X130507151Y-96074522D01*
X130930484Y-96074522D01*
X130930484Y-96093361D01*
X130930564Y-97922717D01*
X130930758Y-97932396D01*
X130931328Y-97941627D01*
X130932258Y-97950420D01*
X130933531Y-97958787D01*
X130935130Y-97966737D01*
X130937038Y-97974281D01*
X130939239Y-97981430D01*
X130941716Y-97988195D01*
X130944452Y-97994585D01*
X130947431Y-98000612D01*
X130950636Y-98006287D01*
X130954049Y-98011620D01*
X130957655Y-98016621D01*
X130961436Y-98021301D01*
X130965376Y-98025671D01*
X130969458Y-98029741D01*
X130973528Y-98033818D01*
X130977898Y-98037754D01*
X130982578Y-98041532D01*
X130987579Y-98045134D01*
X130992912Y-98048545D01*
X130998586Y-98051747D01*
X131004613Y-98054724D01*
X131011004Y-98057459D01*
X131017768Y-98059935D01*
X131024917Y-98062135D01*
X131032462Y-98064043D01*
X131040412Y-98065642D01*
X131048778Y-98066914D01*
X131057571Y-98067844D01*
X131066802Y-98068414D01*
X131076482Y-98068608D01*
X132905837Y-98068687D01*
X132924649Y-98068687D01*
X132926104Y-97925442D01*
X132777329Y-97776878D01*
X132499199Y-97499171D01*
X132499199Y-97142805D01*
X132712982Y-96928465D01*
X133142163Y-96498252D01*
X133567268Y-96072035D01*
X133635240Y-96003852D01*
X133635240Y-95936171D01*
X133352322Y-95936171D01*
X133207648Y-95791523D01*
X133063000Y-95646849D01*
X133063000Y-95363904D01*
X132995319Y-95363904D01*
X132927135Y-95431929D01*
X132500892Y-95857008D01*
X132070706Y-96286189D01*
X131856367Y-96499999D01*
X131500026Y-96499999D01*
X131222319Y-96221869D01*
X131073729Y-96073094D01*
X130930484Y-96074522D01*
X130507151Y-96074522D01*
X130507151Y-95502917D01*
X130507668Y-95497100D01*
X130508594Y-95490423D01*
X130510211Y-95481762D01*
X130512705Y-95471515D01*
X130516262Y-95460077D01*
X130521067Y-95447846D01*
X130523995Y-95441556D01*
X130527305Y-95435217D01*
X130531020Y-95428878D01*
X130535163Y-95422588D01*
X130539757Y-95416397D01*
X130544826Y-95410355D01*
X130550391Y-95404511D01*
X130556478Y-95398914D01*
X130563109Y-95393615D01*
X130570306Y-95388662D01*
X130578094Y-95384106D01*
X130586495Y-95379996D01*
X130595533Y-95376382D01*
X130605231Y-95373313D01*
X130615612Y-95370838D01*
X130626699Y-95369008D01*
X130638515Y-95367871D01*
X130651084Y-95367478D01*
X130967420Y-95366975D01*
X131607183Y-96006764D01*
X132872341Y-94741553D01*
X133284959Y-94741553D01*
X133284959Y-95154171D01*
X133564941Y-95434126D01*
X133844923Y-95714135D01*
X134257541Y-95714135D01*
X134257541Y-96126727D01*
X132992329Y-97391937D01*
X133632118Y-98031699D01*
X133631615Y-98348009D01*
X133631227Y-98360585D01*
X133630095Y-98372408D01*
X133628269Y-98383501D01*
X133625799Y-98393888D01*
X133622734Y-98403591D01*
X133619124Y-98412634D01*
X133615018Y-98421040D01*
X133610465Y-98428833D01*
X133605516Y-98436034D01*
X133600221Y-98442668D01*
X133594627Y-98448758D01*
X133588786Y-98454327D01*
X133582747Y-98459398D01*
X133576559Y-98463995D01*
X133570272Y-98468140D01*
X133563935Y-98471857D01*
X133557598Y-98475169D01*
X133551311Y-98478099D01*
X133539084Y-98482906D01*
X133527649Y-98486465D01*
X133517405Y-98488960D01*
X133508746Y-98490578D01*
X133502071Y-98491503D01*
X133496255Y-98492021D01*
X130659683Y-98492021D01*
X130649272Y-98491841D01*
X130639333Y-98491311D01*
X130629856Y-98490445D01*
X130620830Y-98489260D01*
X130612243Y-98487770D01*
X130604085Y-98485989D01*
X130596344Y-98483935D01*
X130589009Y-98481620D01*
X130582070Y-98479060D01*
X130575515Y-98476272D01*
X130569333Y-98473268D01*
X130563514Y-98470065D01*
X130558045Y-98466678D01*
X130552917Y-98463122D01*
X130548118Y-98459411D01*
X130543637Y-98455562D01*
X130539782Y-98451076D01*
X130536068Y-98446273D01*
X130532508Y-98441141D01*
X130529118Y-98435669D01*
X130525912Y-98429846D01*
X130522907Y-98423662D01*
X130520116Y-98417104D01*
X130517555Y-98410163D01*
X130515240Y-98402826D01*
X130513184Y-98395082D01*
X130511403Y-98386921D01*
X130509912Y-98378331D01*
X130508727Y-98369301D01*
X130507861Y-98359821D01*
X130507331Y-98349878D01*
X130507151Y-98339462D01*
X130507151Y-96093361D01*
G37*
G36*
X136733192Y-105623890D02*
G01*
X135430385Y-105623890D01*
X136578993Y-99109823D01*
X137881802Y-99109823D01*
X136733192Y-105623890D01*
G37*
G36*
X130535117Y-99109823D02*
G01*
X135746403Y-99109823D01*
X135057243Y-103018275D01*
X131148765Y-103018275D01*
X130689316Y-105623890D01*
X129386508Y-105623890D01*
X130075675Y-101715440D01*
X131378503Y-101715440D01*
X133984119Y-101715440D01*
X134213831Y-100412632D01*
X131608214Y-100412632D01*
X131378503Y-101715440D01*
X130075675Y-101715440D01*
X130535117Y-99109823D01*
G37*
G36*
X136460117Y-95734480D02*
G01*
X136460117Y-95879128D01*
X135610249Y-95879128D01*
X135610249Y-95883812D01*
X135605592Y-95883812D01*
X135605592Y-96733653D01*
X135460918Y-96733653D01*
X135183237Y-97011783D01*
X135183237Y-95456774D01*
X136738247Y-95456774D01*
X136460117Y-95734480D01*
G37*
G36*
X147681253Y-95431956D02*
G01*
X147681253Y-96072036D01*
X147041173Y-96072036D01*
X146973123Y-96003880D01*
X146973123Y-95936199D01*
X147256096Y-95936199D01*
X147400743Y-95791578D01*
X147545418Y-95646903D01*
X147545418Y-95363958D01*
X147613097Y-95363958D01*
X147681253Y-95431956D01*
G37*
G36*
X142389929Y-97106900D02*
G01*
X143655167Y-95841715D01*
X143015379Y-95201953D01*
X143015855Y-94885645D01*
X143016244Y-94873068D01*
X143017376Y-94861245D01*
X143019201Y-94850152D01*
X143021672Y-94839765D01*
X143024737Y-94830062D01*
X143028347Y-94821019D01*
X143032453Y-94812613D01*
X143037006Y-94804820D01*
X143041955Y-94797619D01*
X143047250Y-94790985D01*
X143052844Y-94784895D01*
X143058685Y-94779326D01*
X143064724Y-94774255D01*
X143070912Y-94769658D01*
X143077200Y-94765513D01*
X143083536Y-94761796D01*
X143089873Y-94758484D01*
X143096161Y-94755554D01*
X143108388Y-94750747D01*
X143119823Y-94747189D01*
X143130067Y-94744693D01*
X143138726Y-94743076D01*
X143145401Y-94742150D01*
X143151218Y-94741632D01*
X145987788Y-94741632D01*
X145998200Y-94741812D01*
X146008138Y-94742342D01*
X146017615Y-94743208D01*
X146026642Y-94744394D01*
X146035229Y-94745884D01*
X146043388Y-94747665D01*
X146051130Y-94749721D01*
X146058466Y-94752036D01*
X146065406Y-94754597D01*
X146071963Y-94757388D01*
X146078147Y-94760393D01*
X146083969Y-94763598D01*
X146089441Y-94766989D01*
X146094573Y-94770548D01*
X146099376Y-94774263D01*
X146103862Y-94778117D01*
X146107712Y-94782603D01*
X146111422Y-94787407D01*
X146114978Y-94792539D01*
X146118366Y-94798010D01*
X146121568Y-94803833D01*
X146124572Y-94810017D01*
X146127361Y-94816575D01*
X146129920Y-94823517D01*
X146132235Y-94830854D01*
X146134290Y-94838597D01*
X146136070Y-94846758D01*
X146137560Y-94855348D01*
X146138746Y-94864378D01*
X146139611Y-94873858D01*
X146140141Y-94883801D01*
X146140321Y-94894217D01*
X146140321Y-97730762D01*
X146139805Y-97736578D01*
X146138881Y-97743254D01*
X146137265Y-97751913D01*
X146134773Y-97762158D01*
X146131218Y-97773593D01*
X146126415Y-97785822D01*
X146123488Y-97792111D01*
X146120179Y-97798449D01*
X146116465Y-97804787D01*
X146112323Y-97811075D01*
X146107730Y-97817265D01*
X146102663Y-97823306D01*
X146097098Y-97829149D01*
X146091012Y-97834745D01*
X146084382Y-97840043D01*
X146077186Y-97844994D01*
X146069398Y-97849549D01*
X146060997Y-97853658D01*
X146051960Y-97857272D01*
X146042262Y-97860341D01*
X146031881Y-97862815D01*
X146020794Y-97864645D01*
X146008977Y-97865781D01*
X145996408Y-97866174D01*
X145680098Y-97866651D01*
X145040311Y-97226862D01*
X143775127Y-98492073D01*
X143362509Y-98492073D01*
X143362509Y-98079455D01*
X143082527Y-97799500D01*
X142802547Y-97519518D01*
X142389929Y-97519518D01*
X142389929Y-97297482D01*
X142389929Y-97229801D01*
X143012176Y-97229801D01*
X143012176Y-97297482D01*
X143295123Y-97297482D01*
X143439798Y-97442130D01*
X143584419Y-97586803D01*
X143584419Y-97869749D01*
X143652100Y-97869749D01*
X143720309Y-97801724D01*
X144146551Y-97376644D01*
X144576765Y-96947463D01*
X144791104Y-96733654D01*
X145147472Y-96733654D01*
X145425177Y-97011784D01*
X145573767Y-97160558D01*
X145716959Y-97159132D01*
X145716959Y-97140293D01*
X145716879Y-95310964D01*
X145716685Y-95301280D01*
X145716115Y-95292046D01*
X145715185Y-95283250D01*
X145713913Y-95274882D01*
X145712314Y-95266931D01*
X145710405Y-95259387D01*
X145708204Y-95252238D01*
X145705727Y-95245473D01*
X145702991Y-95239083D01*
X145700012Y-95233055D01*
X145696808Y-95227380D01*
X145693395Y-95222047D01*
X145689789Y-95217044D01*
X145686008Y-95212362D01*
X145682068Y-95207989D01*
X145677986Y-95203914D01*
X145673916Y-95199841D01*
X145669546Y-95195909D01*
X145664866Y-95192133D01*
X145659865Y-95188532D01*
X145654533Y-95185122D01*
X145648858Y-95181919D01*
X145642831Y-95178942D01*
X145636441Y-95176206D01*
X145629676Y-95173728D01*
X145622527Y-95171526D01*
X145614983Y-95169617D01*
X145607033Y-95168017D01*
X145598667Y-95166743D01*
X145589873Y-95165812D01*
X145580642Y-95165241D01*
X145570962Y-95165047D01*
X143741608Y-95164967D01*
X143722795Y-95164967D01*
X143721313Y-95308213D01*
X143870088Y-95456776D01*
X144148219Y-95734483D01*
X144148219Y-96090823D01*
X143934434Y-96305189D01*
X143505254Y-96735427D01*
X143080148Y-97161645D01*
X143012176Y-97229801D01*
X142389929Y-97229801D01*
X142389929Y-97106900D01*
G37*
G36*
X146350796Y-96003879D02*
G01*
X146350796Y-95936198D01*
X146973151Y-95936198D01*
X146973151Y-96003879D01*
X147041174Y-96072089D01*
X147466254Y-96498306D01*
X147895435Y-96928519D01*
X148109244Y-97142831D01*
X148109244Y-97499198D01*
X147831114Y-97776905D01*
X147682312Y-97925495D01*
X147683743Y-98068713D01*
X147702556Y-98068713D01*
X149531885Y-98068634D01*
X149541569Y-98068440D01*
X149550804Y-98067870D01*
X149559601Y-98066940D01*
X149567971Y-98065667D01*
X149575924Y-98064068D01*
X149583470Y-98062160D01*
X149590621Y-98059959D01*
X149597386Y-98057482D01*
X149603778Y-98054745D01*
X149609806Y-98051767D01*
X149615481Y-98048562D01*
X149620814Y-98045149D01*
X149625815Y-98041543D01*
X149630495Y-98037762D01*
X149634865Y-98033822D01*
X149638936Y-98029740D01*
X149643009Y-98025670D01*
X149646941Y-98021300D01*
X149650716Y-98016619D01*
X149654318Y-98011618D01*
X149657728Y-98006286D01*
X149660930Y-98000611D01*
X149663908Y-97994584D01*
X149666644Y-97988194D01*
X149669121Y-97981429D01*
X149671323Y-97974280D01*
X149673233Y-97966736D01*
X149674833Y-97958786D01*
X149676107Y-97950420D01*
X149677038Y-97941626D01*
X149677609Y-97932395D01*
X149677803Y-97922716D01*
X149677882Y-96093360D01*
X149677882Y-96074548D01*
X149534663Y-96073093D01*
X149386072Y-96221868D01*
X149108392Y-96499998D01*
X148752025Y-96499998D01*
X148537686Y-96286215D01*
X148107472Y-95857034D01*
X147681256Y-95431929D01*
X147613100Y-95363957D01*
X147545419Y-95363957D01*
X147545419Y-95646902D01*
X147400772Y-95791576D01*
X147256097Y-95936198D01*
X146973151Y-95936198D01*
X146350796Y-95936198D01*
X146350796Y-95714214D01*
X146763414Y-95714214D01*
X147043370Y-95434232D01*
X147323378Y-95154250D01*
X147323378Y-94741632D01*
X147735969Y-94741632D01*
X149001154Y-96006869D01*
X149640916Y-95367081D01*
X149957226Y-95367557D01*
X149969803Y-95367945D01*
X149981626Y-95369077D01*
X149992719Y-95370903D01*
X150003105Y-95373373D01*
X150012809Y-95376438D01*
X150021852Y-95380049D01*
X150030258Y-95384155D01*
X150038050Y-95388707D01*
X150045251Y-95393656D01*
X150051885Y-95398951D01*
X150057975Y-95404545D01*
X150063544Y-95410386D01*
X150068615Y-95416425D01*
X150073212Y-95422613D01*
X150077357Y-95428900D01*
X150081074Y-95435237D01*
X150084386Y-95441574D01*
X150087316Y-95447861D01*
X150092123Y-95460088D01*
X150095682Y-95471523D01*
X150098177Y-95481767D01*
X150099795Y-95490426D01*
X150100721Y-95497101D01*
X150101239Y-95502917D01*
X150101239Y-98339489D01*
X150101059Y-98349905D01*
X150100529Y-98359848D01*
X150099663Y-98369328D01*
X150098478Y-98378358D01*
X150096987Y-98386948D01*
X150095207Y-98395109D01*
X150093152Y-98402852D01*
X150090838Y-98410189D01*
X150088278Y-98417131D01*
X150085489Y-98423689D01*
X150082486Y-98429873D01*
X150079283Y-98435696D01*
X150075896Y-98441167D01*
X150072340Y-98446299D01*
X150068629Y-98451103D01*
X150064780Y-98455589D01*
X150060294Y-98459438D01*
X150055490Y-98463149D01*
X150050358Y-98466705D01*
X150044886Y-98470092D01*
X150039064Y-98473295D01*
X150032879Y-98476298D01*
X150026322Y-98479087D01*
X150019380Y-98481647D01*
X150012043Y-98483961D01*
X150004300Y-98486016D01*
X149996138Y-98487796D01*
X149987549Y-98489287D01*
X149978519Y-98490472D01*
X149969039Y-98491337D01*
X149959096Y-98491868D01*
X149948680Y-98492048D01*
X147112135Y-98492048D01*
X147106318Y-98491530D01*
X147099641Y-98490605D01*
X147090980Y-98488988D01*
X147080733Y-98486493D01*
X147069295Y-98482937D01*
X147057063Y-98478132D01*
X147050774Y-98475203D01*
X147044434Y-98471893D01*
X147038095Y-98468178D01*
X147031805Y-98464035D01*
X147025614Y-98459441D01*
X147019572Y-98454373D01*
X147013727Y-98448807D01*
X147008131Y-98442720D01*
X147002831Y-98436089D01*
X146997879Y-98428892D01*
X146993323Y-98421104D01*
X146989213Y-98412703D01*
X146985598Y-98403665D01*
X146982529Y-98393967D01*
X146980054Y-98383586D01*
X146978224Y-98372499D01*
X146977087Y-98360682D01*
X146976694Y-98348113D01*
X146976192Y-98031778D01*
X147615982Y-97392016D01*
X146350796Y-96126831D01*
X146350796Y-96003879D01*
G37*
G36*
X137596184Y-97229800D02*
G01*
X137596184Y-97297480D01*
X137313238Y-97297480D01*
X137168565Y-97442128D01*
X137023917Y-97586775D01*
X137023917Y-97869720D01*
X136956237Y-97869720D01*
X136888053Y-97801723D01*
X136888053Y-97161643D01*
X137528160Y-97161643D01*
X137596184Y-97229800D01*
G37*
G36*
X154008182Y-102808486D02*
G01*
X158915539Y-102808486D01*
X158414447Y-105650402D01*
X149842079Y-105650402D01*
X151758881Y-94779678D01*
X155423862Y-94779678D01*
X154008182Y-102808486D01*
G37*
G36*
X144758217Y-99109823D02*
G01*
X149969504Y-99109823D01*
X148820921Y-105623890D01*
X143609608Y-105623890D01*
X143839329Y-104321082D01*
X145142154Y-104321082D01*
X147747769Y-104321082D01*
X148436955Y-100412630D01*
X145831340Y-100412630D01*
X145142154Y-104321082D01*
X143839329Y-104321082D01*
X144758217Y-99109823D01*
G37*
G36*
X163912729Y-97512904D02*
G01*
X166196109Y-94779706D01*
X170140622Y-94779706D01*
X165441382Y-100028693D01*
X168456784Y-105650402D01*
X164263776Y-105650402D01*
X162896753Y-102746360D01*
X160552200Y-105650402D01*
X156374750Y-105650402D01*
X161270361Y-100168475D01*
X158431302Y-94779706D01*
X162546658Y-94779706D01*
X163912729Y-97512904D01*
G37*
G36*
X134468095Y-97159103D02*
G01*
X134468095Y-97140292D01*
X134891428Y-97140292D01*
X134891428Y-97159103D01*
X135034674Y-97160585D01*
X135183237Y-97011810D01*
X135460918Y-96733681D01*
X135817284Y-96733681D01*
X136031624Y-96947463D01*
X136461836Y-97376644D01*
X136888054Y-97801750D01*
X136956237Y-97869721D01*
X137023918Y-97869721D01*
X137023918Y-97586776D01*
X137168566Y-97442128D01*
X137313240Y-97297480D01*
X137596185Y-97297480D01*
X137596185Y-97229800D01*
X137528160Y-97161617D01*
X137103081Y-96735373D01*
X136673900Y-96305161D01*
X136460090Y-96090821D01*
X136460090Y-95734480D01*
X136738220Y-95456774D01*
X136887022Y-95308184D01*
X136885593Y-95164939D01*
X136866754Y-95164939D01*
X135037399Y-95165018D01*
X135027720Y-95165212D01*
X135018489Y-95165782D01*
X135009695Y-95166712D01*
X135001329Y-95167985D01*
X134993379Y-95169584D01*
X134985835Y-95171493D01*
X134978686Y-95173694D01*
X134971921Y-95176171D01*
X134965531Y-95178907D01*
X134959503Y-95181886D01*
X134953829Y-95185090D01*
X134948496Y-95188504D01*
X134943495Y-95192109D01*
X134938815Y-95195891D01*
X134934445Y-95199830D01*
X134930375Y-95203912D01*
X134926302Y-95207983D01*
X134922369Y-95212353D01*
X134918594Y-95217033D01*
X134914993Y-95222034D01*
X134911583Y-95227366D01*
X134908380Y-95233041D01*
X134905403Y-95239068D01*
X134902667Y-95245459D01*
X134900189Y-95252223D01*
X134897987Y-95259372D01*
X134896078Y-95266916D01*
X134894478Y-95274866D01*
X134893204Y-95283233D01*
X134892273Y-95292026D01*
X134891702Y-95301257D01*
X134891508Y-95310937D01*
X134891428Y-97140292D01*
X134468095Y-97140292D01*
X134468095Y-94894190D01*
X134468275Y-94883779D01*
X134468806Y-94873840D01*
X134469671Y-94864363D01*
X134470857Y-94855337D01*
X134472348Y-94846750D01*
X134474128Y-94838591D01*
X134476184Y-94830849D01*
X134478500Y-94823513D01*
X134481061Y-94816573D01*
X134483851Y-94810016D01*
X134486857Y-94803832D01*
X134490062Y-94798010D01*
X134493452Y-94792538D01*
X134497012Y-94787407D01*
X134500727Y-94782603D01*
X134504581Y-94778117D01*
X134509067Y-94774263D01*
X134513870Y-94770548D01*
X134519000Y-94766989D01*
X134524470Y-94763598D01*
X134530291Y-94760393D01*
X134536473Y-94757388D01*
X134543028Y-94754597D01*
X134549967Y-94752036D01*
X134557302Y-94749721D01*
X134565043Y-94747665D01*
X134573202Y-94745884D01*
X134581789Y-94744394D01*
X134590817Y-94743208D01*
X134600296Y-94742342D01*
X134610238Y-94741812D01*
X134620653Y-94741632D01*
X137457199Y-94741632D01*
X137463015Y-94742149D01*
X137469691Y-94743073D01*
X137478350Y-94744689D01*
X137488596Y-94747182D01*
X137500032Y-94750737D01*
X137512262Y-94755542D01*
X137518551Y-94758470D01*
X137524889Y-94761780D01*
X137531228Y-94765495D01*
X137537517Y-94769638D01*
X137543708Y-94774232D01*
X137549750Y-94779301D01*
X137555594Y-94784868D01*
X137561191Y-94790956D01*
X137566490Y-94797588D01*
X137571443Y-94804787D01*
X137576000Y-94812577D01*
X137580111Y-94820981D01*
X137583726Y-94830021D01*
X137586797Y-94839722D01*
X137589273Y-94850107D01*
X137591105Y-94861197D01*
X137592244Y-94873018D01*
X137592639Y-94885592D01*
X137593115Y-95201927D01*
X136953326Y-95841690D01*
X138218537Y-97106874D01*
X138218537Y-97519518D01*
X137805920Y-97519518D01*
X137525964Y-97799474D01*
X137245982Y-98079456D01*
X137245982Y-98492074D01*
X136833364Y-98492074D01*
X135568180Y-97226836D01*
X134928391Y-97866625D01*
X134612108Y-97866122D01*
X134599529Y-97865733D01*
X134587704Y-97864601D01*
X134576609Y-97862776D01*
X134566221Y-97860305D01*
X134556516Y-97857240D01*
X134547472Y-97853630D01*
X134539066Y-97849524D01*
X134531273Y-97844972D01*
X134524071Y-97840023D01*
X134517437Y-97834727D01*
X134511347Y-97829134D01*
X134505778Y-97823293D01*
X134500707Y-97817253D01*
X134496111Y-97811065D01*
X134491966Y-97804778D01*
X134488250Y-97798441D01*
X134484939Y-97792105D01*
X134482010Y-97785817D01*
X134477204Y-97773590D01*
X134473647Y-97762156D01*
X134471153Y-97751911D01*
X134469537Y-97743253D01*
X134468612Y-97736577D01*
X134468095Y-97730761D01*
X134468095Y-97159103D01*
G37*
G36*
X137103054Y-96735373D02*
G01*
X136461889Y-96735426D01*
X136462762Y-96736299D01*
X136461836Y-96736299D01*
X136461862Y-97376617D01*
X136031624Y-96947437D01*
X136035646Y-96310055D01*
X136036519Y-96310055D01*
X136036519Y-96309182D01*
X136673900Y-96305161D01*
X137103054Y-96735373D01*
G37*
G36*
X145425204Y-97011783D02*
G01*
X145147499Y-96733653D01*
X145002824Y-96733653D01*
X145002824Y-95883812D01*
X144998141Y-95883812D01*
X144998141Y-95879155D01*
X144148299Y-95879155D01*
X144148299Y-95734480D01*
X143870169Y-95456774D01*
X145425204Y-95456774D01*
X145425204Y-97011783D01*
G37*
G36*
X141315088Y-95995942D02*
G01*
X141315088Y-97237737D01*
X140925091Y-97627733D01*
X139683298Y-97627733D01*
X139293301Y-97237737D01*
X139293301Y-95995942D01*
X139683298Y-95605920D01*
X140925091Y-95605920D01*
X141315088Y-95995942D01*
G37*
G36*
X143720309Y-97801697D02*
G01*
X143652153Y-97869747D01*
X143584473Y-97869747D01*
X143584473Y-97586802D01*
X143439851Y-97442128D01*
X143295177Y-97297453D01*
X143012231Y-97297453D01*
X143012231Y-97229800D01*
X143080229Y-97161643D01*
X143720309Y-97161643D01*
X143720309Y-97801697D01*
G37*
G36*
X131500000Y-96500000D02*
G01*
X131644673Y-96500000D01*
X131644673Y-97349841D01*
X131649357Y-97349841D01*
X131649357Y-97354524D01*
X132499198Y-97354524D01*
X132499198Y-97499172D01*
X132777328Y-97776879D01*
X131222319Y-97776879D01*
X131222319Y-96221870D01*
X131500000Y-96500000D01*
G37*
G36*
X144571898Y-96309182D02*
G01*
X144571898Y-96310055D01*
X144572769Y-96310055D01*
X144576793Y-96947462D01*
X144146579Y-97376617D01*
X144146526Y-96735426D01*
X144145654Y-96736326D01*
X144145654Y-96735400D01*
X143505334Y-96735426D01*
X143934515Y-96305187D01*
X144571898Y-96309182D01*
G37*
G36*
X143695941Y-100412630D02*
G01*
X139787463Y-100412630D01*
X139098303Y-104321082D01*
X143006779Y-104321082D01*
X142777069Y-105623890D01*
X137565784Y-105623890D01*
X138714392Y-99109823D01*
X143925679Y-99109823D01*
X143695941Y-100412630D01*
G37*
G36*
X149386096Y-97776905D02*
G01*
X147831088Y-97776905D01*
X148109216Y-97499198D01*
X148109216Y-97354551D01*
X148959059Y-97354551D01*
X148959059Y-97349841D01*
X148963742Y-97349841D01*
X148963742Y-96500000D01*
X149108417Y-96500000D01*
X149386096Y-96221870D01*
X149386096Y-97776905D01*
G37*
D11*
G36*
X204627680Y-133358800D02*
G01*
X204174366Y-133358800D01*
X204174366Y-132811207D01*
X203779181Y-132811207D01*
X203746904Y-132810873D01*
X203715166Y-132809871D01*
X203683966Y-132808202D01*
X203653304Y-132805864D01*
X203623180Y-132802859D01*
X203593594Y-132799186D01*
X203564547Y-132794845D01*
X203536037Y-132789836D01*
X203508065Y-132784159D01*
X203480632Y-132777814D01*
X203453737Y-132770802D01*
X203427379Y-132763122D01*
X203401560Y-132754774D01*
X203376279Y-132745758D01*
X203351536Y-132736074D01*
X203327331Y-132725722D01*
X203303680Y-132714741D01*
X203280719Y-132703168D01*
X203258449Y-132691003D01*
X203236870Y-132678247D01*
X203215981Y-132664900D01*
X203195784Y-132650961D01*
X203176277Y-132636430D01*
X203157460Y-132621308D01*
X203139335Y-132605595D01*
X203121900Y-132589290D01*
X203105156Y-132572393D01*
X203089103Y-132554905D01*
X203073741Y-132536825D01*
X203059069Y-132518154D01*
X203045088Y-132498891D01*
X203031798Y-132479037D01*
X203019257Y-132458614D01*
X203007526Y-132437767D01*
X202996604Y-132416497D01*
X202986490Y-132394804D01*
X202977186Y-132372686D01*
X202968691Y-132350145D01*
X202961005Y-132327181D01*
X202954128Y-132303793D01*
X202948060Y-132279981D01*
X202942802Y-132255745D01*
X202938352Y-132231086D01*
X202934711Y-132206004D01*
X202931879Y-132180498D01*
X202929857Y-132154568D01*
X202928643Y-132128214D01*
X202928239Y-132101437D01*
X203387415Y-132101437D01*
X203387519Y-132111865D01*
X203388351Y-132132271D01*
X203390015Y-132152077D01*
X203394071Y-132180664D01*
X203399998Y-132207902D01*
X203407798Y-132233792D01*
X203417469Y-132258334D01*
X203429013Y-132281528D01*
X203442428Y-132303374D01*
X203457715Y-132323872D01*
X203474874Y-132343022D01*
X203493905Y-132360823D01*
X203507598Y-132371885D01*
X203529568Y-132387139D01*
X203553256Y-132400787D01*
X203578661Y-132412830D01*
X203605784Y-132423267D01*
X203624819Y-132429333D01*
X203644618Y-132434686D01*
X203665180Y-132439324D01*
X203686506Y-132443249D01*
X203708594Y-132446461D01*
X203731446Y-132448959D01*
X203755062Y-132450743D01*
X203779440Y-132451813D01*
X203804582Y-132452170D01*
X204174366Y-132452170D01*
X204174366Y-131748262D01*
X203804582Y-131748262D01*
X203791916Y-131748351D01*
X203767156Y-131749065D01*
X203743159Y-131750492D01*
X203719925Y-131752633D01*
X203697455Y-131755488D01*
X203675748Y-131759056D01*
X203654804Y-131763338D01*
X203634623Y-131768333D01*
X203615206Y-131774043D01*
X203587511Y-131783945D01*
X203561534Y-131795452D01*
X203537273Y-131808565D01*
X203514731Y-131823284D01*
X203493905Y-131839609D01*
X203481010Y-131851336D01*
X203463227Y-131870087D01*
X203447316Y-131890228D01*
X203433276Y-131911761D01*
X203421109Y-131934684D01*
X203410814Y-131958999D01*
X203402390Y-131984705D01*
X203395839Y-132011801D01*
X203391159Y-132040289D01*
X203389079Y-132060053D01*
X203387831Y-132080436D01*
X203387415Y-132101437D01*
X202928239Y-132101437D01*
X202928643Y-132074372D01*
X202929857Y-132047765D01*
X202931879Y-132021616D01*
X202934711Y-131995924D01*
X202938352Y-131970691D01*
X202942802Y-131945916D01*
X202948060Y-131921598D01*
X202954128Y-131897739D01*
X202961005Y-131874337D01*
X202968691Y-131851394D01*
X202977186Y-131828908D01*
X202986490Y-131806880D01*
X202996604Y-131785311D01*
X203007526Y-131764199D01*
X203019257Y-131743545D01*
X203031798Y-131723349D01*
X203045088Y-131703608D01*
X203059069Y-131684438D01*
X203073741Y-131665842D01*
X203089103Y-131647817D01*
X203105156Y-131630365D01*
X203121900Y-131613486D01*
X203139335Y-131597179D01*
X203157460Y-131581444D01*
X203176277Y-131566282D01*
X203195784Y-131551692D01*
X203215981Y-131537675D01*
X203236870Y-131524230D01*
X203258449Y-131511358D01*
X203280719Y-131499058D01*
X203303680Y-131487331D01*
X203327331Y-131476176D01*
X203351536Y-131465646D01*
X203376279Y-131455797D01*
X203401560Y-131446626D01*
X203427379Y-131438135D01*
X203453737Y-131430323D01*
X203480632Y-131423190D01*
X203508065Y-131416737D01*
X203536037Y-131410963D01*
X203564547Y-131405868D01*
X203593594Y-131401453D01*
X203623180Y-131397716D01*
X203653304Y-131394660D01*
X203683966Y-131392282D01*
X203715166Y-131390584D01*
X203746904Y-131389565D01*
X203779181Y-131389225D01*
X204627680Y-131389225D01*
X204627680Y-133358800D01*
G37*
G36*
X202638078Y-131858171D02*
G01*
X202201372Y-131858171D01*
X202201372Y-133358800D01*
X202638078Y-133358800D01*
X202638078Y-131858171D01*
G37*
G36*
X202420213Y-131639330D02*
G01*
X202442354Y-131638699D01*
X202463713Y-131636805D01*
X202484291Y-131633650D01*
X202504088Y-131629232D01*
X202523103Y-131623552D01*
X202547241Y-131614015D01*
X202569990Y-131602234D01*
X202591350Y-131588209D01*
X202611321Y-131571940D01*
X202616096Y-131567522D01*
X202633842Y-131549029D01*
X202649222Y-131529451D01*
X202662235Y-131508790D01*
X202672883Y-131487044D01*
X202681164Y-131464215D01*
X202687079Y-131440302D01*
X202690628Y-131415306D01*
X202691812Y-131389225D01*
X202691146Y-131369563D01*
X202688188Y-131344295D01*
X202682865Y-131320112D01*
X202675175Y-131297012D01*
X202665119Y-131274995D01*
X202652697Y-131254063D01*
X202637909Y-131234214D01*
X202620754Y-131215450D01*
X202616096Y-131210928D01*
X202596473Y-131194098D01*
X202575460Y-131179512D01*
X202553059Y-131167170D01*
X202529268Y-131157072D01*
X202510513Y-131150972D01*
X202490977Y-131146133D01*
X202470660Y-131142557D01*
X202449561Y-131140242D01*
X202427681Y-131139191D01*
X202420213Y-131139121D01*
X202397990Y-131139726D01*
X202376565Y-131141542D01*
X202355938Y-131144569D01*
X202336110Y-131148806D01*
X202317080Y-131154254D01*
X202292950Y-131163402D01*
X202270239Y-131174702D01*
X202248948Y-131188155D01*
X202229077Y-131203759D01*
X202224331Y-131207997D01*
X202206585Y-131225758D01*
X202191205Y-131244603D01*
X202178192Y-131264532D01*
X202167544Y-131285544D01*
X202159263Y-131307640D01*
X202153348Y-131330821D01*
X202149798Y-131355085D01*
X202148615Y-131380432D01*
X202149281Y-131401155D01*
X202151277Y-131421190D01*
X202154605Y-131440539D01*
X202161111Y-131465269D01*
X202169984Y-131488777D01*
X202181223Y-131511064D01*
X202194828Y-131532130D01*
X202210800Y-131551975D01*
X202224331Y-131566057D01*
X202238835Y-131579152D01*
X202259416Y-131594608D01*
X202281417Y-131607774D01*
X202304838Y-131618650D01*
X202323335Y-131625305D01*
X202342631Y-131630672D01*
X202362725Y-131634750D01*
X202383618Y-131637541D01*
X202405309Y-131639044D01*
X202420213Y-131639330D01*
G37*
G36*
X201068085Y-133374431D02*
G01*
X201097997Y-133374048D01*
X201127528Y-133372897D01*
X201156677Y-133370979D01*
X201185444Y-133368294D01*
X201213829Y-133364843D01*
X201241833Y-133360624D01*
X201269456Y-133355638D01*
X201296696Y-133349885D01*
X201323555Y-133343364D01*
X201350033Y-133336077D01*
X201376129Y-133328023D01*
X201401843Y-133319202D01*
X201427175Y-133309613D01*
X201452126Y-133299258D01*
X201476696Y-133288135D01*
X201500883Y-133276245D01*
X201524493Y-133263676D01*
X201547450Y-133250516D01*
X201569754Y-133236764D01*
X201591406Y-133222420D01*
X201612405Y-133207485D01*
X201632752Y-133191959D01*
X201652446Y-133175841D01*
X201671487Y-133159131D01*
X201689876Y-133141830D01*
X201707612Y-133123937D01*
X201724696Y-133105453D01*
X201741127Y-133086377D01*
X201756905Y-133066710D01*
X201772031Y-133046451D01*
X201786504Y-133025601D01*
X201800325Y-133004159D01*
X201813398Y-132982177D01*
X201825627Y-132959829D01*
X201837013Y-132937114D01*
X201847556Y-132914033D01*
X201857255Y-132890586D01*
X201866110Y-132866772D01*
X201874123Y-132842592D01*
X201881292Y-132818046D01*
X201887617Y-132793133D01*
X201893099Y-132767854D01*
X201897738Y-132742208D01*
X201901533Y-132716197D01*
X201904485Y-132689818D01*
X201906594Y-132663074D01*
X201907859Y-132635963D01*
X201908280Y-132608485D01*
X201907859Y-132581010D01*
X201906594Y-132553905D01*
X201904485Y-132527170D01*
X201901533Y-132500805D01*
X201897738Y-132474810D01*
X201893099Y-132449186D01*
X201887617Y-132423931D01*
X201881292Y-132399047D01*
X201874123Y-132374533D01*
X201866110Y-132350389D01*
X201857255Y-132326616D01*
X201847556Y-132303212D01*
X201837013Y-132280179D01*
X201825627Y-132257516D01*
X201813398Y-132235223D01*
X201800325Y-132213301D01*
X201786504Y-132191800D01*
X201772031Y-132170894D01*
X201756905Y-132150584D01*
X201741127Y-132130869D01*
X201724696Y-132111749D01*
X201707612Y-132093225D01*
X201689876Y-132075296D01*
X201671487Y-132057962D01*
X201652446Y-132041224D01*
X201632752Y-132025081D01*
X201612405Y-132009533D01*
X201591406Y-131994581D01*
X201569754Y-131980224D01*
X201547450Y-131966463D01*
X201524493Y-131953296D01*
X201500883Y-131940726D01*
X201476696Y-131928836D01*
X201452126Y-131917713D01*
X201427175Y-131907358D01*
X201401843Y-131897769D01*
X201376129Y-131888948D01*
X201350033Y-131880894D01*
X201323555Y-131873606D01*
X201296696Y-131867086D01*
X201269456Y-131861333D01*
X201241833Y-131856347D01*
X201213829Y-131852128D01*
X201185444Y-131848677D01*
X201156677Y-131845992D01*
X201127528Y-131844074D01*
X201097997Y-131842923D01*
X201068085Y-131842540D01*
X201038583Y-131842933D01*
X201009551Y-131844112D01*
X200980988Y-131846078D01*
X200952894Y-131848829D01*
X200925270Y-131852367D01*
X200898115Y-131856691D01*
X200871429Y-131861801D01*
X200845213Y-131867697D01*
X200819467Y-131874379D01*
X200794190Y-131881848D01*
X200769382Y-131890102D01*
X200745043Y-131899143D01*
X200721174Y-131908970D01*
X200697775Y-131919583D01*
X200674845Y-131930983D01*
X200652384Y-131943168D01*
X200630535Y-131956023D01*
X200609443Y-131969554D01*
X200589106Y-131983760D01*
X200569524Y-131998642D01*
X200550699Y-132014199D01*
X200532628Y-132030431D01*
X200515314Y-132047339D01*
X200498755Y-132064923D01*
X200482952Y-132083182D01*
X200467904Y-132102117D01*
X200453612Y-132121727D01*
X200440076Y-132142012D01*
X200427295Y-132162973D01*
X200415270Y-132184610D01*
X200404000Y-132206922D01*
X200393486Y-132229909D01*
X200732007Y-132406252D01*
X200747127Y-132381467D01*
X200763056Y-132358282D01*
X200779795Y-132336695D01*
X200797342Y-132316707D01*
X200815698Y-132298318D01*
X200834864Y-132281528D01*
X200854838Y-132266337D01*
X200875622Y-132252746D01*
X200897214Y-132240753D01*
X200919616Y-132230359D01*
X200942827Y-132221565D01*
X200966846Y-132214369D01*
X200991675Y-132208773D01*
X201017313Y-132204775D01*
X201043760Y-132202376D01*
X201071016Y-132201577D01*
X201092099Y-132202004D01*
X201112728Y-132203287D01*
X201132903Y-132205424D01*
X201152624Y-132208416D01*
X201171890Y-132212263D01*
X201199939Y-132219636D01*
X201226965Y-132228932D01*
X201252970Y-132240152D01*
X201277953Y-132253295D01*
X201301914Y-132268362D01*
X201324853Y-132285352D01*
X201346770Y-132304266D01*
X201353849Y-132310998D01*
X201373840Y-132332122D01*
X201391865Y-132354647D01*
X201407924Y-132378570D01*
X201422016Y-132403894D01*
X201434142Y-132430617D01*
X201441133Y-132449210D01*
X201447251Y-132468425D01*
X201452494Y-132488262D01*
X201456864Y-132508721D01*
X201460360Y-132529803D01*
X201462981Y-132551506D01*
X201464729Y-132573831D01*
X201465603Y-132596779D01*
X201465712Y-132608485D01*
X201465275Y-132631746D01*
X201463965Y-132654388D01*
X201461780Y-132676412D01*
X201458721Y-132697817D01*
X201454788Y-132718605D01*
X201449982Y-132738774D01*
X201444301Y-132758325D01*
X201437747Y-132777257D01*
X201430318Y-132795572D01*
X201422016Y-132813268D01*
X201407924Y-132838653D01*
X201391865Y-132862647D01*
X201373840Y-132885250D01*
X201353849Y-132906462D01*
X201332272Y-132925929D01*
X201309674Y-132943482D01*
X201286053Y-132959119D01*
X201261411Y-132972842D01*
X201235747Y-132984650D01*
X201209061Y-132994544D01*
X201181353Y-133002522D01*
X201152624Y-133008586D01*
X201132903Y-133011564D01*
X201112728Y-133013692D01*
X201092099Y-133014969D01*
X201071016Y-133015394D01*
X201043417Y-133014608D01*
X201016672Y-133012249D01*
X200990782Y-133008319D01*
X200965747Y-133002816D01*
X200941567Y-132995740D01*
X200918242Y-132987092D01*
X200895772Y-132976872D01*
X200874156Y-132965080D01*
X200853396Y-132951715D01*
X200833490Y-132936778D01*
X200814439Y-132920269D01*
X200796243Y-132902187D01*
X200778902Y-132882534D01*
X200762415Y-132861307D01*
X200746784Y-132838509D01*
X200732007Y-132814138D01*
X200393486Y-132993412D01*
X200404000Y-133015516D01*
X200415270Y-133037010D01*
X200427295Y-133057892D01*
X200440076Y-133078164D01*
X200453612Y-133097826D01*
X200467904Y-133116877D01*
X200482952Y-133135317D01*
X200498755Y-133153147D01*
X200515314Y-133170366D01*
X200532628Y-133186975D01*
X200550699Y-133202973D01*
X200569524Y-133218360D01*
X200589106Y-133233137D01*
X200609443Y-133247303D01*
X200630535Y-133260858D01*
X200652384Y-133273803D01*
X200674845Y-133285988D01*
X200697775Y-133297388D01*
X200721174Y-133308001D01*
X200745043Y-133317828D01*
X200769382Y-133326869D01*
X200794190Y-133335123D01*
X200819467Y-133342592D01*
X200845213Y-133349274D01*
X200871429Y-133355170D01*
X200898115Y-133360280D01*
X200925270Y-133364604D01*
X200952894Y-133368142D01*
X200980988Y-133370893D01*
X201009551Y-133372859D01*
X201038583Y-133374038D01*
X201068085Y-133374431D01*
G37*
G36*
X199473416Y-131842923D02*
G01*
X199502580Y-131844074D01*
X199531362Y-131845992D01*
X199559763Y-131848677D01*
X199587783Y-131852128D01*
X199615420Y-131856347D01*
X199642676Y-131861333D01*
X199669551Y-131867086D01*
X199696043Y-131873606D01*
X199722154Y-131880894D01*
X199747884Y-131888948D01*
X199773232Y-131897769D01*
X199798198Y-131907358D01*
X199822782Y-131917713D01*
X199846985Y-131928836D01*
X199870807Y-131940726D01*
X199894115Y-131953296D01*
X199916778Y-131966463D01*
X199938796Y-131980224D01*
X199960169Y-131994581D01*
X199980897Y-132009533D01*
X200000980Y-132025081D01*
X200020419Y-132041224D01*
X200039212Y-132057962D01*
X200057360Y-132075296D01*
X200074864Y-132093225D01*
X200091722Y-132111749D01*
X200107936Y-132130869D01*
X200123504Y-132150584D01*
X200138428Y-132170894D01*
X200152707Y-132191800D01*
X200166340Y-132213301D01*
X200179236Y-132235223D01*
X200191299Y-132257516D01*
X200202530Y-132280179D01*
X200212930Y-132303212D01*
X200222497Y-132326616D01*
X200231233Y-132350389D01*
X200239136Y-132374533D01*
X200246208Y-132399047D01*
X200252448Y-132423931D01*
X200257855Y-132449186D01*
X200262431Y-132474810D01*
X200266175Y-132500805D01*
X200269087Y-132527170D01*
X200271166Y-132553905D01*
X200272414Y-132581010D01*
X200272830Y-132608485D01*
X200272414Y-132635963D01*
X200271166Y-132663074D01*
X200269087Y-132689818D01*
X200266175Y-132716197D01*
X200262431Y-132742208D01*
X200257855Y-132767854D01*
X200252448Y-132793133D01*
X200246208Y-132818046D01*
X200239136Y-132842592D01*
X200231233Y-132866772D01*
X200222497Y-132890586D01*
X200212930Y-132914033D01*
X200202530Y-132937114D01*
X200191299Y-132959829D01*
X200179236Y-132982177D01*
X200166340Y-133004159D01*
X200152707Y-133025601D01*
X200138428Y-133046451D01*
X200123504Y-133066710D01*
X200107936Y-133086377D01*
X200091722Y-133105453D01*
X200074864Y-133123937D01*
X200057360Y-133141830D01*
X200039212Y-133159131D01*
X200020419Y-133175841D01*
X200000980Y-133191959D01*
X199980897Y-133207485D01*
X199960169Y-133222420D01*
X199938796Y-133236764D01*
X199916778Y-133250516D01*
X199894115Y-133263676D01*
X199870807Y-133276245D01*
X199846985Y-133288135D01*
X199822782Y-133299258D01*
X199798198Y-133309613D01*
X199773232Y-133319202D01*
X199747884Y-133328023D01*
X199722154Y-133336077D01*
X199696043Y-133343364D01*
X199669551Y-133349885D01*
X199642676Y-133355638D01*
X199615420Y-133360624D01*
X199587783Y-133364843D01*
X199559763Y-133368294D01*
X199531362Y-133370979D01*
X199502580Y-133372897D01*
X199473416Y-133374048D01*
X199443870Y-133374431D01*
X199414330Y-133374048D01*
X199385183Y-133372897D01*
X199356429Y-133370979D01*
X199328068Y-133368294D01*
X199300101Y-133364843D01*
X199272526Y-133360624D01*
X199245345Y-133355638D01*
X199218556Y-133349885D01*
X199192161Y-133343364D01*
X199166158Y-133336077D01*
X199140549Y-133328023D01*
X199115333Y-133319202D01*
X199090510Y-133309613D01*
X199066080Y-133299258D01*
X199042043Y-133288135D01*
X199018399Y-133276245D01*
X198995269Y-133263676D01*
X198972771Y-133250516D01*
X198950908Y-133236764D01*
X198929678Y-133222420D01*
X198909081Y-133207485D01*
X198889118Y-133191959D01*
X198869789Y-133175841D01*
X198851093Y-133159131D01*
X198833030Y-133141830D01*
X198815601Y-133123937D01*
X198798806Y-133105453D01*
X198782644Y-133086377D01*
X198767115Y-133066710D01*
X198752220Y-133046451D01*
X198737959Y-133025601D01*
X198724331Y-133004159D01*
X198711435Y-132982177D01*
X198699372Y-132959829D01*
X198688141Y-132937114D01*
X198677741Y-132914033D01*
X198668174Y-132890586D01*
X198659438Y-132866772D01*
X198651535Y-132842592D01*
X198644463Y-132818046D01*
X198638224Y-132793133D01*
X198632816Y-132767854D01*
X198628240Y-132742208D01*
X198624496Y-132716197D01*
X198621585Y-132689818D01*
X198619505Y-132663074D01*
X198618257Y-132635963D01*
X198617841Y-132608485D01*
X199060409Y-132608485D01*
X199060514Y-132620014D01*
X199061358Y-132642633D01*
X199063044Y-132664668D01*
X199065575Y-132686120D01*
X199068948Y-132706987D01*
X199073165Y-132727271D01*
X199078226Y-132746971D01*
X199084130Y-132766087D01*
X199090877Y-132784618D01*
X199102579Y-132811322D01*
X199116179Y-132836711D01*
X199131676Y-132860786D01*
X199149071Y-132883548D01*
X199168364Y-132904996D01*
X199189047Y-132924726D01*
X199210794Y-132942514D01*
X199233606Y-132958362D01*
X199257482Y-132972270D01*
X199282424Y-132984237D01*
X199308430Y-132994263D01*
X199335501Y-133002349D01*
X199363636Y-133008494D01*
X199382985Y-133011513D01*
X199402807Y-133013669D01*
X199423102Y-133014963D01*
X199443870Y-133015394D01*
X199464646Y-133014963D01*
X199484964Y-133013669D01*
X199504824Y-133011513D01*
X199524226Y-133008494D01*
X199552470Y-133002349D01*
X199579684Y-132994263D01*
X199605868Y-132984237D01*
X199631021Y-132972270D01*
X199655144Y-132958362D01*
X199678236Y-132942514D01*
X199700298Y-132924726D01*
X199721330Y-132904996D01*
X199734521Y-132890844D01*
X199752712Y-132868520D01*
X199768988Y-132844882D01*
X199783349Y-132819931D01*
X199795795Y-132793665D01*
X199803029Y-132775425D01*
X199809412Y-132756602D01*
X199814944Y-132737194D01*
X199819624Y-132717202D01*
X199823454Y-132696627D01*
X199826433Y-132675467D01*
X199828560Y-132653724D01*
X199829837Y-132631397D01*
X199830262Y-132608485D01*
X199830156Y-132596957D01*
X199829305Y-132574342D01*
X199827603Y-132552314D01*
X199825050Y-132530874D01*
X199821646Y-132510022D01*
X199817390Y-132489758D01*
X199812284Y-132470081D01*
X199806327Y-132450992D01*
X199799519Y-132432490D01*
X199787711Y-132405840D01*
X199773988Y-132380512D01*
X199758350Y-132356507D01*
X199740797Y-132333824D01*
X199721330Y-132312463D01*
X199700298Y-132292647D01*
X199678236Y-132274779D01*
X199655144Y-132258861D01*
X199631021Y-132244892D01*
X199605868Y-132232872D01*
X199579684Y-132222801D01*
X199552470Y-132214680D01*
X199524226Y-132208507D01*
X199504824Y-132205475D01*
X199484964Y-132203309D01*
X199464646Y-132202010D01*
X199443870Y-132201577D01*
X199423102Y-132202010D01*
X199402807Y-132203309D01*
X199382985Y-132205475D01*
X199363636Y-132208507D01*
X199335501Y-132214680D01*
X199308430Y-132222801D01*
X199282424Y-132232872D01*
X199257482Y-132244892D01*
X199233606Y-132258861D01*
X199210794Y-132274779D01*
X199189047Y-132292647D01*
X199168364Y-132312463D01*
X199155291Y-132326557D01*
X199137264Y-132348799D01*
X199121134Y-132372364D01*
X199106901Y-132397251D01*
X199094567Y-132423460D01*
X199087398Y-132441668D01*
X199081072Y-132460463D01*
X199075590Y-132479846D01*
X199070951Y-132499816D01*
X199067156Y-132520375D01*
X199064204Y-132541521D01*
X199062096Y-132563255D01*
X199060831Y-132585576D01*
X199060409Y-132608485D01*
X198617841Y-132608485D01*
X198618257Y-132581010D01*
X198619505Y-132553905D01*
X198621585Y-132527170D01*
X198624496Y-132500805D01*
X198628240Y-132474810D01*
X198632816Y-132449186D01*
X198638224Y-132423931D01*
X198644463Y-132399047D01*
X198651535Y-132374533D01*
X198659438Y-132350389D01*
X198668174Y-132326616D01*
X198677741Y-132303212D01*
X198688141Y-132280179D01*
X198699372Y-132257516D01*
X198711435Y-132235223D01*
X198724331Y-132213301D01*
X198737959Y-132191800D01*
X198752220Y-132170894D01*
X198767115Y-132150584D01*
X198782644Y-132130869D01*
X198798806Y-132111749D01*
X198815601Y-132093225D01*
X198833030Y-132075296D01*
X198851093Y-132057962D01*
X198869789Y-132041224D01*
X198889118Y-132025081D01*
X198909081Y-132009533D01*
X198929678Y-131994581D01*
X198950908Y-131980224D01*
X198972771Y-131966463D01*
X198995269Y-131953296D01*
X199018399Y-131940726D01*
X199042043Y-131928836D01*
X199066080Y-131917713D01*
X199090510Y-131907358D01*
X199115333Y-131897769D01*
X199140549Y-131888948D01*
X199166158Y-131880894D01*
X199192161Y-131873606D01*
X199218556Y-131867086D01*
X199245345Y-131861333D01*
X199272526Y-131856347D01*
X199300101Y-131852128D01*
X199328068Y-131848677D01*
X199356429Y-131845992D01*
X199385183Y-131844074D01*
X199414330Y-131842923D01*
X199443870Y-131842540D01*
X199473416Y-131842923D01*
G37*
G36*
X198296906Y-131389225D02*
G01*
X197843591Y-131389225D01*
X197843591Y-132999763D01*
X196860758Y-132999763D01*
X196860758Y-133358800D01*
X198296906Y-133358800D01*
X198296906Y-131389225D01*
G37*
G36*
X195399209Y-133358800D02*
G01*
X195872551Y-132676873D01*
X196337590Y-133358800D01*
X196858315Y-133358800D01*
X196132914Y-132359846D01*
X196821679Y-131389225D01*
X196306815Y-131389225D01*
X195855943Y-132031584D01*
X195413375Y-131389225D01*
X194923424Y-131389225D01*
X195606815Y-132343238D01*
X194876040Y-133358800D01*
X195399209Y-133358800D01*
G37*
G36*
X193843870Y-133358800D02*
G01*
X193390555Y-133358800D01*
X193390555Y-132811207D01*
X192995370Y-132811207D01*
X192963094Y-132810873D01*
X192931356Y-132809871D01*
X192900156Y-132808202D01*
X192869494Y-132805864D01*
X192839370Y-132802859D01*
X192809784Y-132799186D01*
X192780736Y-132794845D01*
X192752227Y-132789836D01*
X192724255Y-132784159D01*
X192696822Y-132777814D01*
X192669926Y-132770802D01*
X192643569Y-132763122D01*
X192617750Y-132754774D01*
X192592469Y-132745758D01*
X192567726Y-132736074D01*
X192543521Y-132725722D01*
X192519870Y-132714741D01*
X192496909Y-132703168D01*
X192474639Y-132691003D01*
X192453060Y-132678247D01*
X192432171Y-132664900D01*
X192411974Y-132650961D01*
X192392467Y-132636430D01*
X192373650Y-132621308D01*
X192355525Y-132605595D01*
X192338090Y-132589290D01*
X192321346Y-132572393D01*
X192305293Y-132554905D01*
X192289930Y-132536825D01*
X192275259Y-132518154D01*
X192261278Y-132498891D01*
X192247987Y-132479037D01*
X192235447Y-132458614D01*
X192223716Y-132437767D01*
X192212793Y-132416497D01*
X192202680Y-132394804D01*
X192193376Y-132372686D01*
X192184881Y-132350145D01*
X192177195Y-132327181D01*
X192170318Y-132303793D01*
X192164250Y-132279981D01*
X192158991Y-132255745D01*
X192154542Y-132231086D01*
X192150901Y-132206004D01*
X192148069Y-132180498D01*
X192146046Y-132154568D01*
X192144833Y-132128214D01*
X192144428Y-132101437D01*
X192603605Y-132101437D01*
X192603709Y-132111865D01*
X192604541Y-132132271D01*
X192606205Y-132152077D01*
X192610261Y-132180664D01*
X192616188Y-132207902D01*
X192623988Y-132233792D01*
X192633659Y-132258334D01*
X192645203Y-132281528D01*
X192658618Y-132303374D01*
X192673905Y-132323872D01*
X192691064Y-132343022D01*
X192710095Y-132360823D01*
X192723788Y-132371885D01*
X192745758Y-132387139D01*
X192769446Y-132400787D01*
X192794851Y-132412830D01*
X192821973Y-132423267D01*
X192841009Y-132429333D01*
X192860808Y-132434686D01*
X192881370Y-132439324D01*
X192902696Y-132443249D01*
X192924784Y-132446461D01*
X192947636Y-132448959D01*
X192971251Y-132450743D01*
X192995630Y-132451813D01*
X193020772Y-132452170D01*
X193390555Y-132452170D01*
X193390555Y-131748262D01*
X193020772Y-131748262D01*
X193008105Y-131748351D01*
X192983345Y-131749065D01*
X192959348Y-131750492D01*
X192936115Y-131752633D01*
X192913645Y-131755488D01*
X192891937Y-131759056D01*
X192870994Y-131763338D01*
X192850813Y-131768333D01*
X192831396Y-131774043D01*
X192803701Y-131783945D01*
X192777723Y-131795452D01*
X192753463Y-131808565D01*
X192730920Y-131823284D01*
X192710095Y-131839609D01*
X192697200Y-131851336D01*
X192679417Y-131870087D01*
X192663506Y-131890228D01*
X192649466Y-131911761D01*
X192637299Y-131934684D01*
X192627004Y-131958999D01*
X192618580Y-131984705D01*
X192612028Y-132011801D01*
X192607349Y-132040289D01*
X192605269Y-132060053D01*
X192604021Y-132080436D01*
X192603605Y-132101437D01*
X192144428Y-132101437D01*
X192144833Y-132074372D01*
X192146046Y-132047765D01*
X192148069Y-132021616D01*
X192150901Y-131995924D01*
X192154542Y-131970691D01*
X192158991Y-131945916D01*
X192164250Y-131921598D01*
X192170318Y-131897739D01*
X192177195Y-131874337D01*
X192184881Y-131851394D01*
X192193376Y-131828908D01*
X192202680Y-131806880D01*
X192212793Y-131785311D01*
X192223716Y-131764199D01*
X192235447Y-131743545D01*
X192247987Y-131723349D01*
X192261278Y-131703608D01*
X192275259Y-131684438D01*
X192289930Y-131665842D01*
X192305293Y-131647817D01*
X192321346Y-131630365D01*
X192338090Y-131613486D01*
X192355525Y-131597179D01*
X192373650Y-131581444D01*
X192392467Y-131566282D01*
X192411974Y-131551692D01*
X192432171Y-131537675D01*
X192453060Y-131524230D01*
X192474639Y-131511358D01*
X192496909Y-131499058D01*
X192519870Y-131487331D01*
X192543521Y-131476176D01*
X192567726Y-131465646D01*
X192592469Y-131455797D01*
X192617750Y-131446626D01*
X192643569Y-131438135D01*
X192669926Y-131430323D01*
X192696822Y-131423190D01*
X192724255Y-131416737D01*
X192752227Y-131410963D01*
X192780736Y-131405868D01*
X192809784Y-131401453D01*
X192839370Y-131397716D01*
X192869494Y-131394660D01*
X192900156Y-131392282D01*
X192931356Y-131390584D01*
X192963094Y-131389565D01*
X192995370Y-131389225D01*
X193843870Y-131389225D01*
X193843870Y-133358800D01*
G37*
G36*
X191824959Y-131264173D02*
G01*
X191388253Y-131264173D01*
X191388253Y-133358800D01*
X191824959Y-133358800D01*
X191824959Y-131264173D01*
G37*
G36*
X190397871Y-131842733D02*
G01*
X190420532Y-131843311D01*
X190443117Y-131844274D01*
X190465625Y-131845623D01*
X190488057Y-131847358D01*
X190510413Y-131849478D01*
X190532693Y-131851983D01*
X190554896Y-131854874D01*
X190577023Y-131858150D01*
X190599073Y-131861812D01*
X190621048Y-131865859D01*
X190642945Y-131870292D01*
X190664767Y-131875110D01*
X190686512Y-131880314D01*
X190708181Y-131885903D01*
X190729774Y-131891877D01*
X190751076Y-131898143D01*
X190771997Y-131904730D01*
X190792537Y-131911638D01*
X190812694Y-131918866D01*
X190832470Y-131926414D01*
X190851865Y-131934284D01*
X190870877Y-131942473D01*
X190889509Y-131950984D01*
X190907758Y-131959815D01*
X190925626Y-131968966D01*
X190943112Y-131978438D01*
X190960217Y-131988231D01*
X190976940Y-131998344D01*
X191001309Y-132014115D01*
X191024819Y-132030607D01*
X190868015Y-132336399D01*
X190862913Y-132332547D01*
X190841816Y-132317644D01*
X190825273Y-132306998D01*
X190808111Y-132296807D01*
X190790331Y-132287071D01*
X190771932Y-132277791D01*
X190752916Y-132268965D01*
X190733281Y-132260594D01*
X190713028Y-132252679D01*
X190692157Y-132245219D01*
X190670667Y-132238213D01*
X190656119Y-132233777D01*
X190634241Y-132227659D01*
X190612293Y-132222185D01*
X190590277Y-132217355D01*
X190568192Y-132213169D01*
X190546038Y-132209627D01*
X190523816Y-132206729D01*
X190501525Y-132204475D01*
X190479165Y-132202865D01*
X190456737Y-132201899D01*
X190434240Y-132201577D01*
X190423457Y-132201648D01*
X190402402Y-132202221D01*
X190382031Y-132203366D01*
X190352754Y-132206156D01*
X190325015Y-132210235D01*
X190298813Y-132215602D01*
X190274148Y-132222256D01*
X190251020Y-132230199D01*
X190229429Y-132239430D01*
X190209374Y-132249948D01*
X190190857Y-132261755D01*
X190173877Y-132274850D01*
X190163348Y-132284194D01*
X190148828Y-132299133D01*
X190135836Y-132315180D01*
X190124373Y-132332335D01*
X190114438Y-132350597D01*
X190106032Y-132369968D01*
X190099154Y-132390445D01*
X190093805Y-132412031D01*
X190089983Y-132434724D01*
X190087691Y-132458525D01*
X190086927Y-132483433D01*
X190434240Y-132483433D01*
X190454711Y-132483549D01*
X190474845Y-132483895D01*
X190514107Y-132485280D01*
X190552026Y-132487589D01*
X190588601Y-132490821D01*
X190623833Y-132494977D01*
X190657722Y-132500057D01*
X190690268Y-132506060D01*
X190721470Y-132512987D01*
X190751328Y-132520837D01*
X190779844Y-132529610D01*
X190807016Y-132539308D01*
X190832844Y-132549928D01*
X190857330Y-132561473D01*
X190880472Y-132573940D01*
X190902270Y-132587332D01*
X190922726Y-132601647D01*
X190941891Y-132616767D01*
X190959820Y-132632574D01*
X190976513Y-132649068D01*
X190991969Y-132666249D01*
X191006188Y-132684117D01*
X191019171Y-132702672D01*
X191030918Y-132721913D01*
X191041428Y-132741842D01*
X191050701Y-132762458D01*
X191058738Y-132783760D01*
X191065539Y-132805750D01*
X191071103Y-132828426D01*
X191075431Y-132851790D01*
X191078522Y-132875840D01*
X191080377Y-132900577D01*
X191080995Y-132926001D01*
X191080734Y-132942075D01*
X191079361Y-132965786D01*
X191076812Y-132989016D01*
X191073087Y-133011765D01*
X191068186Y-133034033D01*
X191062108Y-133055820D01*
X191054853Y-133077126D01*
X191046423Y-133097952D01*
X191036816Y-133118297D01*
X191026032Y-133138160D01*
X191014072Y-133157543D01*
X191005411Y-133170072D01*
X190991540Y-133188222D01*
X190976612Y-133205598D01*
X190960628Y-133222202D01*
X190943587Y-133238033D01*
X190925491Y-133253091D01*
X190906339Y-133267376D01*
X190886130Y-133280889D01*
X190864865Y-133293629D01*
X190842544Y-133305596D01*
X190819167Y-133316790D01*
X190794858Y-133327091D01*
X190769742Y-133336379D01*
X190743819Y-133344653D01*
X190717088Y-133351915D01*
X190689551Y-133358163D01*
X190661206Y-133363398D01*
X190641862Y-133366325D01*
X190622158Y-133368802D01*
X190602096Y-133370828D01*
X190581675Y-133372405D01*
X190560895Y-133373530D01*
X190539757Y-133374206D01*
X190518260Y-133374431D01*
X190497463Y-133374238D01*
X190477082Y-133373660D01*
X190457117Y-133372697D01*
X190437568Y-133371347D01*
X190399718Y-133367493D01*
X190363532Y-133362097D01*
X190329009Y-133355159D01*
X190296151Y-133346679D01*
X190264957Y-133336657D01*
X190235426Y-133325094D01*
X190207560Y-133311989D01*
X190181357Y-133297342D01*
X190156818Y-133281153D01*
X190133943Y-133263423D01*
X190112732Y-133244150D01*
X190093185Y-133223336D01*
X190075302Y-133200980D01*
X190059083Y-133177083D01*
X190059083Y-133358800D01*
X189650220Y-133358800D01*
X189650220Y-132733538D01*
X190086927Y-132733538D01*
X190086927Y-132888388D01*
X190089266Y-132894659D01*
X190096872Y-132912896D01*
X190108389Y-132935862D01*
X190121479Y-132957287D01*
X190136142Y-132977170D01*
X190152376Y-132995511D01*
X190170183Y-133012310D01*
X190189562Y-133027568D01*
X190210514Y-133041284D01*
X190232526Y-133053420D01*
X190255332Y-133063937D01*
X190278932Y-133072837D01*
X190303326Y-133080118D01*
X190328513Y-133085782D01*
X190347925Y-133088967D01*
X190367783Y-133091243D01*
X190388088Y-133092608D01*
X190408839Y-133093063D01*
X190422997Y-133092872D01*
X190443519Y-133091871D01*
X190463183Y-133090010D01*
X190488065Y-133086194D01*
X190511421Y-133080851D01*
X190533250Y-133073982D01*
X190553553Y-133065586D01*
X190572329Y-133055664D01*
X190589578Y-133044215D01*
X190605034Y-133031331D01*
X190621456Y-133013681D01*
X190634658Y-132994313D01*
X190644640Y-132973228D01*
X190651402Y-132950425D01*
X190654494Y-132930947D01*
X190655524Y-132910370D01*
X190655261Y-132899490D01*
X190653158Y-132878768D01*
X190648953Y-132859427D01*
X190638702Y-132833006D01*
X190623719Y-132809693D01*
X190604006Y-132789489D01*
X190588235Y-132777746D01*
X190570361Y-132767385D01*
X190550385Y-132758405D01*
X190528306Y-132750807D01*
X190504124Y-132744590D01*
X190477839Y-132739755D01*
X190449452Y-132736301D01*
X190418961Y-132734229D01*
X190386368Y-132733538D01*
X190086927Y-132733538D01*
X189650220Y-132733538D01*
X189650220Y-132506392D01*
X189650404Y-132485734D01*
X189650953Y-132465405D01*
X189651869Y-132445404D01*
X189653151Y-132425731D01*
X189656815Y-132387369D01*
X189661944Y-132350321D01*
X189668539Y-132314585D01*
X189676599Y-132280162D01*
X189686124Y-132247052D01*
X189697115Y-132215254D01*
X189709571Y-132184770D01*
X189723493Y-132155598D01*
X189738881Y-132127739D01*
X189755733Y-132101193D01*
X189774052Y-132075960D01*
X189793835Y-132052039D01*
X189815084Y-132029431D01*
X189837799Y-132008137D01*
X189861880Y-131988084D01*
X189887228Y-131969325D01*
X189913842Y-131951860D01*
X189941724Y-131935688D01*
X189970873Y-131920810D01*
X190001289Y-131907226D01*
X190032972Y-131894936D01*
X190065922Y-131883939D01*
X190100139Y-131874236D01*
X190135623Y-131865827D01*
X190172373Y-131858711D01*
X190210391Y-131852890D01*
X190229875Y-131850464D01*
X190249676Y-131848362D01*
X190269794Y-131846583D01*
X190290228Y-131845127D01*
X190310979Y-131843995D01*
X190332047Y-131843187D01*
X190353432Y-131842702D01*
X190375133Y-131842540D01*
X190397871Y-131842733D01*
G37*
G36*
X188283926Y-133276734D02*
G01*
X188300504Y-133288564D01*
X188317998Y-133299632D01*
X188336408Y-133309936D01*
X188355733Y-133319476D01*
X188375975Y-133328254D01*
X188397133Y-133336268D01*
X188419206Y-133343519D01*
X188442195Y-133350007D01*
X188465795Y-133355731D01*
X188489701Y-133360692D01*
X188513911Y-133364890D01*
X188538427Y-133368325D01*
X188563248Y-133370996D01*
X188588375Y-133372905D01*
X188613806Y-133374049D01*
X188639544Y-133374431D01*
X188672711Y-133373889D01*
X188704924Y-133372263D01*
X188736184Y-133369554D01*
X188766489Y-133365760D01*
X188795840Y-133360883D01*
X188824237Y-133354922D01*
X188851680Y-133347877D01*
X188878169Y-133339749D01*
X188903704Y-133330536D01*
X188928284Y-133320240D01*
X188951911Y-133308859D01*
X188974584Y-133296395D01*
X188996302Y-133282848D01*
X189017067Y-133268216D01*
X189036877Y-133252500D01*
X189055733Y-133235701D01*
X189073479Y-133217850D01*
X189090080Y-133198981D01*
X189105536Y-133179092D01*
X189119847Y-133158185D01*
X189133013Y-133136258D01*
X189145035Y-133113313D01*
X189155911Y-133089348D01*
X189165643Y-133064365D01*
X189174229Y-133038362D01*
X189181671Y-133011341D01*
X189187968Y-132983301D01*
X189193120Y-132954242D01*
X189197127Y-132924164D01*
X189199989Y-132893067D01*
X189201707Y-132860951D01*
X189202279Y-132827816D01*
X189202279Y-132202065D01*
X189434798Y-132202065D01*
X189434798Y-131858171D01*
X189202279Y-131858171D01*
X189202279Y-131514278D01*
X188765573Y-131514278D01*
X188765573Y-131858171D01*
X188390416Y-131858171D01*
X188390416Y-132202065D01*
X188765573Y-132202065D01*
X188765573Y-132816092D01*
X188764810Y-132839341D01*
X188762520Y-132861216D01*
X188758704Y-132881717D01*
X188753361Y-132900844D01*
X188744536Y-132922821D01*
X188733325Y-132942652D01*
X188719730Y-132960335D01*
X188716724Y-132963615D01*
X188700457Y-132978532D01*
X188682187Y-132990920D01*
X188661913Y-133000781D01*
X188639635Y-133008113D01*
X188620370Y-133012158D01*
X188599824Y-133014585D01*
X188577994Y-133015394D01*
X188552585Y-133014532D01*
X188528138Y-133011944D01*
X188504653Y-133007632D01*
X188482129Y-133001594D01*
X188460567Y-132993832D01*
X188439967Y-132984345D01*
X188420328Y-132973132D01*
X188401651Y-132960195D01*
X188283926Y-133276734D01*
G37*
G36*
X187421640Y-131842923D02*
G01*
X187449524Y-131844074D01*
X187477068Y-131845992D01*
X187504272Y-131848677D01*
X187531137Y-131852128D01*
X187557662Y-131856347D01*
X187583848Y-131861333D01*
X187609694Y-131867086D01*
X187635200Y-131873606D01*
X187660366Y-131880894D01*
X187685193Y-131888948D01*
X187709680Y-131897769D01*
X187733828Y-131907358D01*
X187757636Y-131917713D01*
X187781104Y-131928836D01*
X187804233Y-131940726D01*
X187826825Y-131953302D01*
X187848807Y-131966486D01*
X187870179Y-131980276D01*
X187890939Y-131994673D01*
X187911089Y-132009676D01*
X187930629Y-132025287D01*
X187949557Y-132041504D01*
X187967876Y-132058328D01*
X187985583Y-132075759D01*
X188002680Y-132093797D01*
X188019167Y-132112442D01*
X188035042Y-132131693D01*
X188050308Y-132151551D01*
X188064962Y-132172016D01*
X188079006Y-132193088D01*
X188092440Y-132214766D01*
X188105157Y-132236855D01*
X188117055Y-132259279D01*
X188128131Y-132282040D01*
X188138388Y-132305136D01*
X188147824Y-132328568D01*
X188156439Y-132352336D01*
X188164234Y-132376440D01*
X188171208Y-132400879D01*
X188177362Y-132425654D01*
X188182695Y-132450766D01*
X188187208Y-132476213D01*
X188190900Y-132501996D01*
X188193772Y-132528114D01*
X188195823Y-132554569D01*
X188197054Y-132581359D01*
X188197464Y-132608485D01*
X188197048Y-132635963D01*
X188195800Y-132663074D01*
X188193720Y-132689818D01*
X188190808Y-132716197D01*
X188187065Y-132742208D01*
X188182489Y-132767854D01*
X188177081Y-132793133D01*
X188170842Y-132818046D01*
X188163770Y-132842592D01*
X188155866Y-132866772D01*
X188147131Y-132890586D01*
X188137563Y-132914033D01*
X188127164Y-132937114D01*
X188115933Y-132959829D01*
X188103869Y-132982177D01*
X188090974Y-133004159D01*
X188077314Y-133025601D01*
X188062955Y-133046451D01*
X188047898Y-133066710D01*
X188032142Y-133086377D01*
X188015688Y-133105453D01*
X187998536Y-133123937D01*
X187980685Y-133141830D01*
X187962136Y-133159131D01*
X187942889Y-133175841D01*
X187922943Y-133191959D01*
X187902298Y-133207485D01*
X187880956Y-133222420D01*
X187858915Y-133236764D01*
X187836175Y-133250516D01*
X187812738Y-133263676D01*
X187788601Y-133276245D01*
X187763828Y-133288135D01*
X187738600Y-133299258D01*
X187712919Y-133309613D01*
X187686783Y-133319202D01*
X187660193Y-133328023D01*
X187633149Y-133336077D01*
X187605650Y-133343364D01*
X187577698Y-133349885D01*
X187549291Y-133355638D01*
X187520430Y-133360624D01*
X187491116Y-133364843D01*
X187461347Y-133368294D01*
X187431123Y-133370979D01*
X187400446Y-133372897D01*
X187369315Y-133374048D01*
X187337729Y-133374431D01*
X187312367Y-133374189D01*
X187287387Y-133373464D01*
X187262789Y-133372254D01*
X187238574Y-133370561D01*
X187214742Y-133368385D01*
X187191292Y-133365724D01*
X187168225Y-133362580D01*
X187145541Y-133358952D01*
X187123239Y-133354841D01*
X187101319Y-133350245D01*
X187079782Y-133345166D01*
X187058628Y-133339604D01*
X187037857Y-133333557D01*
X187017468Y-133327027D01*
X186997461Y-133320013D01*
X186977837Y-133312515D01*
X186958596Y-133304534D01*
X186939737Y-133296069D01*
X186921261Y-133287120D01*
X186903168Y-133277688D01*
X186885457Y-133267772D01*
X186868128Y-133257372D01*
X186851183Y-133246488D01*
X186834619Y-133235121D01*
X186818439Y-133223270D01*
X186802641Y-133210935D01*
X186787225Y-133198117D01*
X186772192Y-133184815D01*
X186757542Y-133171029D01*
X186743275Y-133156759D01*
X186729389Y-133142006D01*
X186715887Y-133126769D01*
X186948406Y-132880572D01*
X186968258Y-132897455D01*
X186988492Y-132913178D01*
X187009108Y-132927741D01*
X187030105Y-132941144D01*
X187051484Y-132953387D01*
X187073245Y-132964469D01*
X187095387Y-132974392D01*
X187117911Y-132983154D01*
X187129373Y-132987058D01*
X187152927Y-132994111D01*
X187177321Y-133000156D01*
X187202554Y-133005193D01*
X187222030Y-133008310D01*
X187241978Y-133010860D01*
X187262399Y-133012844D01*
X187283292Y-133014261D01*
X187304657Y-133015111D01*
X187326494Y-133015394D01*
X187347646Y-133015098D01*
X187368359Y-133014211D01*
X187388633Y-133012732D01*
X187408468Y-133010662D01*
X187437398Y-133006447D01*
X187465340Y-133000902D01*
X187492295Y-132994025D01*
X187518263Y-132985818D01*
X187543243Y-132976279D01*
X187567235Y-132965410D01*
X187590240Y-132953210D01*
X187612258Y-132939679D01*
X187626279Y-132930001D01*
X187646080Y-132914682D01*
X187664404Y-132898402D01*
X187681251Y-132881160D01*
X187696621Y-132862956D01*
X187710514Y-132843791D01*
X187722931Y-132823663D01*
X187733870Y-132802575D01*
X187743333Y-132780524D01*
X187751318Y-132757512D01*
X187757827Y-132733538D01*
X186618190Y-132733538D01*
X186617679Y-132727038D01*
X186615797Y-132702938D01*
X186614175Y-132681876D01*
X186612513Y-132659820D01*
X186611053Y-132639619D01*
X186609885Y-132619721D01*
X186610284Y-132590696D01*
X186611481Y-132562117D01*
X186613475Y-132533986D01*
X186616266Y-132506300D01*
X186619280Y-132483433D01*
X187021190Y-132483433D01*
X187763200Y-132483433D01*
X187760086Y-132466441D01*
X187754270Y-132441805D01*
X187747080Y-132418190D01*
X187738516Y-132395597D01*
X187728579Y-132374026D01*
X187717267Y-132353476D01*
X187704582Y-132333949D01*
X187690523Y-132315443D01*
X187675090Y-132297959D01*
X187658283Y-132281497D01*
X187640102Y-132266057D01*
X187627336Y-132256415D01*
X187607487Y-132243119D01*
X187586796Y-132231222D01*
X187565263Y-132220725D01*
X187542889Y-132211627D01*
X187519674Y-132203929D01*
X187495617Y-132197631D01*
X187470718Y-132192732D01*
X187444978Y-132189233D01*
X187418397Y-132187134D01*
X187390974Y-132186434D01*
X187372954Y-132186751D01*
X187346581Y-132188414D01*
X187320999Y-132191502D01*
X187296206Y-132196016D01*
X187272203Y-132201955D01*
X187248991Y-132209319D01*
X187226568Y-132218109D01*
X187204935Y-132228324D01*
X187184093Y-132239965D01*
X187164040Y-132253031D01*
X187144777Y-132267522D01*
X187132445Y-132277811D01*
X187115098Y-132294046D01*
X187099134Y-132311242D01*
X187084553Y-132329400D01*
X187071354Y-132348519D01*
X187059537Y-132368601D01*
X187049103Y-132389644D01*
X187040051Y-132411649D01*
X187032382Y-132434615D01*
X187026095Y-132458543D01*
X187021190Y-132483433D01*
X186619280Y-132483433D01*
X186619856Y-132479062D01*
X186624242Y-132452269D01*
X186629427Y-132425923D01*
X186635409Y-132400024D01*
X186642188Y-132374571D01*
X186649766Y-132349565D01*
X186658141Y-132325005D01*
X186667313Y-132300892D01*
X186677283Y-132277225D01*
X186688051Y-132254005D01*
X186699616Y-132231231D01*
X186711979Y-132208904D01*
X186725042Y-132187121D01*
X186738708Y-132165978D01*
X186752977Y-132145477D01*
X186767850Y-132125617D01*
X186783325Y-132106399D01*
X186799403Y-132087821D01*
X186816084Y-132069884D01*
X186833368Y-132052589D01*
X186851255Y-132035934D01*
X186869745Y-132019921D01*
X186888838Y-132004549D01*
X186908533Y-131989818D01*
X186928832Y-131975729D01*
X186949734Y-131962280D01*
X186971239Y-131949472D01*
X186993347Y-131937306D01*
X187015918Y-131925831D01*
X187038814Y-131915095D01*
X187062034Y-131905100D01*
X187085579Y-131895846D01*
X187109448Y-131887332D01*
X187133641Y-131879558D01*
X187158159Y-131872525D01*
X187183001Y-131866231D01*
X187208168Y-131860679D01*
X187233659Y-131855866D01*
X187259474Y-131851794D01*
X187285614Y-131848463D01*
X187312078Y-131845872D01*
X187338866Y-131844021D01*
X187365979Y-131842910D01*
X187393417Y-131842540D01*
X187421640Y-131842923D01*
G37*
G36*
X185496627Y-133358800D02*
G01*
X185043312Y-133358800D01*
X185043312Y-132811207D01*
X184648127Y-132811207D01*
X184626145Y-132811207D01*
X184248057Y-133358800D01*
X183760548Y-133358800D01*
X184200186Y-132728653D01*
X184176410Y-132717798D01*
X184153321Y-132706358D01*
X184130920Y-132694335D01*
X184109205Y-132681728D01*
X184088177Y-132668537D01*
X184067836Y-132654762D01*
X184048183Y-132640403D01*
X184029216Y-132625460D01*
X184010935Y-132609934D01*
X183993342Y-132593823D01*
X183976436Y-132577129D01*
X183960217Y-132559851D01*
X183944685Y-132541988D01*
X183929839Y-132523542D01*
X183915681Y-132504512D01*
X183902209Y-132484899D01*
X183889491Y-132464754D01*
X183877594Y-132444133D01*
X183866517Y-132423035D01*
X183856261Y-132401459D01*
X183846825Y-132379407D01*
X183838210Y-132356877D01*
X183830415Y-132333871D01*
X183823441Y-132310387D01*
X183817287Y-132286426D01*
X183811954Y-132261989D01*
X183807441Y-132237074D01*
X183803749Y-132211682D01*
X183800877Y-132185814D01*
X183798826Y-132159468D01*
X183797595Y-132132645D01*
X183797185Y-132105345D01*
X183797257Y-132100460D01*
X184256361Y-132100460D01*
X184256465Y-132110829D01*
X184257297Y-132131128D01*
X184258961Y-132150843D01*
X184263017Y-132179320D01*
X184268945Y-132206484D01*
X184276744Y-132232334D01*
X184286416Y-132256871D01*
X184297959Y-132280093D01*
X184311374Y-132302002D01*
X184326661Y-132322597D01*
X184343820Y-132341879D01*
X184362851Y-132359846D01*
X184376544Y-132371026D01*
X184398515Y-132386443D01*
X184422202Y-132400238D01*
X184447607Y-132412410D01*
X184474730Y-132422958D01*
X184493765Y-132429089D01*
X184513564Y-132434499D01*
X184534127Y-132439187D01*
X184555452Y-132443154D01*
X184577541Y-132446400D01*
X184600393Y-132448924D01*
X184624008Y-132450727D01*
X184648386Y-132451809D01*
X184673528Y-132452170D01*
X185043312Y-132452170D01*
X185043312Y-131748262D01*
X184673528Y-131748262D01*
X184660862Y-131748351D01*
X184636102Y-131749061D01*
X184612105Y-131750480D01*
X184588871Y-131752610D01*
X184566401Y-131755449D01*
X184544694Y-131758998D01*
X184523750Y-131763257D01*
X184503570Y-131768226D01*
X184484152Y-131773905D01*
X184456457Y-131783754D01*
X184430480Y-131795200D01*
X184406220Y-131808243D01*
X184383677Y-131822883D01*
X184362851Y-131839121D01*
X184349956Y-131850789D01*
X184332173Y-131869458D01*
X184316262Y-131889526D01*
X184302223Y-131910994D01*
X184290055Y-131933862D01*
X184279760Y-131958129D01*
X184271337Y-131983796D01*
X184264785Y-132010863D01*
X184260105Y-132039329D01*
X184258025Y-132059084D01*
X184256777Y-132079461D01*
X184256361Y-132100460D01*
X183797257Y-132100460D01*
X183797589Y-132078099D01*
X183798803Y-132051314D01*
X183800826Y-132024991D01*
X183803657Y-131999130D01*
X183807298Y-131973731D01*
X183811748Y-131948793D01*
X183817007Y-131924317D01*
X183823075Y-131900303D01*
X183829952Y-131876751D01*
X183837638Y-131853661D01*
X183846133Y-131831032D01*
X183855437Y-131808865D01*
X183865550Y-131787160D01*
X183876472Y-131765916D01*
X183888203Y-131745135D01*
X183900744Y-131724815D01*
X183914034Y-131705012D01*
X183928015Y-131685782D01*
X183942687Y-131667124D01*
X183958049Y-131649039D01*
X183974103Y-131631526D01*
X183990847Y-131614585D01*
X184008281Y-131598217D01*
X184026407Y-131582421D01*
X184045223Y-131567198D01*
X184064730Y-131552547D01*
X184084928Y-131538469D01*
X184105816Y-131524963D01*
X184127395Y-131512030D01*
X184149665Y-131499669D01*
X184172626Y-131487880D01*
X184196278Y-131476664D01*
X184220483Y-131466076D01*
X184245225Y-131456171D01*
X184270506Y-131446949D01*
X184296326Y-131438410D01*
X184322683Y-131430554D01*
X184349578Y-131423381D01*
X184377012Y-131416891D01*
X184404983Y-131411085D01*
X184433493Y-131405962D01*
X184462541Y-131401521D01*
X184492126Y-131397764D01*
X184522250Y-131394690D01*
X184552912Y-131392299D01*
X184584112Y-131390591D01*
X184615851Y-131389567D01*
X184648127Y-131389225D01*
X185496627Y-131389225D01*
X185496627Y-133358800D01*
G37*
G36*
X182806427Y-131842923D02*
G01*
X182834311Y-131844074D01*
X182861855Y-131845992D01*
X182889059Y-131848677D01*
X182915924Y-131852128D01*
X182942449Y-131856347D01*
X182968635Y-131861333D01*
X182994481Y-131867086D01*
X183019987Y-131873606D01*
X183045153Y-131880894D01*
X183069980Y-131888948D01*
X183094468Y-131897769D01*
X183118615Y-131907358D01*
X183142423Y-131917713D01*
X183165892Y-131928836D01*
X183189020Y-131940726D01*
X183211613Y-131953302D01*
X183233594Y-131966486D01*
X183254966Y-131980276D01*
X183275726Y-131994673D01*
X183295876Y-132009676D01*
X183315416Y-132025287D01*
X183334345Y-132041504D01*
X183352663Y-132058328D01*
X183370370Y-132075759D01*
X183387467Y-132093797D01*
X183403954Y-132112442D01*
X183419830Y-132131693D01*
X183435095Y-132151551D01*
X183449749Y-132172016D01*
X183463793Y-132193088D01*
X183477227Y-132214766D01*
X183489945Y-132236855D01*
X183501842Y-132259279D01*
X183512919Y-132282040D01*
X183523175Y-132305136D01*
X183532611Y-132328568D01*
X183541226Y-132352336D01*
X183549021Y-132376440D01*
X183555995Y-132400879D01*
X183562149Y-132425654D01*
X183567482Y-132450766D01*
X183571995Y-132476213D01*
X183575687Y-132501996D01*
X183578559Y-132528114D01*
X183580610Y-132554569D01*
X183581841Y-132581359D01*
X183582251Y-132608485D01*
X183581835Y-132635963D01*
X183580587Y-132663074D01*
X183578507Y-132689818D01*
X183575596Y-132716197D01*
X183571852Y-132742208D01*
X183567276Y-132767854D01*
X183561868Y-132793133D01*
X183555629Y-132818046D01*
X183548557Y-132842592D01*
X183540654Y-132866772D01*
X183531918Y-132890586D01*
X183522351Y-132914033D01*
X183511951Y-132937114D01*
X183500720Y-132959829D01*
X183488657Y-132982177D01*
X183475761Y-133004159D01*
X183462101Y-133025601D01*
X183447742Y-133046451D01*
X183432685Y-133066710D01*
X183416929Y-133086377D01*
X183400475Y-133105453D01*
X183383323Y-133123937D01*
X183365472Y-133141830D01*
X183346923Y-133159131D01*
X183327676Y-133175841D01*
X183307730Y-133191959D01*
X183287086Y-133207485D01*
X183265743Y-133222420D01*
X183243702Y-133236764D01*
X183220963Y-133250516D01*
X183197525Y-133263676D01*
X183173389Y-133276245D01*
X183148615Y-133288135D01*
X183123388Y-133299258D01*
X183097706Y-133309613D01*
X183071570Y-133319202D01*
X183044980Y-133328023D01*
X183017936Y-133336077D01*
X182990437Y-133343364D01*
X182962485Y-133349885D01*
X182934078Y-133355638D01*
X182905218Y-133360624D01*
X182875903Y-133364843D01*
X182846134Y-133368294D01*
X182815911Y-133370979D01*
X182785233Y-133372897D01*
X182754102Y-133374048D01*
X182722516Y-133374431D01*
X182697154Y-133374189D01*
X182672174Y-133373464D01*
X182647576Y-133372254D01*
X182623361Y-133370561D01*
X182599529Y-133368385D01*
X182576079Y-133365724D01*
X182553012Y-133362580D01*
X182530328Y-133358952D01*
X182508026Y-133354841D01*
X182486106Y-133350245D01*
X182464570Y-133345166D01*
X182443415Y-133339604D01*
X182422644Y-133333557D01*
X182402255Y-133327027D01*
X182382248Y-133320013D01*
X182362624Y-133312515D01*
X182343383Y-133304534D01*
X182324525Y-133296069D01*
X182306048Y-133287120D01*
X182287955Y-133277688D01*
X182270244Y-133267772D01*
X182252916Y-133257372D01*
X182235970Y-133246488D01*
X182219407Y-133235121D01*
X182203226Y-133223270D01*
X182187428Y-133210935D01*
X182172012Y-133198117D01*
X182156980Y-133184815D01*
X182142329Y-133171029D01*
X182128062Y-133156759D01*
X182114177Y-133142006D01*
X182100674Y-133126769D01*
X182333193Y-132880572D01*
X182353046Y-132897455D01*
X182373280Y-132913178D01*
X182393895Y-132927741D01*
X182414892Y-132941144D01*
X182436271Y-132953387D01*
X182458032Y-132964469D01*
X182480174Y-132974392D01*
X182502698Y-132983154D01*
X182514160Y-132987058D01*
X182537714Y-132994111D01*
X182562108Y-133000156D01*
X182587341Y-133005193D01*
X182606817Y-133008310D01*
X182626765Y-133010860D01*
X182647186Y-133012844D01*
X182668079Y-133014261D01*
X182689444Y-133015111D01*
X182711281Y-133015394D01*
X182732433Y-133015098D01*
X182753146Y-133014211D01*
X182773420Y-133012732D01*
X182793255Y-133010662D01*
X182822185Y-133006447D01*
X182850127Y-133000902D01*
X182877082Y-132994025D01*
X182903050Y-132985818D01*
X182928030Y-132976279D01*
X182952023Y-132965410D01*
X182975028Y-132953210D01*
X182997045Y-132939679D01*
X183011066Y-132930001D01*
X183030867Y-132914682D01*
X183049191Y-132898402D01*
X183066038Y-132881160D01*
X183081408Y-132862956D01*
X183095302Y-132843791D01*
X183107718Y-132823663D01*
X183118657Y-132802575D01*
X183128120Y-132780524D01*
X183136105Y-132757512D01*
X183142614Y-132733538D01*
X182002977Y-132733538D01*
X182002466Y-132727038D01*
X182000585Y-132702938D01*
X181998963Y-132681876D01*
X181997300Y-132659820D01*
X181995840Y-132639619D01*
X181994673Y-132619721D01*
X181995071Y-132590696D01*
X181996268Y-132562117D01*
X181998262Y-132533986D01*
X182001053Y-132506300D01*
X182004067Y-132483433D01*
X182405978Y-132483433D01*
X183147987Y-132483433D01*
X183144873Y-132466441D01*
X183139057Y-132441805D01*
X183131867Y-132418190D01*
X183123304Y-132395597D01*
X183113366Y-132374026D01*
X183102054Y-132353476D01*
X183089369Y-132333949D01*
X183075310Y-132315443D01*
X183059877Y-132297959D01*
X183043070Y-132281497D01*
X183024889Y-132266057D01*
X183012123Y-132256415D01*
X182992274Y-132243119D01*
X182971583Y-132231222D01*
X182950050Y-132220725D01*
X182927676Y-132211627D01*
X182904461Y-132203929D01*
X182880404Y-132197631D01*
X182855506Y-132192732D01*
X182829766Y-132189233D01*
X182803184Y-132187134D01*
X182775761Y-132186434D01*
X182757741Y-132186751D01*
X182731368Y-132188414D01*
X182705786Y-132191502D01*
X182680993Y-132196016D01*
X182656991Y-132201955D01*
X182633778Y-132209319D01*
X182611355Y-132218109D01*
X182589723Y-132228324D01*
X182568880Y-132239965D01*
X182548827Y-132253031D01*
X182529564Y-132267522D01*
X182517232Y-132277811D01*
X182499886Y-132294046D01*
X182483922Y-132311242D01*
X182469340Y-132329400D01*
X182456141Y-132348519D01*
X182444324Y-132368601D01*
X182433890Y-132389644D01*
X182424838Y-132411649D01*
X182417169Y-132434615D01*
X182410882Y-132458543D01*
X182405978Y-132483433D01*
X182004067Y-132483433D01*
X182004643Y-132479062D01*
X182009030Y-132452269D01*
X182014214Y-132425923D01*
X182020196Y-132400024D01*
X182026976Y-132374571D01*
X182034553Y-132349565D01*
X182042928Y-132325005D01*
X182052100Y-132300892D01*
X182062070Y-132277225D01*
X182072838Y-132254005D01*
X182084403Y-132231231D01*
X182096766Y-132208904D01*
X182109829Y-132187121D01*
X182123495Y-132165978D01*
X182137765Y-132145477D01*
X182152637Y-132125617D01*
X182168112Y-132106399D01*
X182184190Y-132087821D01*
X182200871Y-132069884D01*
X182218155Y-132052589D01*
X182236042Y-132035934D01*
X182254532Y-132019921D01*
X182273625Y-132004549D01*
X182293321Y-131989818D01*
X182313619Y-131975729D01*
X182334521Y-131962280D01*
X182356026Y-131949472D01*
X182378134Y-131937306D01*
X182400705Y-131925831D01*
X182423601Y-131915095D01*
X182446821Y-131905100D01*
X182470366Y-131895846D01*
X182494235Y-131887332D01*
X182518429Y-131879558D01*
X182542946Y-131872525D01*
X182567788Y-131866231D01*
X182592955Y-131860679D01*
X182618446Y-131855866D01*
X182644261Y-131851794D01*
X182670401Y-131848463D01*
X182696865Y-131845872D01*
X182723654Y-131844021D01*
X182750766Y-131842910D01*
X182778204Y-131842540D01*
X182806427Y-131842923D01*
G37*
G36*
X180235636Y-131858171D02*
G01*
X180871644Y-133358800D01*
X181322028Y-133358800D01*
X181955105Y-131858171D01*
X181504233Y-131858171D01*
X181087066Y-132883503D01*
X180655733Y-131858171D01*
X180235636Y-131858171D01*
G37*
G36*
X179981135Y-133374431D02*
G01*
X180002341Y-133373757D01*
X180022912Y-133371735D01*
X180042847Y-133368365D01*
X180062147Y-133363646D01*
X180080811Y-133357580D01*
X180104709Y-133347394D01*
X180127477Y-133334812D01*
X180143812Y-133323802D01*
X180159511Y-133311445D01*
X180174575Y-133297739D01*
X180188543Y-133283020D01*
X180201136Y-133267623D01*
X180212356Y-133251547D01*
X180225179Y-133229057D01*
X180235559Y-133205362D01*
X180241742Y-133186799D01*
X180246550Y-133167558D01*
X180249985Y-133147638D01*
X180252046Y-133127040D01*
X180252733Y-133105764D01*
X180252046Y-133084090D01*
X180249985Y-133063214D01*
X180246550Y-133043137D01*
X180241742Y-133023859D01*
X180233193Y-132999396D01*
X180222202Y-132976353D01*
X180208769Y-132954730D01*
X180192893Y-132934527D01*
X180179383Y-132920306D01*
X180174575Y-132915743D01*
X180159511Y-132902736D01*
X180143812Y-132891008D01*
X180121891Y-132877361D01*
X180098841Y-132865988D01*
X180074661Y-132856890D01*
X180055784Y-132851559D01*
X180036272Y-132847508D01*
X180016125Y-132844736D01*
X179995343Y-132843243D01*
X179981135Y-132842959D01*
X179959933Y-132843598D01*
X179939375Y-132845517D01*
X179919461Y-132848716D01*
X179900191Y-132853194D01*
X179875500Y-132861155D01*
X179851953Y-132871390D01*
X179829551Y-132883900D01*
X179808295Y-132898684D01*
X179793103Y-132911265D01*
X179788183Y-132915743D01*
X179774128Y-132929698D01*
X179757538Y-132949546D01*
X179743407Y-132970814D01*
X179731733Y-132993502D01*
X179722516Y-133017610D01*
X179717217Y-133036622D01*
X179713300Y-133056433D01*
X179710765Y-133077042D01*
X179709613Y-133098450D01*
X179709537Y-133105764D01*
X179710228Y-133127040D01*
X179712301Y-133147638D01*
X179715758Y-133167558D01*
X179720596Y-133186799D01*
X179726817Y-133205362D01*
X179737262Y-133229057D01*
X179750165Y-133251547D01*
X179761455Y-133267623D01*
X179774128Y-133283020D01*
X179788183Y-133297739D01*
X179803159Y-133311445D01*
X179818780Y-133323802D01*
X179835044Y-133334812D01*
X179857732Y-133347394D01*
X179881565Y-133357580D01*
X179900191Y-133363646D01*
X179919461Y-133368365D01*
X179939375Y-133371735D01*
X179959933Y-133373757D01*
X179981135Y-133374431D01*
G37*
G36*
X177958804Y-131389225D02*
G01*
X177958804Y-133358800D01*
X178412119Y-133358800D01*
X178412119Y-131748262D01*
X178804373Y-131748262D01*
X178804373Y-131389225D01*
X177958804Y-131389225D01*
G37*
D12*
%TO.C,J1*%
X181989999Y-72999999D03*
D13*
X179449999Y-72999999D03*
%TD*%
D14*
%TO.C,LED16*%
X212974999Y-76000000D03*
X215024999Y-76000000D03*
%TD*%
%TO.C,LED15*%
X212975000Y-100000000D03*
X215025000Y-100000000D03*
%TD*%
%TO.C,LED14*%
X215000001Y-124000000D03*
X212950001Y-124000000D03*
%TD*%
%TO.C,LED13*%
X199018000Y-128879600D03*
X196968000Y-128879600D03*
%TD*%
%TO.C,LED12*%
X174989600Y-128905000D03*
X172939600Y-128905000D03*
%TD*%
D15*
%TO.C,LED11*%
X150000000Y-131975000D03*
X150000000Y-134025000D03*
%TD*%
%TO.C,LED10*%
X126000000Y-131975000D03*
X126000000Y-134025000D03*
%TD*%
%TO.C,LED9*%
X102000000Y-131975000D03*
X102000000Y-134025000D03*
%TD*%
D16*
%TO.C,LED8*%
X85024999Y-125000000D03*
X87074999Y-125000000D03*
%TD*%
%TO.C,LED7*%
X87025000Y-101000000D03*
X84975000Y-101000000D03*
%TD*%
%TO.C,LED6*%
X84975000Y-75200000D03*
X87025000Y-75200000D03*
%TD*%
D17*
%TO.C,LED5*%
X102000000Y-65950000D03*
X102000000Y-68000000D03*
%TD*%
%TO.C,LED4*%
X126000000Y-68000000D03*
X126000000Y-65950000D03*
%TD*%
%TO.C,LED3*%
X150000000Y-68000000D03*
X150000000Y-65950000D03*
%TD*%
%TO.C,LED2*%
X174000000Y-67975001D03*
X174000000Y-65925001D03*
%TD*%
%TO.C,LED1*%
X198000000Y-67975001D03*
X198000000Y-65925001D03*
%TD*%
M02*
