%TF.GenerationSoftware,KiCad,Pcbnew,(7.0.0)*%
%TF.CreationDate,2023-03-23T02:07:03-06:00*%
%TF.ProjectId,MainPlate,4d61696e-506c-4617-9465-2e6b69636164,rev?*%
%TF.SameCoordinates,Original*%
%TF.FileFunction,Profile,NP*%
%FSLAX46Y46*%
G04 Gerber Fmt 4.6, Leading zero omitted, Abs format (unit mm)*
G04 Created by KiCad (PCBNEW (7.0.0)) date 2023-03-23 02:07:03*
%MOMM*%
%LPD*%
G01*
G04 APERTURE LIST*
%TA.AperFunction,Profile*%
%ADD10C,0.188976*%
%TD*%
G04 APERTURE END LIST*
D10*
X106788000Y-116301003D02*
X107586002Y-116301003D01*
X144888000Y-113201000D02*
X144888000Y-113201000D01*
X153900001Y-87101000D02*
X153900001Y-87101000D01*
X86678001Y-132698002D02*
X86291001Y-132311001D01*
X206799995Y-88101000D02*
X206799995Y-88101000D01*
X173750000Y-94151001D02*
X173750000Y-94151001D01*
X173750000Y-107151001D02*
X173750000Y-107151001D01*
X219310997Y-66183001D02*
X219325996Y-66576001D01*
X192800003Y-112201000D02*
X192800003Y-113201000D01*
X144888000Y-87101000D02*
X145688004Y-87101000D01*
X144888000Y-78201000D02*
X145688004Y-78201000D01*
X212661995Y-67116001D02*
X212661995Y-67116001D01*
X218370995Y-63637001D02*
X218588997Y-63963001D01*
X111837002Y-93151001D02*
X111837002Y-94151001D01*
X169500000Y-116301003D02*
X169500000Y-116301003D01*
X212661995Y-66035001D02*
X212575996Y-66576001D01*
X86291001Y-67991001D02*
X86291001Y-67991001D01*
X215355003Y-65160001D02*
X215355003Y-65160001D01*
X192800003Y-126201000D02*
X192800003Y-126201000D01*
X106788000Y-122101002D02*
X106788000Y-122101002D01*
X86291001Y-65160001D02*
X86291001Y-65160001D01*
X83847001Y-65547001D02*
X83598001Y-66035001D01*
X169500000Y-75101000D02*
X168700005Y-75101000D01*
X83847001Y-67604001D02*
X83847001Y-67604001D01*
X215107994Y-138664997D02*
X214717995Y-138711003D01*
X83598001Y-66035001D02*
X83598001Y-66035001D01*
X218945000Y-64662001D02*
X218945000Y-64662001D01*
X192000000Y-125201000D02*
X192000000Y-125201000D01*
X169500000Y-87101000D02*
X169500000Y-84000000D01*
X92788000Y-112201000D02*
X92788000Y-113201000D01*
X85263001Y-68326001D02*
X85803001Y-68240001D01*
X216239006Y-138346005D02*
X215870995Y-138481999D01*
X218588997Y-136339001D02*
X218588997Y-136339001D01*
X212661995Y-134267002D02*
X212909996Y-134755001D01*
X173750000Y-97251000D02*
X173750000Y-97251000D01*
X111837002Y-107151001D02*
X125837002Y-107151001D01*
X153900001Y-113201000D02*
X153900001Y-113201000D01*
X84095001Y-138588001D02*
X84095001Y-138588001D01*
X130888000Y-87101000D02*
X130888000Y-88101000D01*
X81727001Y-63040001D02*
X82015001Y-62773001D01*
X125837002Y-94151001D02*
X125837002Y-94151001D01*
X144888000Y-122101002D02*
X144888000Y-116301003D01*
X106788000Y-112201000D02*
X92788000Y-112201000D01*
X206799995Y-126201000D02*
X206799995Y-126201000D01*
X84234001Y-65160001D02*
X83847001Y-65547001D01*
X212909996Y-134755001D02*
X212909996Y-134755001D01*
X206799995Y-122101002D02*
X206799995Y-116301003D01*
X219264000Y-65793001D02*
X219310997Y-66183001D01*
X130088001Y-125201000D02*
X130088001Y-125201000D01*
X218127998Y-63328001D02*
X218370995Y-63637001D01*
X145688004Y-116301003D02*
X145688004Y-116301003D01*
X125837002Y-94151001D02*
X125837002Y-93151001D01*
X192800003Y-88101000D02*
X206799995Y-88101000D01*
X215355003Y-132311001D02*
X214866997Y-132062001D01*
X111837002Y-97251000D02*
X111837002Y-103051003D01*
X219325996Y-66576001D02*
X219325996Y-133727001D01*
X154700005Y-84000000D02*
X154700005Y-84000000D01*
X81460001Y-136974003D02*
X81460001Y-136974003D01*
X83598001Y-67116001D02*
X83847001Y-67604001D01*
X192800003Y-113201000D02*
X192000000Y-113201000D01*
X207599998Y-125201000D02*
X207599998Y-122101002D01*
X83847001Y-67604001D02*
X84234001Y-67991001D01*
X219310997Y-66183001D02*
X219310997Y-66183001D01*
X207599998Y-87101000D02*
X207599998Y-87101000D01*
X187750000Y-94151001D02*
X187750000Y-93151001D01*
X206799995Y-87101000D02*
X206799995Y-87101000D01*
X188550003Y-94151001D02*
X188550003Y-94151001D01*
X92788000Y-116301003D02*
X92788000Y-122101002D01*
X215493004Y-138588001D02*
X215493004Y-138588001D01*
X154700005Y-113201000D02*
X153900001Y-113201000D01*
X154700005Y-116301003D02*
X154700005Y-122101002D01*
X81460001Y-63328001D02*
X81460001Y-63328001D01*
X215989998Y-133186001D02*
X215989998Y-133186001D01*
X216075996Y-133727001D02*
X216075996Y-133727001D01*
X80807001Y-135995999D02*
X80643001Y-135640003D01*
X188550003Y-103051003D02*
X188550003Y-103051003D01*
X80507001Y-65030001D02*
X80507001Y-65030001D01*
X85803001Y-68240001D02*
X86291001Y-67991001D01*
X130088001Y-116301003D02*
X130888000Y-116301003D01*
X80401001Y-65408001D02*
X80401001Y-65408001D01*
X125837002Y-93151001D02*
X125837002Y-93151001D01*
X168700005Y-112201000D02*
X168700005Y-112201000D01*
X85263001Y-68326001D02*
X85263001Y-68326001D01*
X172950005Y-94151001D02*
X172950005Y-97251000D01*
X106788000Y-74101000D02*
X106788000Y-74101000D01*
X92788000Y-88101000D02*
X92788000Y-88101000D01*
X215493004Y-61714001D02*
X215493004Y-61714001D01*
X106788000Y-75101000D02*
X106788000Y-74101000D01*
X218588997Y-136339001D02*
X218370995Y-136664997D01*
X192000000Y-125201000D02*
X192800003Y-125201000D01*
X86927001Y-133186001D02*
X86927001Y-133186001D01*
X130888000Y-74101000D02*
X130888000Y-75101000D01*
X215989998Y-67116001D02*
X215989998Y-67116001D01*
X153900001Y-125201000D02*
X153900001Y-125201000D01*
X173750000Y-93151001D02*
X173750000Y-94151001D01*
X144888000Y-88101000D02*
X144888000Y-88101000D01*
X153900001Y-122101002D02*
X153900001Y-125201000D01*
X172950005Y-103051003D02*
X172950005Y-106151001D01*
X91987001Y-75101000D02*
X91987001Y-78201000D01*
X145688004Y-122101002D02*
X144888000Y-122101002D01*
X86678001Y-67604001D02*
X86678001Y-67604001D01*
X92788000Y-78201000D02*
X92788000Y-78201000D01*
X106788000Y-84000000D02*
X106788000Y-84000000D01*
X92788000Y-75101000D02*
X91987001Y-75101000D01*
X91987001Y-125201000D02*
X92788000Y-125201000D01*
X144888000Y-112201000D02*
X130888000Y-112201000D01*
X126637001Y-106151001D02*
X126637001Y-103051003D01*
X83349001Y-138346005D02*
X83349001Y-138346005D01*
X219081001Y-65030001D02*
X219081001Y-65030001D01*
X173750000Y-103051003D02*
X172950005Y-103051003D01*
X218945000Y-135640003D02*
X218945000Y-135640003D01*
X214866997Y-64911001D02*
X214866997Y-64911001D01*
X84234001Y-132311001D02*
X84234001Y-132311001D01*
X83598001Y-134267002D02*
X83598001Y-134267002D01*
X168700005Y-87101000D02*
X169500000Y-87101000D01*
X91987001Y-87101000D02*
X91987001Y-87101000D01*
X84480001Y-138664997D02*
X84095001Y-138588001D01*
X217265007Y-137772000D02*
X216937996Y-137990002D01*
X81727001Y-137261997D02*
X81460001Y-136974003D01*
X168700005Y-78201000D02*
X169500000Y-78201000D01*
X192000000Y-78201000D02*
X192800003Y-78201000D01*
X80999001Y-136339001D02*
X80999001Y-136339001D01*
X80401001Y-65408001D02*
X80507001Y-65030001D01*
X216075996Y-66576001D02*
X216075996Y-66576001D01*
X106788000Y-122101002D02*
X106788000Y-116301003D01*
X188550003Y-97251000D02*
X188550003Y-94151001D01*
X82650001Y-62312001D02*
X82650001Y-62312001D01*
X213297005Y-65160001D02*
X213297005Y-65160001D01*
X218780998Y-135995999D02*
X218780998Y-135995999D01*
X83847001Y-65547001D02*
X83847001Y-65547001D01*
X169500000Y-78201000D02*
X169500000Y-78201000D01*
X217862007Y-137261997D02*
X217573006Y-137529003D01*
X217862007Y-63040001D02*
X217862007Y-63040001D01*
X80278001Y-134119000D02*
X80262001Y-133726002D01*
X86927001Y-134267002D02*
X87013001Y-133727001D01*
X144888000Y-74101000D02*
X144888000Y-74101000D01*
X82324001Y-62530001D02*
X82324001Y-62530001D01*
X218780998Y-64306001D02*
X218945000Y-64662001D01*
X169500000Y-113201000D02*
X169500000Y-113201000D01*
X168700005Y-112201000D02*
X154700005Y-112201000D01*
X85263001Y-135477001D02*
X85803001Y-135391003D01*
X84870001Y-61591001D02*
X84870001Y-61591001D01*
X187750000Y-94151001D02*
X187750000Y-94151001D01*
X216596001Y-62120001D02*
X216596001Y-62120001D01*
X84870001Y-138711003D02*
X84480001Y-138664997D01*
X213297005Y-132311001D02*
X213297005Y-132311001D01*
X206799995Y-87101000D02*
X207599998Y-87101000D01*
X130088001Y-122101002D02*
X130088001Y-125201000D01*
X207599998Y-113201000D02*
X206799995Y-113201000D01*
X145688004Y-78201000D02*
X145688004Y-75101000D01*
X212661995Y-66035001D02*
X212661995Y-66035001D01*
X84722001Y-132062001D02*
X84234001Y-132311001D01*
X153900001Y-125201000D02*
X154700005Y-125201000D01*
X214717995Y-61591001D02*
X215107994Y-61637001D01*
X80278001Y-134119000D02*
X80278001Y-134119000D01*
X130888000Y-113201000D02*
X130888000Y-113201000D01*
X188550003Y-103051003D02*
X187750000Y-103051003D01*
X168700005Y-75101000D02*
X168700005Y-74101000D01*
X168700005Y-75101000D02*
X168700005Y-75101000D01*
X144888000Y-84000000D02*
X144888000Y-84000000D01*
X192000000Y-122101002D02*
X192000000Y-122101002D01*
X168700005Y-84000000D02*
X168700005Y-84000000D01*
X192800003Y-125201000D02*
X192800003Y-125201000D01*
X86291001Y-135142002D02*
X86291001Y-135142002D01*
X85263001Y-131977001D02*
X85263001Y-131977001D01*
X144888000Y-116301003D02*
X144888000Y-116301003D01*
X169500000Y-122101002D02*
X169500000Y-122101002D01*
X168700005Y-74101000D02*
X168700005Y-74101000D01*
X153900001Y-113201000D02*
X153900001Y-116301003D01*
X80278001Y-66183001D02*
X80278001Y-66183001D01*
X169500000Y-125201000D02*
X169500000Y-122101002D01*
X145688004Y-87101000D02*
X145688004Y-87101000D01*
X111038002Y-106151001D02*
X111837002Y-106151001D01*
X192000000Y-75101000D02*
X192000000Y-78201000D01*
X130888000Y-75101000D02*
X130888000Y-75101000D01*
X84095001Y-138588001D02*
X83717001Y-138481999D01*
X86291001Y-135142002D02*
X86678001Y-134755001D01*
X144888000Y-113201000D02*
X144888000Y-112201000D01*
X91987001Y-122101002D02*
X91987001Y-122101002D01*
X144888000Y-75101000D02*
X144888000Y-75101000D01*
X213297005Y-135142002D02*
X213784996Y-135391003D01*
X172950005Y-94151001D02*
X172950005Y-94151001D01*
X214866997Y-68240001D02*
X215355003Y-67991001D01*
X82650001Y-137990002D02*
X82324001Y-137772000D01*
X215107994Y-61637001D02*
X215493004Y-61714001D01*
X218370995Y-136664997D02*
X218370995Y-136664997D01*
X83349001Y-61956001D02*
X83349001Y-61956001D01*
X107586002Y-113201000D02*
X107586002Y-113201000D01*
X106788000Y-75101000D02*
X106788000Y-75101000D01*
X169500000Y-78201000D02*
X169500000Y-75101000D01*
X130088001Y-113201000D02*
X130088001Y-116301003D01*
X107586002Y-122101002D02*
X106788000Y-122101002D01*
X80999001Y-136339001D02*
X80807001Y-135995999D01*
X187750000Y-106151001D02*
X187750000Y-106151001D01*
X187750000Y-97251000D02*
X188550003Y-97251000D01*
X216239006Y-61956001D02*
X216239006Y-61956001D01*
X126637001Y-97251000D02*
X126637001Y-97251000D01*
X106788000Y-113201000D02*
X106788000Y-112201000D01*
X83349001Y-61956001D02*
X83717001Y-61820001D01*
X81217001Y-63637001D02*
X81460001Y-63328001D01*
X215493004Y-138588001D02*
X215107994Y-138664997D01*
X80807001Y-64306001D02*
X80999001Y-63963001D01*
X111837002Y-94151001D02*
X111837002Y-94151001D01*
X80324001Y-65793001D02*
X80401001Y-65408001D01*
X153900001Y-122101002D02*
X153900001Y-122101002D01*
X106788000Y-88101000D02*
X106788000Y-87101000D01*
X111038002Y-97251000D02*
X111837002Y-97251000D01*
X219325996Y-133727001D02*
X219310997Y-134119000D01*
X215741997Y-132698002D02*
X215355003Y-132311001D01*
X212909996Y-65547001D02*
X212661995Y-66035001D01*
X85263001Y-135477001D02*
X85263001Y-135477001D01*
X215741997Y-132698002D02*
X215741997Y-132698002D01*
X215989998Y-66035001D02*
X215989998Y-66035001D01*
X207599998Y-78201000D02*
X207599998Y-75101000D01*
X84722001Y-135391003D02*
X84722001Y-135391003D01*
X144888000Y-122101002D02*
X144888000Y-122101002D01*
X154700005Y-126201000D02*
X168700005Y-126201000D01*
X83513001Y-66576001D02*
X83513001Y-66576001D01*
X219187996Y-65408001D02*
X219264000Y-65793001D01*
X214866997Y-68240001D02*
X214866997Y-68240001D01*
X168700005Y-126201000D02*
X168700005Y-126201000D01*
X154700005Y-74101000D02*
X154700005Y-75101000D01*
X126637001Y-94151001D02*
X126637001Y-94151001D01*
X83717001Y-61820001D02*
X83717001Y-61820001D01*
X145688004Y-75101000D02*
X144888000Y-75101000D01*
X144888000Y-75101000D02*
X144888000Y-74101000D01*
X111038002Y-103051003D02*
X111038002Y-103051003D01*
X219187996Y-134894001D02*
X219187996Y-134894001D01*
X86291001Y-67991001D02*
X86678001Y-67604001D01*
X83598001Y-67116001D02*
X83598001Y-67116001D01*
X218127998Y-136974003D02*
X218127998Y-136974003D01*
X207599998Y-122101002D02*
X207599998Y-122101002D01*
X130888000Y-126201000D02*
X130888000Y-126201000D01*
X169500000Y-116301003D02*
X169500000Y-113201000D01*
X80324001Y-65793001D02*
X80324001Y-65793001D01*
X207599998Y-84000000D02*
X207599998Y-84000000D01*
X130888000Y-122101002D02*
X130088001Y-122101002D01*
X215107994Y-138664997D02*
X215107994Y-138664997D01*
X85803001Y-135391003D02*
X86291001Y-135142002D01*
X219187996Y-65408001D02*
X219187996Y-65408001D01*
X92788000Y-75101000D02*
X92788000Y-75101000D01*
X92788000Y-78201000D02*
X92788000Y-84000000D01*
X212661995Y-133186001D02*
X212661995Y-133186001D01*
X215741997Y-134755001D02*
X215989998Y-134267002D01*
X206799995Y-75101000D02*
X206799995Y-75101000D01*
X218127998Y-63328001D02*
X218127998Y-63328001D01*
X84234001Y-67991001D02*
X84234001Y-67991001D01*
X187750000Y-107151001D02*
X187750000Y-107151001D01*
X213297005Y-65160001D02*
X212909996Y-65547001D01*
X83717001Y-61820001D02*
X84095001Y-61714001D01*
X130088001Y-84000000D02*
X130088001Y-84000000D01*
X213784996Y-132062001D02*
X213297005Y-132311001D01*
X214325996Y-61576001D02*
X214717995Y-61591001D01*
X126637001Y-106151001D02*
X126637001Y-106151001D01*
X82993001Y-138182003D02*
X82650001Y-137990002D01*
X153900001Y-84000000D02*
X153900001Y-87101000D01*
X154700005Y-122101002D02*
X153900001Y-122101002D01*
X218780998Y-64306001D02*
X218780998Y-64306001D01*
X107586002Y-113201000D02*
X106788000Y-113201000D01*
X85263001Y-131977001D02*
X84722001Y-132062001D01*
X86927001Y-66035001D02*
X86927001Y-66035001D01*
X207599998Y-113201000D02*
X207599998Y-113201000D01*
X85263001Y-64826001D02*
X84722001Y-64911001D01*
X168700005Y-125201000D02*
X168700005Y-125201000D01*
X168700005Y-78201000D02*
X168700005Y-78201000D01*
X130088001Y-75101000D02*
X130088001Y-78201000D01*
X107586002Y-75101000D02*
X107586002Y-75101000D01*
X169500000Y-84000000D02*
X168700005Y-84000000D01*
X130888000Y-78201000D02*
X130888000Y-78201000D01*
X212575996Y-66576001D02*
X212661995Y-67116001D01*
X130888000Y-88101000D02*
X130888000Y-88101000D01*
X106788000Y-116301003D02*
X106788000Y-116301003D01*
X130088001Y-125201000D02*
X130888000Y-125201000D01*
X85263001Y-138727001D02*
X85263001Y-138727001D01*
X187750000Y-93151001D02*
X173750000Y-93151001D01*
X154700005Y-78201000D02*
X154700005Y-84000000D01*
X91987001Y-116301003D02*
X92788000Y-116301003D01*
X126637001Y-97251000D02*
X126637001Y-94151001D01*
X173750000Y-97251000D02*
X173750000Y-103051003D01*
X217265007Y-62530001D02*
X217573006Y-62773001D01*
X212909996Y-132698002D02*
X212661995Y-133186001D01*
X187750000Y-93151001D02*
X187750000Y-93151001D01*
X92788000Y-116301003D02*
X92788000Y-116301003D01*
X215355003Y-135142002D02*
X215355003Y-135142002D01*
X192000000Y-78201000D02*
X192000000Y-78201000D01*
X192800003Y-125201000D02*
X192800003Y-126201000D01*
X91987001Y-87101000D02*
X92788000Y-87101000D01*
X173750000Y-107151001D02*
X187750000Y-107151001D01*
X82015001Y-62773001D02*
X82324001Y-62530001D01*
X206799995Y-75101000D02*
X206799995Y-74101000D01*
X214866997Y-132062001D02*
X214866997Y-132062001D01*
X81217001Y-136664997D02*
X81217001Y-136664997D01*
X219081001Y-135272000D02*
X218945000Y-135640003D01*
X192000000Y-87101000D02*
X192000000Y-87101000D01*
X215989998Y-134267002D02*
X216075996Y-133727001D01*
X130088001Y-87101000D02*
X130888000Y-87101000D01*
X206799995Y-112201000D02*
X192800003Y-112201000D01*
X81727001Y-63040001D02*
X81727001Y-63040001D01*
X154700005Y-75101000D02*
X153900001Y-75101000D01*
X85263001Y-61575001D02*
X85263001Y-61575001D01*
X169500000Y-113201000D02*
X168700005Y-113201000D01*
X192800003Y-74101000D02*
X192800003Y-75101000D01*
X215355003Y-132311001D02*
X215355003Y-132311001D01*
X212575996Y-133727001D02*
X212661995Y-134267002D01*
X106788000Y-125201000D02*
X107586002Y-125201000D01*
X206799995Y-84000000D02*
X206799995Y-78201000D01*
X92788000Y-126201000D02*
X106788000Y-126201000D01*
X207599998Y-116301003D02*
X207599998Y-113201000D01*
X192000000Y-113201000D02*
X192000000Y-116301003D01*
X214866997Y-135391003D02*
X214866997Y-135391003D01*
X216075996Y-66576001D02*
X215989998Y-66035001D01*
X215741997Y-134755001D02*
X215741997Y-134755001D01*
X125837002Y-107151001D02*
X125837002Y-107151001D01*
X217573006Y-137529003D02*
X217265007Y-137772000D01*
X130088001Y-84000000D02*
X130088001Y-87101000D01*
X215355003Y-67991001D02*
X215741997Y-67604001D01*
X83513001Y-133727001D02*
X83513001Y-133727001D01*
X215493004Y-61714001D02*
X215870995Y-61820001D01*
X80324001Y-134508999D02*
X80324001Y-134508999D01*
X106788000Y-74101000D02*
X92788000Y-74101000D01*
X154700005Y-84000000D02*
X153900001Y-84000000D01*
X218370995Y-63637001D02*
X218370995Y-63637001D01*
X172950005Y-103051003D02*
X172950005Y-103051003D01*
X153900001Y-116301003D02*
X153900001Y-116301003D01*
X126637001Y-94151001D02*
X125837002Y-94151001D01*
X214325996Y-64826001D02*
X213784996Y-64911001D01*
X145688004Y-84000000D02*
X145688004Y-84000000D01*
X86291001Y-65160001D02*
X85803001Y-64911001D01*
X154700005Y-125201000D02*
X154700005Y-126201000D01*
X218127998Y-136974003D02*
X217862007Y-137261997D01*
X187750000Y-103051003D02*
X187750000Y-103051003D01*
X106788000Y-87101000D02*
X107586002Y-87101000D01*
X85803001Y-68240001D02*
X85803001Y-68240001D01*
X172950005Y-106151001D02*
X172950005Y-106151001D01*
X215989998Y-66035001D02*
X215741997Y-65547001D01*
X212661995Y-134267002D02*
X212661995Y-134267002D01*
X83598001Y-66035001D02*
X83513001Y-66576001D01*
X206799995Y-74101000D02*
X192800003Y-74101000D01*
X84095001Y-61714001D02*
X84095001Y-61714001D01*
X187750000Y-103051003D02*
X187750000Y-97251000D01*
X80263001Y-66576001D02*
X80263001Y-66576001D01*
X214325996Y-138727001D02*
X85263001Y-138727001D01*
X87013001Y-133727001D02*
X86927001Y-133186001D01*
X91987001Y-75101000D02*
X91987001Y-75101000D01*
X207599998Y-78201000D02*
X207599998Y-78201000D01*
X217573006Y-62773001D02*
X217573006Y-62773001D01*
X214866997Y-135391003D02*
X215355003Y-135142002D01*
X216075996Y-133727001D02*
X215989998Y-133186001D01*
X85803001Y-132062001D02*
X85803001Y-132062001D01*
X83847001Y-134755001D02*
X83847001Y-134755001D01*
X80643001Y-64662001D02*
X80643001Y-64662001D01*
X130888000Y-122101002D02*
X130888000Y-122101002D01*
X130888000Y-87101000D02*
X130888000Y-87101000D01*
X80262001Y-133726002D02*
X80263001Y-66576001D01*
X153900001Y-84000000D02*
X153900001Y-84000000D01*
X192800003Y-75101000D02*
X192000000Y-75101000D01*
X206799995Y-88101000D02*
X206799995Y-87101000D01*
X219325996Y-133727001D02*
X219325996Y-133727001D01*
X92788000Y-122101002D02*
X92788000Y-122101002D01*
X192000000Y-116301003D02*
X192800003Y-116301003D01*
X84870001Y-61591001D02*
X85263001Y-61575001D01*
X168700005Y-122101002D02*
X168700005Y-116301003D01*
X153900001Y-78201000D02*
X153900001Y-78201000D01*
X144888000Y-112201000D02*
X144888000Y-112201000D01*
X216596001Y-62120001D02*
X216937996Y-62312001D01*
X80999001Y-63963001D02*
X80999001Y-63963001D01*
X192000000Y-113201000D02*
X192000000Y-113201000D01*
X130888000Y-78201000D02*
X130888000Y-84000000D01*
X188550003Y-106151001D02*
X188550003Y-106151001D01*
X84480001Y-61637001D02*
X84870001Y-61591001D01*
X192800003Y-84000000D02*
X192000000Y-84000000D01*
X153900001Y-75101000D02*
X153900001Y-78201000D01*
X218945000Y-135640003D02*
X218780998Y-135995999D01*
X84234001Y-67991001D02*
X84722001Y-68240001D01*
X91987001Y-78201000D02*
X92788000Y-78201000D01*
X217862007Y-63040001D02*
X218127998Y-63328001D01*
X215107994Y-61637001D02*
X215107994Y-61637001D01*
X218588997Y-63963001D02*
X218780998Y-64306001D01*
X154700005Y-122101002D02*
X154700005Y-122101002D01*
X107586002Y-78201000D02*
X107586002Y-75101000D01*
X130888000Y-88101000D02*
X144888000Y-88101000D01*
X84234001Y-135142002D02*
X84234001Y-135142002D01*
X215870995Y-138481999D02*
X215493004Y-138588001D01*
X86927001Y-134267002D02*
X86927001Y-134267002D01*
X192800003Y-88101000D02*
X192800003Y-88101000D01*
X82650001Y-62312001D02*
X82993001Y-62120001D01*
X84722001Y-64911001D02*
X84234001Y-65160001D01*
X154700005Y-126201000D02*
X154700005Y-126201000D01*
X111837002Y-97251000D02*
X111837002Y-97251000D01*
X130088001Y-75101000D02*
X130088001Y-75101000D01*
X169500000Y-87101000D02*
X169500000Y-87101000D01*
X172950005Y-97251000D02*
X172950005Y-97251000D01*
X206799995Y-113201000D02*
X206799995Y-113201000D01*
X107586002Y-78201000D02*
X107586002Y-78201000D01*
X144888000Y-78201000D02*
X144888000Y-78201000D01*
X192800003Y-116301003D02*
X192800003Y-116301003D01*
X219187996Y-134894001D02*
X219081001Y-135272000D01*
X130088001Y-78201000D02*
X130088001Y-78201000D01*
X216239006Y-61956001D02*
X216596001Y-62120001D01*
X218588997Y-63963001D02*
X218588997Y-63963001D01*
X82993001Y-138182003D02*
X82993001Y-138182003D01*
X219325996Y-66576001D02*
X219325996Y-66576001D01*
X82015001Y-137529003D02*
X82015001Y-137529003D01*
X130888000Y-116301003D02*
X130888000Y-116301003D01*
X144888000Y-88101000D02*
X144888000Y-87101000D01*
X154700005Y-125201000D02*
X154700005Y-125201000D01*
X86291001Y-132311001D02*
X86291001Y-132311001D01*
X215870995Y-138481999D02*
X215870995Y-138481999D01*
X87013001Y-66576001D02*
X87013001Y-66576001D01*
X82993001Y-62120001D02*
X83349001Y-61956001D01*
X212909996Y-67604001D02*
X212909996Y-67604001D01*
X144888000Y-126201000D02*
X144888000Y-125201000D01*
X144888000Y-126201000D02*
X144888000Y-126201000D01*
X84722001Y-68240001D02*
X84722001Y-68240001D01*
X216937996Y-62312001D02*
X216937996Y-62312001D01*
X217265007Y-137772000D02*
X217265007Y-137772000D01*
X168700005Y-113201000D02*
X168700005Y-113201000D01*
X214866997Y-132062001D02*
X214325996Y-131977001D01*
X168700005Y-88101000D02*
X168700005Y-87101000D01*
X145688004Y-113201000D02*
X144888000Y-113201000D01*
X82324001Y-137772000D02*
X82324001Y-137772000D01*
X216239006Y-138346005D02*
X216239006Y-138346005D01*
X107586002Y-125201000D02*
X107586002Y-125201000D01*
X85263001Y-138727001D02*
X84870001Y-138711003D01*
X107586002Y-87101000D02*
X107586002Y-84000000D01*
X217573006Y-62773001D02*
X217862007Y-63040001D01*
X84234001Y-65160001D02*
X84234001Y-65160001D01*
X126637001Y-103051003D02*
X125837002Y-103051003D01*
X107586002Y-87101000D02*
X107586002Y-87101000D01*
X86678001Y-65547001D02*
X86291001Y-65160001D01*
X144888000Y-125201000D02*
X145688004Y-125201000D01*
X92788000Y-113201000D02*
X92788000Y-113201000D01*
X125837002Y-106151001D02*
X125837002Y-106151001D01*
X192800003Y-126201000D02*
X206799995Y-126201000D01*
X215741997Y-65547001D02*
X215741997Y-65547001D01*
X125837002Y-106151001D02*
X126637001Y-106151001D01*
X86678001Y-132698002D02*
X86678001Y-132698002D01*
X83847001Y-132698002D02*
X83847001Y-132698002D01*
X212909996Y-132698002D02*
X212909996Y-132698002D01*
X83847001Y-134755001D02*
X84234001Y-135142002D01*
X154700005Y-112201000D02*
X154700005Y-113201000D01*
X82650001Y-137990002D02*
X82650001Y-137990002D01*
X111837002Y-107151001D02*
X111837002Y-107151001D01*
X214325996Y-135477001D02*
X214325996Y-135477001D01*
X111837002Y-106151001D02*
X111837002Y-106151001D01*
X212909996Y-65547001D02*
X212909996Y-65547001D01*
X216596001Y-138182003D02*
X216239006Y-138346005D01*
X169500000Y-75101000D02*
X169500000Y-75101000D01*
X168700005Y-87101000D02*
X168700005Y-87101000D01*
X154700005Y-88101000D02*
X154700005Y-88101000D01*
X214325996Y-131977001D02*
X213784996Y-132062001D01*
X206799995Y-112201000D02*
X206799995Y-112201000D01*
X172950005Y-97251000D02*
X173750000Y-97251000D01*
X213784996Y-135391003D02*
X214325996Y-135477001D01*
X213784996Y-135391003D02*
X213784996Y-135391003D01*
X168700005Y-116301003D02*
X168700005Y-116301003D01*
X83598001Y-133186001D02*
X83598001Y-133186001D01*
X207599998Y-125201000D02*
X207599998Y-125201000D01*
X219264000Y-134508999D02*
X219187996Y-134894001D01*
X219264000Y-65793001D02*
X219264000Y-65793001D01*
X92788000Y-88101000D02*
X106788000Y-88101000D01*
X125837002Y-107151001D02*
X125837002Y-106151001D01*
X81460001Y-136974003D02*
X81217001Y-136664997D01*
X169500000Y-122101002D02*
X168700005Y-122101002D01*
X85803001Y-132062001D02*
X85263001Y-131977001D01*
X213297005Y-132311001D02*
X212909996Y-132698002D01*
X214325996Y-68326001D02*
X214866997Y-68240001D01*
X130888000Y-112201000D02*
X130888000Y-113201000D01*
X111038002Y-106151001D02*
X111038002Y-106151001D01*
X130888000Y-84000000D02*
X130888000Y-84000000D01*
X106788000Y-88101000D02*
X106788000Y-88101000D01*
X130888000Y-113201000D02*
X130088001Y-113201000D01*
X130088001Y-122101002D02*
X130088001Y-122101002D01*
X206799995Y-78201000D02*
X207599998Y-78201000D01*
X153900001Y-87101000D02*
X154700005Y-87101000D01*
X81727001Y-137261997D02*
X81727001Y-137261997D01*
X145688004Y-122101002D02*
X145688004Y-122101002D01*
X82015001Y-62773001D02*
X82015001Y-62773001D01*
X80807001Y-64306001D02*
X80807001Y-64306001D01*
X206799995Y-84000000D02*
X206799995Y-84000000D01*
X192000000Y-116301003D02*
X192000000Y-116301003D01*
X86291001Y-132311001D02*
X85803001Y-132062001D01*
X168700005Y-126201000D02*
X168700005Y-125201000D01*
X173750000Y-106151001D02*
X173750000Y-106151001D01*
X214325996Y-138727001D02*
X214325996Y-138727001D01*
X125837002Y-97251000D02*
X126637001Y-97251000D01*
X83717001Y-138481999D02*
X83349001Y-138346005D01*
X111837002Y-94151001D02*
X111038002Y-94151001D01*
X207599998Y-87101000D02*
X207599998Y-84000000D01*
X206799995Y-116301003D02*
X206799995Y-116301003D01*
X213784996Y-68240001D02*
X213784996Y-68240001D01*
X192000000Y-87101000D02*
X192800003Y-87101000D01*
X85803001Y-64911001D02*
X85263001Y-64826001D01*
X212909996Y-67604001D02*
X213297005Y-67991001D01*
X218945000Y-64662001D02*
X219081001Y-65030001D01*
X219081001Y-135272000D02*
X219081001Y-135272000D01*
X192800003Y-75101000D02*
X192800003Y-75101000D01*
X86678001Y-134755001D02*
X86927001Y-134267002D01*
X91987001Y-113201000D02*
X91987001Y-113201000D01*
X86927001Y-67116001D02*
X86927001Y-67116001D01*
X206799995Y-78201000D02*
X206799995Y-78201000D01*
X216937996Y-62312001D02*
X217265007Y-62530001D01*
X92788000Y-87101000D02*
X92788000Y-88101000D01*
X107586002Y-75101000D02*
X106788000Y-75101000D01*
X168700005Y-74101000D02*
X154700005Y-74101000D01*
X82324001Y-62530001D02*
X82650001Y-62312001D01*
X91987001Y-84000000D02*
X91987001Y-87101000D01*
X84870001Y-138711003D02*
X84870001Y-138711003D01*
X130088001Y-87101000D02*
X130088001Y-87101000D01*
X81460001Y-63328001D02*
X81727001Y-63040001D01*
X92788000Y-125201000D02*
X92788000Y-126201000D01*
X214717995Y-138711003D02*
X214717995Y-138711003D01*
X215741997Y-65547001D02*
X215355003Y-65160001D01*
X215870995Y-61820001D02*
X216239006Y-61956001D01*
X154700005Y-116301003D02*
X154700005Y-116301003D01*
X206799995Y-125201000D02*
X206799995Y-125201000D01*
X144888000Y-125201000D02*
X144888000Y-125201000D01*
X213784996Y-68240001D02*
X214325996Y-68326001D01*
X130888000Y-126201000D02*
X144888000Y-126201000D01*
X168700005Y-84000000D02*
X168700005Y-78201000D01*
X206799995Y-116301003D02*
X207599998Y-116301003D01*
X130088001Y-116301003D02*
X130088001Y-116301003D01*
X80643001Y-135640003D02*
X80507001Y-135272000D01*
X214866997Y-64911001D02*
X214325996Y-64826001D01*
X111038002Y-103051003D02*
X111038002Y-106151001D01*
X169500000Y-84000000D02*
X169500000Y-84000000D01*
X145688004Y-125201000D02*
X145688004Y-125201000D01*
X207599998Y-84000000D02*
X206799995Y-84000000D01*
X82993001Y-62120001D02*
X82993001Y-62120001D01*
X192800003Y-78201000D02*
X192800003Y-78201000D01*
X91987001Y-125201000D02*
X91987001Y-125201000D01*
X80507001Y-65030001D02*
X80643001Y-64662001D01*
X169500000Y-125201000D02*
X169500000Y-125201000D01*
X217265007Y-62530001D02*
X217265007Y-62530001D01*
X85803001Y-135391003D02*
X85803001Y-135391003D01*
X206799995Y-125201000D02*
X207599998Y-125201000D01*
X85263001Y-64826001D02*
X85263001Y-64826001D01*
X106788000Y-84000000D02*
X106788000Y-78201000D01*
X168700005Y-116301003D02*
X169500000Y-116301003D01*
X154700005Y-87101000D02*
X154700005Y-88101000D01*
X216937996Y-137990002D02*
X216937996Y-137990002D01*
X111837002Y-103051003D02*
X111038002Y-103051003D01*
X92788000Y-113201000D02*
X91987001Y-113201000D01*
X168700005Y-88101000D02*
X168700005Y-88101000D01*
X214325996Y-135477001D02*
X214866997Y-135391003D01*
X188550003Y-106151001D02*
X188550003Y-103051003D01*
X145688004Y-84000000D02*
X144888000Y-84000000D01*
X173750000Y-106151001D02*
X173750000Y-107151001D01*
X92788000Y-84000000D02*
X92788000Y-84000000D01*
X107586002Y-125201000D02*
X107586002Y-122101002D01*
X154700005Y-88101000D02*
X168700005Y-88101000D01*
X215989998Y-67116001D02*
X216075996Y-66576001D01*
X144888000Y-116301003D02*
X145688004Y-116301003D01*
X145688004Y-75101000D02*
X145688004Y-75101000D01*
X125837002Y-103051003D02*
X125837002Y-103051003D01*
X86678001Y-134755001D02*
X86678001Y-134755001D01*
X216596001Y-138182003D02*
X216596001Y-138182003D01*
X83349001Y-138346005D02*
X82993001Y-138182003D01*
X192800003Y-87101000D02*
X192800003Y-87101000D01*
X144888000Y-74101000D02*
X130888000Y-74101000D01*
X215989998Y-133186001D02*
X215741997Y-132698002D01*
X86927001Y-66035001D02*
X86678001Y-65547001D01*
X192800003Y-78201000D02*
X192800003Y-84000000D01*
X153900001Y-75101000D02*
X153900001Y-75101000D01*
X84234001Y-132311001D02*
X83847001Y-132698002D01*
X213297005Y-135142002D02*
X213297005Y-135142002D01*
X84722001Y-68240001D02*
X85263001Y-68326001D01*
X145688004Y-125201000D02*
X145688004Y-122101002D01*
X144888000Y-87101000D02*
X144888000Y-87101000D01*
X125837002Y-103051003D02*
X125837002Y-97251000D01*
X215741997Y-67604001D02*
X215741997Y-67604001D01*
X91987001Y-78201000D02*
X91987001Y-78201000D01*
X217862007Y-137261997D02*
X217862007Y-137261997D01*
X130888000Y-84000000D02*
X130088001Y-84000000D01*
X215355003Y-135142002D02*
X215741997Y-134755001D01*
X218370995Y-136664997D02*
X218127998Y-136974003D01*
X125837002Y-97251000D02*
X125837002Y-97251000D01*
X168700005Y-125201000D02*
X169500000Y-125201000D01*
X83598001Y-133186001D02*
X83513001Y-133727001D01*
X207599998Y-116301003D02*
X207599998Y-116301003D01*
X206799995Y-122101002D02*
X206799995Y-122101002D01*
X86678001Y-67604001D02*
X86927001Y-67116001D01*
X214325996Y-131977001D02*
X214325996Y-131977001D01*
X106788000Y-113201000D02*
X106788000Y-113201000D01*
X215741997Y-67604001D02*
X215989998Y-67116001D01*
X212575996Y-66576001D02*
X212575996Y-66576001D01*
X130088001Y-113201000D02*
X130088001Y-113201000D01*
X154700005Y-113201000D02*
X154700005Y-113201000D01*
X106788000Y-112201000D02*
X106788000Y-112201000D01*
X192800003Y-122101002D02*
X192800003Y-122101002D01*
X215355003Y-67991001D02*
X215355003Y-67991001D01*
X85263001Y-61575001D02*
X214325996Y-61576001D01*
X80262001Y-133726002D02*
X80262001Y-133726002D01*
X192800003Y-87101000D02*
X192800003Y-88101000D01*
X213297005Y-67991001D02*
X213784996Y-68240001D01*
X84480001Y-138664997D02*
X84480001Y-138664997D01*
X192800003Y-113201000D02*
X192800003Y-113201000D01*
X214717995Y-61591001D02*
X214717995Y-61591001D01*
X91987001Y-116301003D02*
X91987001Y-116301003D01*
X187750000Y-106151001D02*
X188550003Y-106151001D01*
X80507001Y-135272000D02*
X80401001Y-134894001D01*
X80643001Y-64662001D02*
X80807001Y-64306001D01*
X173750000Y-94151001D02*
X172950005Y-94151001D01*
X192800003Y-116301003D02*
X192800003Y-122101002D01*
X83513001Y-66576001D02*
X83598001Y-67116001D01*
X187750000Y-107151001D02*
X187750000Y-106151001D01*
X219264000Y-134508999D02*
X219264000Y-134508999D01*
X216937996Y-137990002D02*
X216596001Y-138182003D01*
X219310997Y-134119000D02*
X219310997Y-134119000D01*
X92788000Y-125201000D02*
X92788000Y-125201000D01*
X154700005Y-78201000D02*
X154700005Y-78201000D01*
X206799995Y-74101000D02*
X206799995Y-74101000D01*
X80263001Y-66576001D02*
X80278001Y-66183001D01*
X106788000Y-78201000D02*
X106788000Y-78201000D01*
X145688004Y-87101000D02*
X145688004Y-84000000D01*
X107586002Y-122101002D02*
X107586002Y-122101002D01*
X107586002Y-84000000D02*
X107586002Y-84000000D01*
X92788000Y-84000000D02*
X91987001Y-84000000D01*
X168700005Y-113201000D02*
X168700005Y-112201000D01*
X125837002Y-93151001D02*
X111837002Y-93151001D01*
X188550003Y-97251000D02*
X188550003Y-97251000D01*
X84095001Y-61714001D02*
X84480001Y-61637001D01*
X80643001Y-135640003D02*
X80643001Y-135640003D01*
X84722001Y-135391003D02*
X85263001Y-135477001D01*
X168700005Y-122101002D02*
X168700005Y-122101002D01*
X106788000Y-87101000D02*
X106788000Y-87101000D01*
X192000000Y-122101002D02*
X192000000Y-125201000D01*
X111038002Y-94151001D02*
X111038002Y-97251000D01*
X111038002Y-97251000D02*
X111038002Y-97251000D01*
X81217001Y-136664997D02*
X80999001Y-136339001D01*
X86927001Y-133186001D02*
X86678001Y-132698002D01*
X106788000Y-126201000D02*
X106788000Y-126201000D01*
X214325996Y-68326001D02*
X214325996Y-68326001D01*
X217573006Y-137529003D02*
X217573006Y-137529003D01*
X213784996Y-64911001D02*
X213297005Y-65160001D01*
X92788000Y-122101002D02*
X91987001Y-122101002D01*
X80401001Y-134894001D02*
X80401001Y-134894001D01*
X214717995Y-138711003D02*
X214325996Y-138727001D01*
X218780998Y-135995999D02*
X218588997Y-136339001D01*
X130888000Y-125201000D02*
X130888000Y-125201000D01*
X80401001Y-134894001D02*
X80324001Y-134508999D01*
X144888000Y-84000000D02*
X144888000Y-78201000D01*
X213297005Y-67991001D02*
X213297005Y-67991001D01*
X206799995Y-113201000D02*
X206799995Y-112201000D01*
X85803001Y-64911001D02*
X85803001Y-64911001D01*
X80278001Y-66183001D02*
X80324001Y-65793001D01*
X92788000Y-126201000D02*
X92788000Y-126201000D01*
X215355003Y-65160001D02*
X214866997Y-64911001D01*
X130888000Y-75101000D02*
X130088001Y-75101000D01*
X107586002Y-84000000D02*
X106788000Y-84000000D01*
X80999001Y-63963001D02*
X81217001Y-63637001D01*
X107586002Y-116301003D02*
X107586002Y-116301003D01*
X215989998Y-134267002D02*
X215989998Y-134267002D01*
X130888000Y-125201000D02*
X130888000Y-126201000D01*
X172950005Y-106151001D02*
X173750000Y-106151001D01*
X87013001Y-133727001D02*
X87013001Y-133727001D01*
X173750000Y-103051003D02*
X173750000Y-103051003D01*
X192800003Y-122101002D02*
X192000000Y-122101002D01*
X153900001Y-116301003D02*
X154700005Y-116301003D01*
X92788000Y-74101000D02*
X92788000Y-75101000D01*
X212661995Y-67116001D02*
X212909996Y-67604001D01*
X82015001Y-137529003D02*
X81727001Y-137261997D01*
X80324001Y-134508999D02*
X80278001Y-134119000D01*
X83847001Y-132698002D02*
X83598001Y-133186001D01*
X212575996Y-133727001D02*
X212575996Y-133727001D01*
X207599998Y-122101002D02*
X206799995Y-122101002D01*
X111038002Y-94151001D02*
X111038002Y-94151001D01*
X145688004Y-116301003D02*
X145688004Y-113201000D01*
X188550003Y-94151001D02*
X187750000Y-94151001D01*
X83598001Y-134267002D02*
X83847001Y-134755001D01*
X111837002Y-106151001D02*
X111837002Y-107151001D01*
X81217001Y-63637001D02*
X81217001Y-63637001D01*
X84480001Y-61637001D02*
X84480001Y-61637001D01*
X83513001Y-133727001D02*
X83598001Y-134267002D01*
X192800003Y-84000000D02*
X192800003Y-84000000D01*
X80507001Y-135272000D02*
X80507001Y-135272000D01*
X192000000Y-84000000D02*
X192000000Y-84000000D01*
X126637001Y-103051003D02*
X126637001Y-103051003D01*
X192000000Y-84000000D02*
X192000000Y-87101000D01*
X207599998Y-75101000D02*
X207599998Y-75101000D01*
X145688004Y-113201000D02*
X145688004Y-113201000D01*
X207599998Y-75101000D02*
X206799995Y-75101000D01*
X91987001Y-122101002D02*
X91987001Y-125201000D01*
X214325996Y-64826001D02*
X214325996Y-64826001D01*
X80807001Y-135995999D02*
X80807001Y-135995999D01*
X86927001Y-67116001D02*
X87013001Y-66576001D01*
X111837002Y-103051003D02*
X111837002Y-103051003D01*
X154700005Y-87101000D02*
X154700005Y-87101000D01*
X86678001Y-65547001D02*
X86678001Y-65547001D01*
X219081001Y-65030001D02*
X219187996Y-65408001D01*
X215870995Y-61820001D02*
X215870995Y-61820001D01*
X91987001Y-84000000D02*
X91987001Y-84000000D01*
X82324001Y-137772000D02*
X82015001Y-137529003D01*
X92788000Y-87101000D02*
X92788000Y-87101000D01*
X106788000Y-125201000D02*
X106788000Y-125201000D01*
X87013001Y-66576001D02*
X86927001Y-66035001D01*
X206799995Y-126201000D02*
X206799995Y-125201000D01*
X106788000Y-126201000D02*
X106788000Y-125201000D01*
X83717001Y-138481999D02*
X83717001Y-138481999D01*
X91987001Y-113201000D02*
X91987001Y-116301003D01*
X212661995Y-133186001D02*
X212575996Y-133727001D01*
X153900001Y-78201000D02*
X154700005Y-78201000D01*
X187750000Y-97251000D02*
X187750000Y-97251000D01*
X212909996Y-134755001D02*
X213297005Y-135142002D01*
X84234001Y-135142002D02*
X84722001Y-135391003D01*
X192000000Y-75101000D02*
X192000000Y-75101000D01*
X106788000Y-78201000D02*
X107586002Y-78201000D01*
X130888000Y-116301003D02*
X130888000Y-122101002D01*
X130088001Y-78201000D02*
X130888000Y-78201000D01*
X145688004Y-78201000D02*
X145688004Y-78201000D01*
X154700005Y-75101000D02*
X154700005Y-75101000D01*
X219310997Y-134119000D02*
X219264000Y-134508999D01*
X107586002Y-116301003D02*
X107586002Y-113201000D01*
M02*
