%TF.GenerationSoftware,KiCad,Pcbnew,(7.0.0)*%
%TF.CreationDate,2023-03-23T02:07:08-06:00*%
%TF.ProjectId,MainPlate,4d61696e-506c-4617-9465-2e6b69636164,rev?*%
%TF.SameCoordinates,Original*%
%TF.FileFunction,Drillmap*%
%TF.FilePolarity,Positive*%
%FSLAX45Y45*%
G04 Gerber Fmt 4.5, Leading zero omitted, Abs format (unit mm)*
G04 Created by KiCad (PCBNEW (7.0.0)) date 2023-03-23 02:07:08*
%MOMM*%
%LPD*%
G01*
G04 APERTURE LIST*
%ADD10C,0.188976*%
%ADD11C,0.200000*%
G04 APERTURE END LIST*
D10*
X10678800Y-11630100D02*
X10758600Y-11630100D01*
X14488800Y-11320100D02*
X14488800Y-11320100D01*
X15390000Y-8710100D02*
X15390000Y-8710100D01*
X8667800Y-13269800D02*
X8629100Y-13231100D01*
X20680000Y-8810100D02*
X20680000Y-8810100D01*
X17375000Y-9415100D02*
X17375000Y-9415100D01*
X17375000Y-10715100D02*
X17375000Y-10715100D01*
X21931100Y-6618300D02*
X21932600Y-6657600D01*
X19280000Y-11220100D02*
X19280000Y-11320100D01*
X14488800Y-8710100D02*
X14568800Y-8710100D01*
X14488800Y-7820100D02*
X14568800Y-7820100D01*
X21266200Y-6711600D02*
X21266200Y-6711600D01*
X21837100Y-6363700D02*
X21858900Y-6396300D01*
X11183700Y-9315100D02*
X11183700Y-9415100D01*
X16950000Y-11630100D02*
X16950000Y-11630100D01*
X21266200Y-6603500D02*
X21257600Y-6657600D01*
X8629100Y-6799100D02*
X8629100Y-6799100D01*
X21535500Y-6516000D02*
X21535500Y-6516000D01*
X19280000Y-12620100D02*
X19280000Y-12620100D01*
X10678800Y-12210100D02*
X10678800Y-12210100D01*
X8629100Y-6516000D02*
X8629100Y-6516000D01*
X8384700Y-6554700D02*
X8359800Y-6603500D01*
X16950000Y-7510100D02*
X16870001Y-7510100D01*
X8384700Y-6760400D02*
X8384700Y-6760400D01*
X21510799Y-13866500D02*
X21471800Y-13871100D01*
X8359800Y-6603500D02*
X8359800Y-6603500D01*
X21894500Y-6466200D02*
X21894500Y-6466200D01*
X19200000Y-12520100D02*
X19200000Y-12520100D01*
X16950000Y-8710100D02*
X16950000Y-8400000D01*
X9278800Y-11220100D02*
X9278800Y-11320100D01*
X8526300Y-6832600D02*
X8580300Y-6824000D01*
X21623901Y-13834600D02*
X21587100Y-13848200D01*
X21858900Y-13633900D02*
X21858900Y-13633900D01*
X21266200Y-13426700D02*
X21291000Y-13475500D01*
X17375000Y-9725100D02*
X17375000Y-9725100D01*
X11183700Y-10715100D02*
X12583700Y-10715100D01*
X15390000Y-11320100D02*
X15390000Y-11320100D01*
X8409500Y-13858800D02*
X8409500Y-13858800D01*
X13088800Y-8710100D02*
X13088800Y-8810100D01*
X8172700Y-6304000D02*
X8201500Y-6277300D01*
X12583700Y-9415100D02*
X12583700Y-9415100D01*
X14488800Y-12210100D02*
X14488800Y-11630100D01*
X10678800Y-11220100D02*
X9278800Y-11220100D01*
X20680000Y-12620100D02*
X20680000Y-12620100D01*
X8423400Y-6516000D02*
X8384700Y-6554700D01*
X21291000Y-13475500D02*
X21291000Y-13475500D01*
X20680000Y-12210100D02*
X20680000Y-11630100D01*
X21926400Y-6579300D02*
X21931100Y-6618300D01*
X13008800Y-12520100D02*
X13008800Y-12520100D01*
X21812800Y-6332800D02*
X21837100Y-6363700D01*
X14568800Y-11630100D02*
X14568800Y-11630100D01*
X12583700Y-9415100D02*
X12583700Y-9315100D01*
X19280000Y-8810100D02*
X20680000Y-8810100D01*
X21535500Y-13231100D02*
X21486700Y-13206200D01*
X11183700Y-9725100D02*
X11183700Y-10305100D01*
X21932600Y-6657600D02*
X21932600Y-13372700D01*
X15470000Y-8400000D02*
X15470000Y-8400000D01*
X8146000Y-13697400D02*
X8146000Y-13697400D01*
X8359800Y-6711600D02*
X8384700Y-6760400D01*
X19280000Y-11320100D02*
X19200000Y-11320100D01*
X20760000Y-12520100D02*
X20760000Y-12210100D01*
X8384700Y-6760400D02*
X8423400Y-6799100D01*
X21931100Y-6618300D02*
X21931100Y-6618300D01*
X20760000Y-8710100D02*
X20760000Y-8710100D01*
X18775000Y-9415100D02*
X18775000Y-9315100D01*
X20680000Y-8710100D02*
X20680000Y-8710100D01*
X18855000Y-9415100D02*
X18855000Y-9415100D01*
X9278800Y-11630100D02*
X9278800Y-12210100D01*
X21549300Y-13858800D02*
X21549300Y-13858800D01*
X15470000Y-11320100D02*
X15390000Y-11320100D01*
X15470000Y-11630100D02*
X15470000Y-12210100D01*
X8146000Y-6332800D02*
X8146000Y-6332800D01*
X21599000Y-13318600D02*
X21599000Y-13318600D01*
X21607600Y-13372700D02*
X21607600Y-13372700D01*
X8080700Y-13599600D02*
X8064300Y-13564000D01*
X18855000Y-10305100D02*
X18855000Y-10305100D01*
X8050700Y-6503000D02*
X8050700Y-6503000D01*
X8580300Y-6824000D02*
X8629100Y-6799100D01*
X13008800Y-11630100D02*
X13088800Y-11630100D01*
X8040100Y-6540800D02*
X8040100Y-6540800D01*
X12583700Y-9315100D02*
X12583700Y-9315100D01*
X16870001Y-11220100D02*
X16870001Y-11220100D01*
X8526300Y-6832600D02*
X8526300Y-6832600D01*
X17295001Y-9415100D02*
X17295001Y-9725100D01*
X10678800Y-7410100D02*
X10678800Y-7410100D01*
X9278800Y-8810100D02*
X9278800Y-8810100D01*
X21549300Y-6171400D02*
X21549300Y-6171400D01*
X10678800Y-7510100D02*
X10678800Y-7410100D01*
X21858900Y-13633900D02*
X21837100Y-13666500D01*
X19200000Y-12520100D02*
X19280000Y-12520100D01*
X8692700Y-13318600D02*
X8692700Y-13318600D01*
X13088800Y-7410100D02*
X13088800Y-7510100D01*
X21599000Y-6711600D02*
X21599000Y-6711600D01*
X15390000Y-12520100D02*
X15390000Y-12520100D01*
X17375000Y-9315100D02*
X17375000Y-9415100D01*
X14488800Y-8810100D02*
X14488800Y-8810100D01*
X15390000Y-12210100D02*
X15390000Y-12520100D01*
X17295001Y-10305100D02*
X17295001Y-10615100D01*
X9198700Y-7510100D02*
X9198700Y-7820100D01*
X14568800Y-12210100D02*
X14488800Y-12210100D01*
X8667800Y-6760400D02*
X8667800Y-6760400D01*
X9278800Y-7820100D02*
X9278800Y-7820100D01*
X10678800Y-8400000D02*
X10678800Y-8400000D01*
X9278800Y-7510100D02*
X9198700Y-7510100D01*
X9198700Y-12520100D02*
X9278800Y-12520100D01*
X14488800Y-11220100D02*
X13088800Y-11220100D01*
X12663700Y-10615100D02*
X12663700Y-10305100D01*
X8334900Y-13834600D02*
X8334900Y-13834600D01*
X21908100Y-6503000D02*
X21908100Y-6503000D01*
X17375000Y-10305100D02*
X17295001Y-10305100D01*
X21894500Y-13564000D02*
X21894500Y-13564000D01*
X21486700Y-6491100D02*
X21486700Y-6491100D01*
X8423400Y-13231100D02*
X8423400Y-13231100D01*
X8359800Y-13426700D02*
X8359800Y-13426700D01*
X16870001Y-8710100D02*
X16950000Y-8710100D01*
X9198700Y-8710100D02*
X9198700Y-8710100D01*
X8448000Y-13866500D02*
X8409500Y-13858800D01*
X21726501Y-13777200D02*
X21693800Y-13799000D01*
X8172700Y-13726200D02*
X8146000Y-13697400D01*
X16870001Y-7820100D02*
X16950000Y-7820100D01*
X19200000Y-7820100D02*
X19280000Y-7820100D01*
X8099900Y-13633900D02*
X8099900Y-13633900D01*
X8040100Y-6540800D02*
X8050700Y-6503000D01*
X21607600Y-6657600D02*
X21607600Y-6657600D01*
X10678800Y-12210100D02*
X10678800Y-11630100D01*
X18855000Y-9725100D02*
X18855000Y-9415100D01*
X8265000Y-6231200D02*
X8265000Y-6231200D01*
X21329701Y-6516000D02*
X21329701Y-6516000D01*
X21878100Y-13599600D02*
X21878100Y-13599600D01*
X8384700Y-6554700D02*
X8384700Y-6554700D01*
X16950000Y-7820100D02*
X16950000Y-7820100D01*
X21786201Y-13726200D02*
X21757301Y-13752900D01*
X21786201Y-6304000D02*
X21786201Y-6304000D01*
X8027800Y-13411900D02*
X8026200Y-13372600D01*
X8692700Y-13426700D02*
X8701300Y-13372700D01*
X14488800Y-7410100D02*
X14488800Y-7410100D01*
X8232400Y-6253000D02*
X8232400Y-6253000D01*
X21878100Y-6430600D02*
X21894500Y-6466200D01*
X16950000Y-11320100D02*
X16950000Y-11320100D01*
X16870001Y-11220100D02*
X15470000Y-11220100D01*
X8526300Y-13547700D02*
X8580300Y-13539100D01*
X8487000Y-6159100D02*
X8487000Y-6159100D01*
X18775000Y-9415100D02*
X18775000Y-9415100D01*
X21659600Y-6212000D02*
X21659600Y-6212000D01*
X8487000Y-13871100D02*
X8448000Y-13866500D01*
X21329701Y-13231100D02*
X21329701Y-13231100D01*
X20680000Y-8710100D02*
X20760000Y-8710100D01*
X13008800Y-12210100D02*
X13008800Y-12520100D01*
X20760000Y-11320100D02*
X20680000Y-11320100D01*
X14568800Y-7820100D02*
X14568800Y-7510100D01*
X21266200Y-6603500D02*
X21266200Y-6603500D01*
X8472200Y-13206200D02*
X8423400Y-13231100D01*
X15390000Y-12520100D02*
X15470000Y-12520100D01*
X21471800Y-6159100D02*
X21510799Y-6163700D01*
X8027800Y-13411900D02*
X8027800Y-13411900D01*
X13088800Y-11320100D02*
X13088800Y-11320100D01*
X18855000Y-10305100D02*
X18775000Y-10305100D01*
X16870001Y-7510100D02*
X16870001Y-7410100D01*
X16870001Y-7510100D02*
X16870001Y-7510100D01*
X14488800Y-8400000D02*
X14488800Y-8400000D01*
X19200000Y-12210100D02*
X19200000Y-12210100D01*
X16870001Y-8400000D02*
X16870001Y-8400000D01*
X19280000Y-12520100D02*
X19280000Y-12520100D01*
X8629100Y-13514200D02*
X8629100Y-13514200D01*
X8526300Y-13197700D02*
X8526300Y-13197700D01*
X14488800Y-11630100D02*
X14488800Y-11630100D01*
X16950000Y-12210100D02*
X16950000Y-12210100D01*
X16870001Y-7410100D02*
X16870001Y-7410100D01*
X15390000Y-11320100D02*
X15390000Y-11630100D01*
X8027800Y-6618300D02*
X8027800Y-6618300D01*
X16950000Y-12520100D02*
X16950000Y-12210100D01*
X14568800Y-8710100D02*
X14568800Y-8710100D01*
X11103800Y-10615100D02*
X11183700Y-10615100D01*
X19200000Y-7510100D02*
X19200000Y-7820100D01*
X13088800Y-7510100D02*
X13088800Y-7510100D01*
X8409500Y-13858800D02*
X8371700Y-13848200D01*
X8629100Y-13514200D02*
X8667800Y-13475500D01*
X14488800Y-11320100D02*
X14488800Y-11220100D01*
X9198700Y-12210100D02*
X9198700Y-12210100D01*
X14488800Y-7510100D02*
X14488800Y-7510100D01*
X21329701Y-13514200D02*
X21378500Y-13539100D01*
X17295001Y-9415100D02*
X17295001Y-9415100D01*
X21486700Y-6824000D02*
X21535500Y-6799100D01*
X8265000Y-13799000D02*
X8232400Y-13777200D01*
X21510799Y-6163700D02*
X21549300Y-6171400D01*
X21837100Y-13666500D02*
X21837100Y-13666500D01*
X8334900Y-6195600D02*
X8334900Y-6195600D01*
X10758600Y-11320100D02*
X10758600Y-11320100D01*
X10678800Y-7510100D02*
X10678800Y-7510100D01*
X16950000Y-7820100D02*
X16950000Y-7510100D01*
X13008800Y-11320100D02*
X13008800Y-11630100D01*
X10758600Y-12210100D02*
X10678800Y-12210100D01*
X8099900Y-13633900D02*
X8080700Y-13599600D01*
X18775000Y-10615100D02*
X18775000Y-10615100D01*
X18775000Y-9725100D02*
X18855000Y-9725100D01*
X21623901Y-6195600D02*
X21623901Y-6195600D01*
X12663700Y-9725100D02*
X12663700Y-9725100D01*
X10678800Y-11320100D02*
X10678800Y-11220100D01*
X8334900Y-6195600D02*
X8371700Y-6182000D01*
X8121700Y-6363700D02*
X8146000Y-6332800D01*
X21549300Y-13858800D02*
X21510799Y-13866500D01*
X8080700Y-6430600D02*
X8099900Y-6396300D01*
X11183700Y-9415100D02*
X11183700Y-9415100D01*
X8032400Y-6579300D02*
X8040100Y-6540800D01*
X15390000Y-12210100D02*
X15390000Y-12210100D01*
X10678800Y-8810100D02*
X10678800Y-8710100D01*
X11103800Y-9725100D02*
X11183700Y-9725100D01*
X21932600Y-13372700D02*
X21931100Y-13411900D01*
X21574200Y-13269800D02*
X21535500Y-13231100D01*
X21291000Y-6554700D02*
X21266200Y-6603500D01*
X8526300Y-13547700D02*
X8526300Y-13547700D01*
X21574200Y-13269800D02*
X21574200Y-13269800D01*
X21599000Y-6603500D02*
X21599000Y-6603500D01*
X20760000Y-7820100D02*
X20760000Y-7510100D01*
X8472200Y-13539100D02*
X8472200Y-13539100D01*
X14488800Y-12210100D02*
X14488800Y-12210100D01*
X15470000Y-12620100D02*
X16870001Y-12620100D01*
X8351300Y-6657600D02*
X8351300Y-6657600D01*
X21918800Y-6540800D02*
X21926400Y-6579300D01*
X21486700Y-6824000D02*
X21486700Y-6824000D01*
X16870001Y-12620100D02*
X16870001Y-12620100D01*
X15470000Y-7410100D02*
X15470000Y-7510100D01*
X12663700Y-9415100D02*
X12663700Y-9415100D01*
X8371700Y-6182000D02*
X8371700Y-6182000D01*
X14568800Y-7510100D02*
X14488800Y-7510100D01*
X14488800Y-7510100D02*
X14488800Y-7410100D01*
X11103800Y-10305100D02*
X11103800Y-10305100D01*
X21918800Y-13489400D02*
X21918800Y-13489400D01*
X8629100Y-6799100D02*
X8667800Y-6760400D01*
X8359800Y-6711600D02*
X8359800Y-6711600D01*
X21812800Y-13697400D02*
X21812800Y-13697400D01*
X20760000Y-12210100D02*
X20760000Y-12210100D01*
X13088800Y-12620100D02*
X13088800Y-12620100D01*
X16950000Y-11630100D02*
X16950000Y-11320100D01*
X8032400Y-6579300D02*
X8032400Y-6579300D01*
X20760000Y-8400000D02*
X20760000Y-8400000D01*
X13088800Y-12210100D02*
X13008800Y-12210100D01*
X21510799Y-13866500D02*
X21510799Y-13866500D01*
X8580300Y-13539100D02*
X8629100Y-13514200D01*
X21918800Y-6540800D02*
X21918800Y-6540800D01*
X9278800Y-7510100D02*
X9278800Y-7510100D01*
X9278800Y-7820100D02*
X9278800Y-8400000D01*
X21266200Y-13318600D02*
X21266200Y-13318600D01*
X21574200Y-13475500D02*
X21599000Y-13426700D01*
X20680000Y-7510100D02*
X20680000Y-7510100D01*
X21812800Y-6332800D02*
X21812800Y-6332800D01*
X8423400Y-6799100D02*
X8423400Y-6799100D01*
X18775000Y-10715100D02*
X18775000Y-10715100D01*
X21329701Y-6516000D02*
X21291000Y-6554700D01*
X8371700Y-6182000D02*
X8409500Y-6171400D01*
X13008800Y-8400000D02*
X13008800Y-8400000D01*
X21378500Y-13206200D02*
X21329701Y-13231100D01*
X21432600Y-6157600D02*
X21471800Y-6159100D01*
X12663700Y-10615100D02*
X12663700Y-10615100D01*
X8299300Y-13818200D02*
X8265000Y-13799000D01*
X15390000Y-8400000D02*
X15390000Y-8710100D01*
X15470000Y-12210100D02*
X15390000Y-12210100D01*
X21878100Y-6430600D02*
X21878100Y-6430600D01*
X10758600Y-11320100D02*
X10678800Y-11320100D01*
X8526300Y-13197700D02*
X8472200Y-13206200D01*
X8692700Y-6603500D02*
X8692700Y-6603500D01*
X20760000Y-11320100D02*
X20760000Y-11320100D01*
X8526300Y-6482600D02*
X8472200Y-6491100D01*
X16870001Y-12520100D02*
X16870001Y-12520100D01*
X16870001Y-7820100D02*
X16870001Y-7820100D01*
X13008800Y-7510100D02*
X13008800Y-7820100D01*
X10758600Y-7510100D02*
X10758600Y-7510100D01*
X16950000Y-8400000D02*
X16870001Y-8400000D01*
X13088800Y-7820100D02*
X13088800Y-7820100D01*
X21257600Y-6657600D02*
X21266200Y-6711600D01*
X13088800Y-8810100D02*
X13088800Y-8810100D01*
X10678800Y-11630100D02*
X10678800Y-11630100D01*
X13008800Y-12520100D02*
X13088800Y-12520100D01*
X8526300Y-13872700D02*
X8526300Y-13872700D01*
X18775000Y-9315100D02*
X17375000Y-9315100D01*
X15470000Y-7820100D02*
X15470000Y-8400000D01*
X9198700Y-11630100D02*
X9278800Y-11630100D01*
X12663700Y-9725100D02*
X12663700Y-9415100D01*
X17375000Y-9725100D02*
X17375000Y-10305100D01*
X21726501Y-6253000D02*
X21757301Y-6277300D01*
X21291000Y-13269800D02*
X21266200Y-13318600D01*
X18775000Y-9315100D02*
X18775000Y-9315100D01*
X9278800Y-11630100D02*
X9278800Y-11630100D01*
X21535500Y-13514200D02*
X21535500Y-13514200D01*
X19200000Y-7820100D02*
X19200000Y-7820100D01*
X19280000Y-12520100D02*
X19280000Y-12620100D01*
X9198700Y-8710100D02*
X9278800Y-8710100D01*
X17375000Y-10715100D02*
X18775000Y-10715100D01*
X8201500Y-6277300D02*
X8232400Y-6253000D01*
X20680000Y-7510100D02*
X20680000Y-7410100D01*
X21486700Y-13206200D02*
X21486700Y-13206200D01*
X8121700Y-13666500D02*
X8121700Y-13666500D01*
X21908100Y-13527200D02*
X21894500Y-13564000D01*
X19200000Y-8710100D02*
X19200000Y-8710100D01*
X21599000Y-13426700D02*
X21607600Y-13372700D01*
X13008800Y-8710100D02*
X13088800Y-8710100D01*
X20680000Y-11220100D02*
X19280000Y-11220100D01*
X8172700Y-6304000D02*
X8172700Y-6304000D01*
X15470000Y-7510100D02*
X15390000Y-7510100D01*
X8526300Y-6157500D02*
X8526300Y-6157500D01*
X16950000Y-11320100D02*
X16870001Y-11320100D01*
X19280000Y-7410100D02*
X19280000Y-7510100D01*
X21535500Y-13231100D02*
X21535500Y-13231100D01*
X21257600Y-13372700D02*
X21266200Y-13426700D01*
X10678800Y-12520100D02*
X10758600Y-12520100D01*
X20680000Y-8400000D02*
X20680000Y-7820100D01*
X9278800Y-12620100D02*
X10678800Y-12620100D01*
X20760000Y-11630100D02*
X20760000Y-11320100D01*
X19200000Y-11320100D02*
X19200000Y-11630100D01*
X21486700Y-13539100D02*
X21486700Y-13539100D01*
X21607600Y-6657600D02*
X21599000Y-6603500D01*
X21574200Y-13475500D02*
X21574200Y-13475500D01*
X12583700Y-10715100D02*
X12583700Y-10715100D01*
X21757301Y-13752900D02*
X21726501Y-13777200D01*
X13008800Y-8400000D02*
X13008800Y-8710100D01*
X21535500Y-6799100D02*
X21574200Y-6760400D01*
X8351300Y-13372700D02*
X8351300Y-13372700D01*
X21549300Y-6171400D02*
X21587100Y-6182000D01*
X8032400Y-13450900D02*
X8032400Y-13450900D01*
X10678800Y-7410100D02*
X9278800Y-7410100D01*
X15470000Y-8400000D02*
X15390000Y-8400000D01*
X21837100Y-6363700D02*
X21837100Y-6363700D01*
X17295001Y-10305100D02*
X17295001Y-10305100D01*
X15390000Y-11630100D02*
X15390000Y-11630100D01*
X12663700Y-9415100D02*
X12583700Y-9415100D01*
X21432600Y-6482600D02*
X21378500Y-6491100D01*
X14568800Y-8400000D02*
X14568800Y-8400000D01*
X8629100Y-6516000D02*
X8580300Y-6491100D01*
X15470000Y-12520100D02*
X15470000Y-12620100D01*
X21812800Y-13697400D02*
X21786201Y-13726200D01*
X18775000Y-10305100D02*
X18775000Y-10305100D01*
X10678800Y-8710100D02*
X10758600Y-8710100D01*
X8580300Y-6824000D02*
X8580300Y-6824000D01*
X17295001Y-10615100D02*
X17295001Y-10615100D01*
X21599000Y-6603500D02*
X21574200Y-6554700D01*
X21266200Y-13426700D02*
X21266200Y-13426700D01*
X8359800Y-6603500D02*
X8351300Y-6657600D01*
X20680000Y-7410100D02*
X19280000Y-7410100D01*
X8409500Y-6171400D02*
X8409500Y-6171400D01*
X18775000Y-10305100D02*
X18775000Y-9725100D01*
X8026300Y-6657600D02*
X8026300Y-6657600D01*
X21432600Y-13872700D02*
X8526300Y-13872700D01*
X8701300Y-13372700D02*
X8692700Y-13318600D01*
X9198700Y-7510100D02*
X9198700Y-7510100D01*
X20760000Y-7820100D02*
X20760000Y-7820100D01*
X21757301Y-6277300D02*
X21757301Y-6277300D01*
X21486700Y-13539100D02*
X21535500Y-13514200D01*
X21607600Y-13372700D02*
X21599000Y-13318600D01*
X8580300Y-13206200D02*
X8580300Y-13206200D01*
X8384700Y-13475500D02*
X8384700Y-13475500D01*
X8064300Y-6466200D02*
X8064300Y-6466200D01*
X13088800Y-12210100D02*
X13088800Y-12210100D01*
X13088800Y-8710100D02*
X13088800Y-8710100D01*
X8026200Y-13372600D02*
X8026300Y-6657600D01*
X15390000Y-8400000D02*
X15390000Y-8400000D01*
X19280000Y-7510100D02*
X19200000Y-7510100D01*
X20680000Y-8810100D02*
X20680000Y-8710100D01*
X21932600Y-13372700D02*
X21932600Y-13372700D01*
X9278800Y-12210100D02*
X9278800Y-12210100D01*
X19200000Y-11630100D02*
X19280000Y-11630100D01*
X8487000Y-6159100D02*
X8526300Y-6157500D01*
X16870001Y-12210100D02*
X16870001Y-11630100D01*
X15390000Y-7820100D02*
X15390000Y-7820100D01*
X14488800Y-11220100D02*
X14488800Y-11220100D01*
X21659600Y-6212000D02*
X21693800Y-6231200D01*
X8099900Y-6396300D02*
X8099900Y-6396300D01*
X19200000Y-11320100D02*
X19200000Y-11320100D01*
X13088800Y-7820100D02*
X13088800Y-8400000D01*
X18855000Y-10615100D02*
X18855000Y-10615100D01*
X8448000Y-6163700D02*
X8487000Y-6159100D01*
X19280000Y-8400000D02*
X19200000Y-8400000D01*
X15390000Y-7510100D02*
X15390000Y-7820100D01*
X21894500Y-13564000D02*
X21878100Y-13599600D01*
X8423400Y-6799100D02*
X8472200Y-6824000D01*
X9198700Y-7820100D02*
X9278800Y-7820100D01*
X21786201Y-6304000D02*
X21812800Y-6332800D01*
X21510799Y-6163700D02*
X21510799Y-6163700D01*
X21858900Y-6396300D02*
X21878100Y-6430600D01*
X15470000Y-12210100D02*
X15470000Y-12210100D01*
X10758600Y-7820100D02*
X10758600Y-7510100D01*
X13088800Y-8810100D02*
X14488800Y-8810100D01*
X8423400Y-13514200D02*
X8423400Y-13514200D01*
X21587100Y-13848200D02*
X21549300Y-13858800D01*
X8692700Y-13426700D02*
X8692700Y-13426700D01*
X19280000Y-8810100D02*
X19280000Y-8810100D01*
X8265000Y-6231200D02*
X8299300Y-6212000D01*
X8472200Y-6491100D02*
X8423400Y-6516000D01*
X15470000Y-12620100D02*
X15470000Y-12620100D01*
X11183700Y-9725100D02*
X11183700Y-9725100D01*
X13008800Y-7510100D02*
X13008800Y-7510100D01*
X16950000Y-8710100D02*
X16950000Y-8710100D01*
X17295001Y-9725100D02*
X17295001Y-9725100D01*
X20680000Y-11320100D02*
X20680000Y-11320100D01*
X10758600Y-7820100D02*
X10758600Y-7820100D01*
X14488800Y-7820100D02*
X14488800Y-7820100D01*
X19280000Y-11630100D02*
X19280000Y-11630100D01*
X21918800Y-13489400D02*
X21908100Y-13527200D01*
X13008800Y-7820100D02*
X13008800Y-7820100D01*
X21623901Y-6195600D02*
X21659600Y-6212000D01*
X21858900Y-6396300D02*
X21858900Y-6396300D01*
X8299300Y-13818200D02*
X8299300Y-13818200D01*
X21932600Y-6657600D02*
X21932600Y-6657600D01*
X8201500Y-13752900D02*
X8201500Y-13752900D01*
X13088800Y-11630100D02*
X13088800Y-11630100D01*
X14488800Y-8810100D02*
X14488800Y-8710100D01*
X15470000Y-12520100D02*
X15470000Y-12520100D01*
X8629100Y-13231100D02*
X8629100Y-13231100D01*
X21587100Y-13848200D02*
X21587100Y-13848200D01*
X8701300Y-6657600D02*
X8701300Y-6657600D01*
X8299300Y-6212000D02*
X8334900Y-6195600D01*
X21291000Y-6760400D02*
X21291000Y-6760400D01*
X14488800Y-12620100D02*
X14488800Y-12520100D01*
X14488800Y-12620100D02*
X14488800Y-12620100D01*
X8472200Y-6824000D02*
X8472200Y-6824000D01*
X21693800Y-6231200D02*
X21693800Y-6231200D01*
X21726501Y-13777200D02*
X21726501Y-13777200D01*
X16870001Y-11320100D02*
X16870001Y-11320100D01*
X21486700Y-13206200D02*
X21432600Y-13197700D01*
X16870001Y-8810100D02*
X16870001Y-8710100D01*
X14568800Y-11320100D02*
X14488800Y-11320100D01*
X8232400Y-13777200D02*
X8232400Y-13777200D01*
X21623901Y-13834600D02*
X21623901Y-13834600D01*
X10758600Y-12520100D02*
X10758600Y-12520100D01*
X8526300Y-13872700D02*
X8487000Y-13871100D01*
X10758600Y-8710100D02*
X10758600Y-8400000D01*
X21757301Y-6277300D02*
X21786201Y-6304000D01*
X8423400Y-6516000D02*
X8423400Y-6516000D01*
X12663700Y-10305100D02*
X12583700Y-10305100D01*
X10758600Y-8710100D02*
X10758600Y-8710100D01*
X8667800Y-6554700D02*
X8629100Y-6516000D01*
X14488800Y-12520100D02*
X14568800Y-12520100D01*
X9278800Y-11320100D02*
X9278800Y-11320100D01*
X12583700Y-10615100D02*
X12583700Y-10615100D01*
X19280000Y-12620100D02*
X20680000Y-12620100D01*
X21574200Y-6554700D02*
X21574200Y-6554700D01*
X12583700Y-10615100D02*
X12663700Y-10615100D01*
X8667800Y-13269800D02*
X8667800Y-13269800D01*
X8384700Y-13269800D02*
X8384700Y-13269800D01*
X21291000Y-13269800D02*
X21291000Y-13269800D01*
X8384700Y-13475500D02*
X8423400Y-13514200D01*
X15470000Y-11220100D02*
X15470000Y-11320100D01*
X8265000Y-13799000D02*
X8265000Y-13799000D01*
X11183700Y-10715100D02*
X11183700Y-10715100D01*
X21432600Y-13547700D02*
X21432600Y-13547700D01*
X11183700Y-10615100D02*
X11183700Y-10615100D01*
X21291000Y-6554700D02*
X21291000Y-6554700D01*
X21659600Y-13818200D02*
X21623901Y-13834600D01*
X16950000Y-7510100D02*
X16950000Y-7510100D01*
X16870001Y-8710100D02*
X16870001Y-8710100D01*
X15470000Y-8810100D02*
X15470000Y-8810100D01*
X21432600Y-13197700D02*
X21378500Y-13206200D01*
X20680000Y-11220100D02*
X20680000Y-11220100D01*
X17295001Y-9725100D02*
X17375000Y-9725100D01*
X21378500Y-13539100D02*
X21432600Y-13547700D01*
X21378500Y-13539100D02*
X21378500Y-13539100D01*
X16870001Y-11630100D02*
X16870001Y-11630100D01*
X8359800Y-13318600D02*
X8359800Y-13318600D01*
X20760000Y-12520100D02*
X20760000Y-12520100D01*
X21926400Y-13450900D02*
X21918800Y-13489400D01*
X21926400Y-6579300D02*
X21926400Y-6579300D01*
X9278800Y-8810100D02*
X10678800Y-8810100D01*
X12583700Y-10715100D02*
X12583700Y-10615100D01*
X8146000Y-13697400D02*
X8121700Y-13666500D01*
X16950000Y-12210100D02*
X16870001Y-12210100D01*
X8580300Y-13206200D02*
X8526300Y-13197700D01*
X21329701Y-13231100D02*
X21291000Y-13269800D01*
X21432600Y-6832600D02*
X21486700Y-6824000D01*
X13088800Y-11220100D02*
X13088800Y-11320100D01*
X11103800Y-10615100D02*
X11103800Y-10615100D01*
X13088800Y-8400000D02*
X13088800Y-8400000D01*
X10678800Y-8810100D02*
X10678800Y-8810100D01*
X13088800Y-11320100D02*
X13008800Y-11320100D01*
X13008800Y-12210100D02*
X13008800Y-12210100D01*
X20680000Y-7820100D02*
X20760000Y-7820100D01*
X15390000Y-8710100D02*
X15470000Y-8710100D01*
X8172700Y-13726200D02*
X8172700Y-13726200D01*
X14568800Y-12210100D02*
X14568800Y-12210100D01*
X8201500Y-6277300D02*
X8201500Y-6277300D01*
X8080700Y-6430600D02*
X8080700Y-6430600D01*
X20680000Y-8400000D02*
X20680000Y-8400000D01*
X19200000Y-11630100D02*
X19200000Y-11630100D01*
X8629100Y-13231100D02*
X8580300Y-13206200D01*
X16870001Y-12620100D02*
X16870001Y-12520100D01*
X17375000Y-10615100D02*
X17375000Y-10615100D01*
X21432600Y-13872700D02*
X21432600Y-13872700D01*
X12583700Y-9725100D02*
X12663700Y-9725100D01*
X8371700Y-13848200D02*
X8334900Y-13834600D01*
X11183700Y-9415100D02*
X11103800Y-9415100D01*
X20760000Y-8710100D02*
X20760000Y-8400000D01*
X20680000Y-11630100D02*
X20680000Y-11630100D01*
X21378500Y-6824000D02*
X21378500Y-6824000D01*
X19200000Y-8710100D02*
X19280000Y-8710100D01*
X8580300Y-6491100D02*
X8526300Y-6482600D01*
X21291000Y-6760400D02*
X21329701Y-6799100D01*
X21894500Y-6466200D02*
X21908100Y-6503000D01*
X21908100Y-13527200D02*
X21908100Y-13527200D01*
X19280000Y-7510100D02*
X19280000Y-7510100D01*
X8667800Y-13475500D02*
X8692700Y-13426700D01*
X9198700Y-11320100D02*
X9198700Y-11320100D01*
X8692700Y-6711600D02*
X8692700Y-6711600D01*
X20680000Y-7820100D02*
X20680000Y-7820100D01*
X21693800Y-6231200D02*
X21726501Y-6253000D01*
X9278800Y-8710100D02*
X9278800Y-8810100D01*
X10758600Y-7510100D02*
X10678800Y-7510100D01*
X16870001Y-7410100D02*
X15470000Y-7410100D01*
X8232400Y-6253000D02*
X8265000Y-6231200D01*
X9198700Y-8400000D02*
X9198700Y-8710100D01*
X8487000Y-13871100D02*
X8487000Y-13871100D01*
X13008800Y-8710100D02*
X13008800Y-8710100D01*
X8146000Y-6332800D02*
X8172700Y-6304000D01*
X9278800Y-12520100D02*
X9278800Y-12620100D01*
X21471800Y-13871100D02*
X21471800Y-13871100D01*
X21574200Y-6554700D02*
X21535500Y-6516000D01*
X21587100Y-6182000D02*
X21623901Y-6195600D01*
X15470000Y-11630100D02*
X15470000Y-11630100D01*
X20680000Y-12520100D02*
X20680000Y-12520100D01*
X14488800Y-12520100D02*
X14488800Y-12520100D01*
X21378500Y-6824000D02*
X21432600Y-6832600D01*
X13088800Y-12620100D02*
X14488800Y-12620100D01*
X16870001Y-8400000D02*
X16870001Y-7820100D01*
X20680000Y-11630100D02*
X20760000Y-11630100D01*
X13008800Y-11630100D02*
X13008800Y-11630100D01*
X8064300Y-13564000D02*
X8050700Y-13527200D01*
X21486700Y-6491100D02*
X21432600Y-6482600D01*
X11103800Y-10305100D02*
X11103800Y-10615100D01*
X16950000Y-8400000D02*
X16950000Y-8400000D01*
X14568800Y-12520100D02*
X14568800Y-12520100D01*
X20760000Y-8400000D02*
X20680000Y-8400000D01*
X8299300Y-6212000D02*
X8299300Y-6212000D01*
X19280000Y-7820100D02*
X19280000Y-7820100D01*
X9198700Y-12520100D02*
X9198700Y-12520100D01*
X8050700Y-6503000D02*
X8064300Y-6466200D01*
X16950000Y-12520100D02*
X16950000Y-12520100D01*
X21726501Y-6253000D02*
X21726501Y-6253000D01*
X8580300Y-13539100D02*
X8580300Y-13539100D01*
X20680000Y-12520100D02*
X20760000Y-12520100D01*
X8526300Y-6482600D02*
X8526300Y-6482600D01*
X10678800Y-8400000D02*
X10678800Y-7820100D01*
X16870001Y-11630100D02*
X16950000Y-11630100D01*
X15470000Y-8710100D02*
X15470000Y-8810100D01*
X21693800Y-13799000D02*
X21693800Y-13799000D01*
X11183700Y-10305100D02*
X11103800Y-10305100D01*
X9278800Y-11320100D02*
X9198700Y-11320100D01*
X16870001Y-8810100D02*
X16870001Y-8810100D01*
X21432600Y-13547700D02*
X21486700Y-13539100D01*
X18855000Y-10615100D02*
X18855000Y-10305100D01*
X14568800Y-8400000D02*
X14488800Y-8400000D01*
X17375000Y-10615100D02*
X17375000Y-10715100D01*
X9278800Y-8400000D02*
X9278800Y-8400000D01*
X10758600Y-12520100D02*
X10758600Y-12210100D01*
X15470000Y-8810100D02*
X16870001Y-8810100D01*
X21599000Y-6711600D02*
X21607600Y-6657600D01*
X14488800Y-11630100D02*
X14568800Y-11630100D01*
X14568800Y-7510100D02*
X14568800Y-7510100D01*
X12583700Y-10305100D02*
X12583700Y-10305100D01*
X8667800Y-13475500D02*
X8667800Y-13475500D01*
X21659600Y-13818200D02*
X21659600Y-13818200D01*
X8334900Y-13834600D02*
X8299300Y-13818200D01*
X19280000Y-8710100D02*
X19280000Y-8710100D01*
X14488800Y-7410100D02*
X13088800Y-7410100D01*
X21599000Y-13318600D02*
X21574200Y-13269800D01*
X8692700Y-6603500D02*
X8667800Y-6554700D01*
X19280000Y-7820100D02*
X19280000Y-8400000D01*
X15390000Y-7510100D02*
X15390000Y-7510100D01*
X8423400Y-13231100D02*
X8384700Y-13269800D01*
X21329701Y-13514200D02*
X21329701Y-13514200D01*
X8472200Y-6824000D02*
X8526300Y-6832600D01*
X14568800Y-12520100D02*
X14568800Y-12210100D01*
X14488800Y-8710100D02*
X14488800Y-8710100D01*
X12583700Y-10305100D02*
X12583700Y-9725100D01*
X21574200Y-6760400D02*
X21574200Y-6760400D01*
X9198700Y-7820100D02*
X9198700Y-7820100D01*
X21786201Y-13726200D02*
X21786201Y-13726200D01*
X13088800Y-8400000D02*
X13008800Y-8400000D01*
X21535500Y-13514200D02*
X21574200Y-13475500D01*
X21837100Y-13666500D02*
X21812800Y-13697400D01*
X12583700Y-9725100D02*
X12583700Y-9725100D01*
X16870001Y-12520100D02*
X16950000Y-12520100D01*
X8359800Y-13318600D02*
X8351300Y-13372700D01*
X20760000Y-11630100D02*
X20760000Y-11630100D01*
X20680000Y-12210100D02*
X20680000Y-12210100D01*
X8667800Y-6760400D02*
X8692700Y-6711600D01*
X21432600Y-13197700D02*
X21432600Y-13197700D01*
X10678800Y-11320100D02*
X10678800Y-11320100D01*
X21574200Y-6760400D02*
X21599000Y-6711600D01*
X21257600Y-6657600D02*
X21257600Y-6657600D01*
X13008800Y-11320100D02*
X13008800Y-11320100D01*
X15470000Y-11320100D02*
X15470000Y-11320100D01*
X10678800Y-11220100D02*
X10678800Y-11220100D01*
X19280000Y-12210100D02*
X19280000Y-12210100D01*
X21535500Y-6799100D02*
X21535500Y-6799100D01*
X8526300Y-6157500D02*
X21432600Y-6157600D01*
X8026200Y-13372600D02*
X8026200Y-13372600D01*
X19280000Y-8710100D02*
X19280000Y-8810100D01*
X21329701Y-6799100D02*
X21378500Y-6824000D01*
X8448000Y-13866500D02*
X8448000Y-13866500D01*
X19280000Y-11320100D02*
X19280000Y-11320100D01*
X21471800Y-6159100D02*
X21471800Y-6159100D01*
X9198700Y-11630100D02*
X9198700Y-11630100D01*
X18775000Y-10615100D02*
X18855000Y-10615100D01*
X8050700Y-13527200D02*
X8040100Y-13489400D01*
X8064300Y-6466200D02*
X8080700Y-6430600D01*
X17375000Y-9415100D02*
X17295001Y-9415100D01*
X19280000Y-11630100D02*
X19280000Y-12210100D01*
X8351300Y-6657600D02*
X8359800Y-6711600D01*
X18775000Y-10715100D02*
X18775000Y-10615100D01*
X21926400Y-13450900D02*
X21926400Y-13450900D01*
X21693800Y-13799000D02*
X21659600Y-13818200D01*
X21931100Y-13411900D02*
X21931100Y-13411900D01*
X9278800Y-12520100D02*
X9278800Y-12520100D01*
X15470000Y-7820100D02*
X15470000Y-7820100D01*
X20680000Y-7410100D02*
X20680000Y-7410100D01*
X8026300Y-6657600D02*
X8027800Y-6618300D01*
X10678800Y-7820100D02*
X10678800Y-7820100D01*
X14568800Y-8710100D02*
X14568800Y-8400000D01*
X10758600Y-12210100D02*
X10758600Y-12210100D01*
X10758600Y-8400000D02*
X10758600Y-8400000D01*
X9278800Y-8400000D02*
X9198700Y-8400000D01*
X16870001Y-11320100D02*
X16870001Y-11220100D01*
X12583700Y-9315100D02*
X11183700Y-9315100D01*
X18855000Y-9725100D02*
X18855000Y-9725100D01*
X8409500Y-6171400D02*
X8448000Y-6163700D01*
X8064300Y-13564000D02*
X8064300Y-13564000D01*
X8472200Y-13539100D02*
X8526300Y-13547700D01*
X16870001Y-12210100D02*
X16870001Y-12210100D01*
X10678800Y-8710100D02*
X10678800Y-8710100D01*
X19200000Y-12210100D02*
X19200000Y-12520100D01*
X11103800Y-9415100D02*
X11103800Y-9725100D01*
X11103800Y-9725100D02*
X11103800Y-9725100D01*
X8121700Y-13666500D02*
X8099900Y-13633900D01*
X8692700Y-13318600D02*
X8667800Y-13269800D01*
X10678800Y-12620100D02*
X10678800Y-12620100D01*
X21432600Y-6832600D02*
X21432600Y-6832600D01*
X21757301Y-13752900D02*
X21757301Y-13752900D01*
X21378500Y-6491100D02*
X21329701Y-6516000D01*
X9278800Y-12210100D02*
X9198700Y-12210100D01*
X8040100Y-13489400D02*
X8040100Y-13489400D01*
X21471800Y-13871100D02*
X21432600Y-13872700D01*
X21878100Y-13599600D02*
X21858900Y-13633900D01*
X13088800Y-12520100D02*
X13088800Y-12520100D01*
X8040100Y-13489400D02*
X8032400Y-13450900D01*
X14488800Y-8400000D02*
X14488800Y-7820100D01*
X21329701Y-6799100D02*
X21329701Y-6799100D01*
X20680000Y-11320100D02*
X20680000Y-11220100D01*
X8580300Y-6491100D02*
X8580300Y-6491100D01*
X8027800Y-6618300D02*
X8032400Y-6579300D01*
X9278800Y-12620100D02*
X9278800Y-12620100D01*
X21535500Y-6516000D02*
X21486700Y-6491100D01*
X13088800Y-7510100D02*
X13008800Y-7510100D01*
X10758600Y-8400000D02*
X10678800Y-8400000D01*
X8099900Y-6396300D02*
X8121700Y-6363700D01*
X10758600Y-11630100D02*
X10758600Y-11630100D01*
X21599000Y-13426700D02*
X21599000Y-13426700D01*
X13088800Y-12520100D02*
X13088800Y-12620100D01*
X17295001Y-10615100D02*
X17375000Y-10615100D01*
X8701300Y-13372700D02*
X8701300Y-13372700D01*
X17375000Y-10305100D02*
X17375000Y-10305100D01*
X19280000Y-12210100D02*
X19200000Y-12210100D01*
X15390000Y-11630100D02*
X15470000Y-11630100D01*
X9278800Y-7410100D02*
X9278800Y-7510100D01*
X21266200Y-6711600D02*
X21291000Y-6760400D01*
X8201500Y-13752900D02*
X8172700Y-13726200D01*
X8032400Y-13450900D02*
X8027800Y-13411900D01*
X8384700Y-13269800D02*
X8359800Y-13318600D01*
X21257600Y-13372700D02*
X21257600Y-13372700D01*
X20760000Y-12210100D02*
X20680000Y-12210100D01*
X11103800Y-9415100D02*
X11103800Y-9415100D01*
X14568800Y-11630100D02*
X14568800Y-11320100D01*
X18855000Y-9415100D02*
X18775000Y-9415100D01*
X8359800Y-13426700D02*
X8384700Y-13475500D01*
X11183700Y-10615100D02*
X11183700Y-10715100D01*
X8121700Y-6363700D02*
X8121700Y-6363700D01*
X8448000Y-6163700D02*
X8448000Y-6163700D01*
X8351300Y-13372700D02*
X8359800Y-13426700D01*
X19280000Y-8400000D02*
X19280000Y-8400000D01*
X8050700Y-13527200D02*
X8050700Y-13527200D01*
X19200000Y-8400000D02*
X19200000Y-8400000D01*
X12663700Y-10305100D02*
X12663700Y-10305100D01*
X19200000Y-8400000D02*
X19200000Y-8710100D01*
X20760000Y-7510100D02*
X20760000Y-7510100D01*
X14568800Y-11320100D02*
X14568800Y-11320100D01*
X20760000Y-7510100D02*
X20680000Y-7510100D01*
X9198700Y-12210100D02*
X9198700Y-12520100D01*
X21432600Y-6482600D02*
X21432600Y-6482600D01*
X8080700Y-13599600D02*
X8080700Y-13599600D01*
X8692700Y-6711600D02*
X8701300Y-6657600D01*
X11183700Y-10305100D02*
X11183700Y-10305100D01*
X15470000Y-8710100D02*
X15470000Y-8710100D01*
X8667800Y-6554700D02*
X8667800Y-6554700D01*
X21908100Y-6503000D02*
X21918800Y-6540800D01*
X21587100Y-6182000D02*
X21587100Y-6182000D01*
X9198700Y-8400000D02*
X9198700Y-8400000D01*
X8232400Y-13777200D02*
X8201500Y-13752900D01*
X9278800Y-8710100D02*
X9278800Y-8710100D01*
X10678800Y-12520100D02*
X10678800Y-12520100D01*
X8701300Y-6657600D02*
X8692700Y-6603500D01*
X20680000Y-12620100D02*
X20680000Y-12520100D01*
X10678800Y-12620100D02*
X10678800Y-12520100D01*
X8371700Y-13848200D02*
X8371700Y-13848200D01*
X9198700Y-11320100D02*
X9198700Y-11630100D01*
X21266200Y-13318600D02*
X21257600Y-13372700D01*
X15390000Y-7820100D02*
X15470000Y-7820100D01*
X18775000Y-9725100D02*
X18775000Y-9725100D01*
X21291000Y-13475500D02*
X21329701Y-13514200D01*
X8423400Y-13514200D02*
X8472200Y-13539100D01*
X19200000Y-7510100D02*
X19200000Y-7510100D01*
X10678800Y-7820100D02*
X10758600Y-7820100D01*
X13088800Y-11630100D02*
X13088800Y-12210100D01*
X13008800Y-7820100D02*
X13088800Y-7820100D01*
X14568800Y-7820100D02*
X14568800Y-7820100D01*
X15470000Y-7510100D02*
X15470000Y-7510100D01*
X21931100Y-13411900D02*
X21926400Y-13450900D01*
X10758600Y-11630100D02*
X10758600Y-11320100D01*
D11*
X8264370Y-14175625D02*
X8264370Y-13975625D01*
X8264370Y-13975625D02*
X8311989Y-13975625D01*
X8311989Y-13975625D02*
X8340561Y-13985149D01*
X8340561Y-13985149D02*
X8359608Y-14004196D01*
X8359608Y-14004196D02*
X8369132Y-14023244D01*
X8369132Y-14023244D02*
X8378656Y-14061339D01*
X8378656Y-14061339D02*
X8378656Y-14089911D01*
X8378656Y-14089911D02*
X8369132Y-14128006D01*
X8369132Y-14128006D02*
X8359608Y-14147054D01*
X8359608Y-14147054D02*
X8340561Y-14166101D01*
X8340561Y-14166101D02*
X8311989Y-14175625D01*
X8311989Y-14175625D02*
X8264370Y-14175625D01*
X8464370Y-14175625D02*
X8464370Y-14042292D01*
X8464370Y-14080387D02*
X8473894Y-14061339D01*
X8473894Y-14061339D02*
X8483418Y-14051815D01*
X8483418Y-14051815D02*
X8502466Y-14042292D01*
X8502466Y-14042292D02*
X8521513Y-14042292D01*
X8588180Y-14175625D02*
X8588180Y-14042292D01*
X8588180Y-13975625D02*
X8578656Y-13985149D01*
X8578656Y-13985149D02*
X8588180Y-13994673D01*
X8588180Y-13994673D02*
X8597704Y-13985149D01*
X8597704Y-13985149D02*
X8588180Y-13975625D01*
X8588180Y-13975625D02*
X8588180Y-13994673D01*
X8711989Y-14175625D02*
X8692942Y-14166101D01*
X8692942Y-14166101D02*
X8683418Y-14147054D01*
X8683418Y-14147054D02*
X8683418Y-13975625D01*
X8816751Y-14175625D02*
X8797704Y-14166101D01*
X8797704Y-14166101D02*
X8788180Y-14147054D01*
X8788180Y-14147054D02*
X8788180Y-13975625D01*
X9012942Y-14175625D02*
X9012942Y-13975625D01*
X9012942Y-13975625D02*
X9079608Y-14118482D01*
X9079608Y-14118482D02*
X9146275Y-13975625D01*
X9146275Y-13975625D02*
X9146275Y-14175625D01*
X9327227Y-14175625D02*
X9327227Y-14070863D01*
X9327227Y-14070863D02*
X9317704Y-14051815D01*
X9317704Y-14051815D02*
X9298656Y-14042292D01*
X9298656Y-14042292D02*
X9260561Y-14042292D01*
X9260561Y-14042292D02*
X9241513Y-14051815D01*
X9327227Y-14166101D02*
X9308180Y-14175625D01*
X9308180Y-14175625D02*
X9260561Y-14175625D01*
X9260561Y-14175625D02*
X9241513Y-14166101D01*
X9241513Y-14166101D02*
X9231989Y-14147054D01*
X9231989Y-14147054D02*
X9231989Y-14128006D01*
X9231989Y-14128006D02*
X9241513Y-14108958D01*
X9241513Y-14108958D02*
X9260561Y-14099435D01*
X9260561Y-14099435D02*
X9308180Y-14099435D01*
X9308180Y-14099435D02*
X9327227Y-14089911D01*
X9422466Y-14042292D02*
X9422466Y-14242292D01*
X9422466Y-14051815D02*
X9441513Y-14042292D01*
X9441513Y-14042292D02*
X9479608Y-14042292D01*
X9479608Y-14042292D02*
X9498656Y-14051815D01*
X9498656Y-14051815D02*
X9508180Y-14061339D01*
X9508180Y-14061339D02*
X9517704Y-14080387D01*
X9517704Y-14080387D02*
X9517704Y-14137530D01*
X9517704Y-14137530D02*
X9508180Y-14156577D01*
X9508180Y-14156577D02*
X9498656Y-14166101D01*
X9498656Y-14166101D02*
X9479608Y-14175625D01*
X9479608Y-14175625D02*
X9441513Y-14175625D01*
X9441513Y-14175625D02*
X9422466Y-14166101D01*
X9603418Y-14156577D02*
X9612942Y-14166101D01*
X9612942Y-14166101D02*
X9603418Y-14175625D01*
X9603418Y-14175625D02*
X9593894Y-14166101D01*
X9593894Y-14166101D02*
X9603418Y-14156577D01*
X9603418Y-14156577D02*
X9603418Y-14175625D01*
X9603418Y-14051815D02*
X9612942Y-14061339D01*
X9612942Y-14061339D02*
X9603418Y-14070863D01*
X9603418Y-14070863D02*
X9593894Y-14061339D01*
X9593894Y-14061339D02*
X9603418Y-14051815D01*
X9603418Y-14051815D02*
X9603418Y-14070863D01*
M02*
